<svg width="16" height="16" viewBox="0 0 16 16" fill="none" xmlns="http://www.w3.org/2000/svg">
<g clip-path="url(#clip0_2148_1195)">
<path d="M7.10156 5.70312H8.44992V5.96494H7.40789V6.48334H8.38709V6.74516H7.40789V7.31068H8.49443V7.5725H7.10156V5.70312Z" fill="white"/>
<g filter="url(#filter0_d_2148_1195)">
<circle cx="8.05469" cy="8" r="4.22656" fill="url(#paint0_linear_2148_1195)"/>
</g>
<foreignObject x="1.8875" y="1.98516" width="12.225" height="17.3383"><div xmlns="http://www.w3.org/1999/xhtml" style="backdrop-filter:blur(1.65px);clip-path:url(#bgblur_1_2148_1195_clip_path);height:100%;width:100%"></div></foreignObject><path data-figma-bg-blur-radius="3.3" d="M7.99846 16L5.36411 5.58424L7.99846 7.984L10.6328 5.58424L7.99846 16Z" fill="#A6FFA1" fill-opacity="0.2" stroke="url(#paint1_linear_2148_1195)" stroke-opacity="0.5" stroke-width="0.2"/>
<rect x="7.9375" y="4.49219" width="0.15" height="1.10434" fill="white"/>
<rect x="7.9375" y="10.5195" width="0.15" height="1.10434" fill="white"/>
<path d="M8.04766 7.11719C8.24465 7.11719 8.39892 7.15754 8.51047 7.24298C8.62914 7.33079 8.6956 7.46608 8.71221 7.6512H8.45589C8.43215 7.54203 8.38943 7.46133 8.32298 7.41386C8.25652 7.36402 8.16158 7.34029 8.03342 7.34029C7.92187 7.34029 7.83643 7.3569 7.77709 7.39013C7.70352 7.4281 7.66792 7.48981 7.66792 7.57525C7.66792 7.6512 7.70826 7.71054 7.79371 7.75563C7.83168 7.77699 7.92899 7.81259 8.08801 7.86006C8.31586 7.93126 8.46538 7.98585 8.53183 8.0262C8.67661 8.11402 8.75019 8.23506 8.75019 8.3917C8.75019 8.5436 8.69085 8.66227 8.57218 8.75009C8.45351 8.83553 8.28737 8.87825 8.07377 8.87825C7.86728 8.87825 7.70589 8.83553 7.58959 8.75483C7.44956 8.65515 7.37362 8.49851 7.35938 8.2849H7.6157C7.63469 8.41781 7.68216 8.51512 7.75811 8.57208C7.82693 8.6243 7.93136 8.6504 8.07377 8.6504C8.20193 8.6504 8.30399 8.62667 8.37994 8.58395C8.45589 8.54123 8.49386 8.48189 8.49386 8.40594C8.49386 8.31101 8.43927 8.23743 8.33247 8.18284C8.29449 8.16386 8.18294 8.12588 7.99545 8.06892C7.78659 8.00247 7.65842 7.95737 7.60621 7.92889C7.47567 7.85057 7.41159 7.73665 7.41159 7.58949C7.41159 7.43997 7.4733 7.32367 7.59909 7.23823C7.71776 7.15754 7.86728 7.11719 8.04766 7.11719Z" fill="white"/>
<rect x="11.6211" y="7.94141" width="0.15" height="1.10434" transform="rotate(90 11.6211 7.94141)" fill="white"/>
<rect x="5.59375" y="7.94141" width="0.15" height="1.10434" transform="rotate(90 5.59375 7.94141)" fill="white"/>
<g filter="url(#filter2_f_2148_1195)">
<path d="M3.36328 11.4375C4.78222 12.7492 8.67999 14.5857 12.9195 11.4375" stroke="#3EB935" stroke-opacity="0.2" stroke-width="4" stroke-linecap="round"/>
</g>
</g>
<defs>
<filter id="filter0_d_2148_1195" x="1.82812" y="2.77344" width="12.4531" height="12.4531" filterUnits="userSpaceOnUse" color-interpolation-filters="sRGB">
<feFlood flood-opacity="0" result="BackgroundImageFix"/>
<feColorMatrix in="SourceAlpha" type="matrix" values="0 0 0 0 0 0 0 0 0 0 0 0 0 0 0 0 0 0 127 0" result="hardAlpha"/>
<feOffset dy="1"/>
<feGaussianBlur stdDeviation="1"/>
<feComposite in2="hardAlpha" operator="out"/>
<feColorMatrix type="matrix" values="0 0 0 0 1 0 0 0 0 1 0 0 0 0 1 0 0 0 0.8 0"/>
<feBlend mode="normal" in2="BackgroundImageFix" result="effect1_dropShadow_2148_1195"/>
<feBlend mode="normal" in="SourceGraphic" in2="effect1_dropShadow_2148_1195" result="shape"/>
</filter>
<clipPath id="bgblur_1_2148_1195_clip_path" transform="translate(-1.8875 -1.98516)"><path d="M7.99846 16L5.36411 5.58424L7.99846 7.984L10.6328 5.58424L7.99846 16Z"/>
</clipPath><filter id="filter2_f_2148_1195" x="-1.23672" y="6.8375" width="18.7547" height="10.9422" filterUnits="userSpaceOnUse" color-interpolation-filters="sRGB">
<feFlood flood-opacity="0" result="BackgroundImageFix"/>
<feBlend mode="normal" in="SourceGraphic" in2="BackgroundImageFix" result="shape"/>
<feGaussianBlur stdDeviation="1.3" result="effect1_foregroundBlur_2148_1195"/>
</filter>
<linearGradient id="paint0_linear_2148_1195" x1="3.86176" y1="3.77344" x2="12.3146" y2="12.159" gradientUnits="userSpaceOnUse">
<stop stop-color="#4FF245"/>
<stop offset="1" stop-color="#088300"/>
</linearGradient>
<linearGradient id="paint1_linear_2148_1195" x1="4.81453" y1="6.51679" x2="8.77684" y2="11.6723" gradientUnits="userSpaceOnUse">
<stop stop-color="white"/>
<stop offset="0.564945" stop-color="white" stop-opacity="0"/>
</linearGradient>
<clipPath id="clip0_2148_1195">
<rect width="16" height="16" fill="white"/>
</clipPath>
</defs>
</svg>
