<?xml version="1.0" encoding="utf-8"?>
<!-- Generator: Adobe Illustrator 24.1.2, SVG Export Plug-In . SVG Version: 6.00 Build 0)  -->
<svg version="1.1" id="Layer_1" xmlns="http://www.w3.org/2000/svg" xmlns:xlink="http://www.w3.org/1999/xlink" x="0px" y="0px"
	 viewBox="0 0 24 24" style="enable-background:new 0 0 24 24;" xml:space="preserve">
<style type="text/css">
	.st0{fill:none;stroke:#000000;stroke-width:0.75;stroke-linecap:round;stroke-linejoin:round;}
</style>
<path class="st0" d="M4.4,1.6L6,3.3c0.9,0.9,0.9,2.4,0,3.3s-2.4,0.9-3.3,0s-0.9-2.4,0-3.3c0,0,0,0,0,0L4.4,1.6z"/>
<path class="st0" d="M12,1.6l1.6,1.6c0.9,0.9,0.9,2.4,0,3.3s-2.4,0.9-3.3,0c-0.9-0.9-0.9-2.4,0-3.3c0,0,0,0,0,0L12,1.6z"/>
<path class="st0" d="M19.3,1.6L21,3.3c0.9,0.9,0.9,2.4,0,3.3s-2.4,0.9-3.3,0c-0.9-0.9-0.9-2.4,0-3.3c0,0,0,0,0,0L19.3,1.6z"/>
<line class="st0" x1="1.5" y1="9.5" x2="22.2" y2="9.5"/>
<line class="st0" x1="1.5" y1="15.1" x2="22.2" y2="15.1"/>
<circle cx="4.4" cy="11.4" r="0.5"/>
<circle cx="11.9" cy="11.4" r="0.5"/>
<circle cx="19.4" cy="11.4" r="0.5"/>
<circle cx="4.4" cy="13.5" r="0.5"/>
<circle cx="11.9" cy="13.5" r="0.5"/>
<circle cx="19.4" cy="13.5" r="0.5"/>
<circle cx="8.1" cy="11.3" r="0.5"/>
<circle cx="8.1" cy="13.4" r="0.5"/>
<circle cx="15.6" cy="11.3" r="0.5"/>
<circle cx="15.6" cy="13.4" r="0.5"/>
<path class="st0" d="M4.4,17.3L6,18.9c0.9,0.9,0.9,2.4,0,3.3s-2.4,0.9-3.3,0s-0.9-2.4,0-3.3c0,0,0,0,0,0L4.4,17.3z"/>
<path class="st0" d="M12,17.3l1.6,1.6c0.9,0.9,0.9,2.4,0,3.3s-2.4,0.9-3.3,0c-0.9-0.9-0.9-2.4,0-3.3c0,0,0,0,0,0L12,17.3z"/>
<path class="st0" d="M19.3,17.3l1.6,1.6c0.9,0.9,0.9,2.4,0,3.3s-2.4,0.9-3.3,0c-0.9-0.9-0.9-2.4,0-3.3c0,0,0,0,0,0L19.3,17.3z"/>
</svg>
