<?xml version="1.0" encoding="utf-8"?>
<!-- Generator: Adobe Illustrator 24.1.2, SVG Export Plug-In . SVG Version: 6.00 Build 0)  -->
<svg version="1.1" id="Layer_1" xmlns="http://www.w3.org/2000/svg" xmlns:xlink="http://www.w3.org/1999/xlink" x="0px" y="0px"
	 viewBox="0 0 24 24" style="enable-background:new 0 0 24 24;" xml:space="preserve">
<style type="text/css">
	.st0{fill:none;stroke:#000000;stroke-width:2;stroke-linecap:round;stroke-linejoin:round;}
	.st1{fill:none;stroke:#000000;stroke-linecap:round;stroke-linejoin:round;}
</style>
<path class="st0" d="M14.6,17.8c0.7,0.4,1,0.9,1,1.4c0,1.3-2.7,2.4-6,2.4s-6-1.1-6-2.4c0-0.6,0.4-1.1,1.2-1.5"/>
<path class="st0" d="M15.5,8.7c0,4.6-5.9,8.5-5.9,8.5s-5.9-4-5.9-8.5c0-3.2,2.6-5.9,5.9-5.9S15.5,5.4,15.5,8.7z"/>
<circle class="st0" cx="9.6" cy="9" r="2"/>
<path class="st1" d="M16.3,3.3c0.3-0.1,0.7-0.1,1-0.1c2.9,0,5.1,2.3,5.1,5.1c0,4-5.1,7.4-5.1,7.4s-0.5-0.3-1.1-0.8"/>
<path class="st1" d="M17.4,7c0.8,0,1.5,0.7,1.5,1.5s-0.7,1.5-1.5,1.5"/>
<path class="st1" d="M21.1,15.8c0.5,0.3,0.8,0.7,0.8,1c0,1-2,1.8-4.5,1.8"/>
</svg>
