<?xml version="1.0" encoding="utf-8"?>
<!-- Generator: Adobe Illustrator 24.1.2, SVG Export Plug-In . SVG Version: 6.00 Build 0)  -->
<svg version="1.1" id="Layer_1" xmlns="http://www.w3.org/2000/svg" xmlns:xlink="http://www.w3.org/1999/xlink" x="0px" y="0px"
	 viewBox="0 0 24 24" style="enable-background:new 0 0 24 24;" xml:space="preserve">
<style type="text/css">
	.st0{fill:none;stroke:#000000;stroke-linecap:round;stroke-linejoin:round;}
	.st1{fill:none;stroke:#000000;stroke-width:2;stroke-linecap:round;stroke-linejoin:round;}
	.st2{fill:none;stroke:#000000;stroke-width:0.25;stroke-linecap:round;stroke-linejoin:round;}
</style>
<line class="st0" x1="6.1" y1="20.7" x2="12" y2="8.9"/>
<line class="st0" x1="12" y1="8.9" x2="17.8" y2="20.8"/>
<line class="st0" x1="12" y1="8.9" x2="12" y2="22.6"/>
<line class="st0" x1="7.7" y1="17.6" x2="16.2" y2="17.6"/>
<line class="st0" x1="9.6" y1="13.7" x2="14.4" y2="13.7"/>
<line class="st1" x1="7.1" y1="6.2" x2="22.1" y2="14"/>
<path d="M6.6,11.5l-2.9,2.1c-0.5,0.3-1.1,0-1-0.6L3,9.4l4.3-7.6c0,0,1.7-0.5,2.5,0c0.7,0.4,1.1,2.1,1.1,2.1L6.6,11.5z"/>
<rect x="20.7" y="17.6" width="2.6" height="3.5"/>
<line class="st2" x1="22" y1="14" x2="22" y2="19.4"/>
</svg>
