<?xml version="1.0" encoding="utf-8"?>
<svg version="1.1" id="Layer_1" xmlns="http://www.w3.org/2000/svg" xmlns:xlink="http://www.w3.org/1999/xlink" x="0px" y="0px"
	 viewBox="0 0 24 24" xml:space="preserve">
<g>
	<path style="fill:#5F6368;" d="M20.7,7.5C20.6,7.2,20.3,7,20,6.8l-4-2.3v2.3l1.9,1.1L12,11.4L6.1,7.9L8,6.8V4.5L4,6.8C3.7,7,3.4,7.2,3.3,7.5
		C3.1,7.8,3,8.2,3,8.5v8c0,0.4,0.1,0.7,0.3,1S3.7,18,4,18.2l7,4c0.3,0.2,0.7,0.3,1,0.3s0.7-0.1,1-0.3l7-4c0.3-0.2,0.6-0.4,0.7-0.7
		s0.3-0.6,0.3-1v-8C21,8.2,20.9,7.8,20.7,7.5z M11,19.9l-6-3.5V9.6l6,3.5V19.9z M19,16.5l-6,3.5v-6.8l6-3.5V16.5z"/>
	<path style="fill:#5F6368;" d="M12,8.5c0.6,0,1-0.2,1-0.5V7.5v-4V3c0-0.3-0.4-0.5-1-0.5S11,2.7,11,3v0.5v4V8C11,8.3,11.4,8.5,12,8.5z"/>
</g>
</svg>
