<?xml version="1.0" encoding="utf-8"?>
<!-- Generator: Adobe Illustrator 24.1.2, SVG Export Plug-In . SVG Version: 6.00 Build 0)  -->
<svg version="1.1" id="Layer_1" xmlns="http://www.w3.org/2000/svg" xmlns:xlink="http://www.w3.org/1999/xlink" x="0px" y="0px"
	 viewBox="0 0 24 24" style="enable-background:new 0 0 24 24;" xml:space="preserve">
<style type="text/css">
	.st0{fill:none;stroke:#000000;stroke-linecap:round;stroke-linejoin:round;}
	.st1{fill:none;stroke:#000000;stroke-width:0.75;stroke-linecap:round;stroke-linejoin:round;}
</style>
<line class="st0" x1="6.1" y1="20.7" x2="10" y2="8.9"/>
<line class="st0" x1="13.9" y1="8.9" x2="17.8" y2="20.8"/>
<line class="st0" x1="12" y1="5.8" x2="12" y2="22.6"/>
<line class="st1" x1="6.8" y1="18.5" x2="17.6" y2="20.2"/>
<line class="st1" x1="9.4" y1="10.7" x2="15" y2="12.3"/>
<path d="M3.7,13.6"/>
<path d="M12.5,10.2h-1c-0.9,0-2.8-1.7-2.9-1.7V7.3c0-0.3,0.2-0.5,0.5-0.5H15c0.3,0,0.5,0.2,0.5,0.5v1.2
	C15.5,8.5,13.4,10.2,12.5,10.2z"/>
<path d="M16.5,16.1H7.4c-0.4,0-0.7-0.3-0.7-0.7v-0.2c0-0.4,0.3-0.7,0.7-0.7h9.1c0.4,0,0.7,0.3,0.7,0.7v0.2
	C17.2,15.8,16.9,16.1,16.5,16.1z"/>
<line class="st1" x1="8.2" y1="14.5" x2="15" y2="12.3"/>
<line class="st1" x1="6.8" y1="18.5" x2="16.3" y2="16.1"/>
<path d="M14.3,4.1c0,0.7-0.5,0.2-1,0.4c-0.6,0.3-0.7,0.6-1,0.5c-0.2,0,0.4-1.2,0.9-1.3C13.8,3.5,14.3,3.8,14.3,4.1z"/>
<path d="M16.4,1.5c-0.1,0.9-0.9,0.3-1.8,0.5c-1.2,0.3-1.3,0.8-1.8,0.7c-0.4-0.1,0.9-1.6,1.8-1.8C15.6,0.6,16.4,1.1,16.4,1.5z"/>
<path d="M9.9,3.4c0,0.7,0.5,0.2,1,0.4c0.6,0.3,0.7,0.6,1,0.5c0.2,0-0.4-1.2-0.9-1.3C10.3,2.9,9.8,3.2,9.9,3.4z"/>
<path d="M8.5,1.3c0,0.9,0.8,0.3,1.5,0.6c1,0.3,1.1,0.8,1.5,0.7c0.3-0.1-0.6-1.5-1.4-1.8C9.2,0.6,8.5,1,8.5,1.3z"/>
</svg>
