<?xml version="1.0" encoding="utf-8"?>
<svg width="16" height="16" viewBox="0 0 16 16" fill="none" xmlns="http://www.w3.org/2000/svg">
  <path d="M 1.482 2.09 L 1.482 13.91 L 10.482 7.97 L 1.482 2.09 Z M 2.982 4.91 L 7.792 7.97 L 2.982 11.09 L 2.982 4.91 Z" fill="#89D185"/>
  <path fill-rule="evenodd" clip-rule="evenodd" d="M 13.143 8.872 L 14.518 9.165 L 14.493 10.776 L 13.111 11.028 L 13.874 12.21 L 12.718 13.333 L 11.559 12.537 L 11.261 13.91 L 9.652 13.885 L 9.398 12.504 L 8.217 13.264 L 7.091 12.105 L 7.893 10.948 L 6.518 10.653 L 6.543 9.043 L 7.924 8.792 L 7.16 7.607 L 8.32 6.486 L 9.477 7.282 L 9.772 5.908 L 11.384 5.932 L 11.638 7.316 L 12.82 6.555 L 13.943 7.711 Z M 9.107 9.28 C 8.988 9.568 8.952 9.882 9.006 10.195 C 9.058 10.503 9.203 10.788 9.413 11.015 C 9.624 11.24 9.894 11.393 10.194 11.461 C 10.491 11.53 10.801 11.503 11.08 11.384 C 11.362 11.268 11.607 11.07 11.776 10.813 C 11.952 10.551 12.05 10.249 12.055 9.931 C 12.057 9.513 11.901 9.106 11.617 8.804 C 11.335 8.501 10.947 8.329 10.539 8.319 C 10.237 8.315 9.938 8.403 9.682 8.572 C 9.43 8.744 9.23 8.992 9.107 9.28 Z" style="fill: rgb(174, 78, 151); stroke-width: 0.4px;"/>
</svg>