<?xml version="1.0" encoding="utf-8"?>
<svg width="16" height="16" viewBox="0 0 16 16" fill="none" xmlns="http://www.w3.org/2000/svg">
  <g>
    <path fill-rule="evenodd" clip-rule="evenodd" d="M 2.873 1.1 C 3.208 1.236 3.475 1.498 3.618 1.83 C 3.69 2 3.727 2.182 3.725 2.367 C 3.726 2.55 3.69 2.731 3.618 2.9 C 3.513 3.146 3.338 3.355 3.114 3.502 C 2.891 3.649 2.629 3.726 2.362 3.725 C 2.179 3.726 1.998 3.69 1.83 3.618 C 1.583 3.514 1.372 3.339 1.225 3.116 C 1.077 2.892 0.999 2.63 1 2.362 C 0.999 2.179 1.035 1.998 1.106 1.83 C 1.243 1.503 1.503 1.243 1.83 1.106 C 2.163 0.967 2.538 0.965 2.873 1.1 Z M 2.575 2.865 C 2.705 2.809 2.809 2.705 2.865 2.575 C 2.893 2.508 2.907 2.437 2.907 2.365 C 2.908 2.265 2.882 2.167 2.832 2.082 C 2.782 1.996 2.709 1.925 2.622 1.878 C 2.534 1.83 2.436 1.807 2.336 1.811 C 2.237 1.815 2.14 1.847 2.057 1.901 C 1.974 1.956 1.908 2.032 1.865 2.122 C 1.822 2.212 1.804 2.312 1.814 2.411 C 1.823 2.51 1.859 2.604 1.918 2.684 C 1.977 2.764 2.057 2.827 2.149 2.865 C 2.285 2.921 2.439 2.921 2.575 2.865 Z" style="fill: rgb(174, 78, 151);"/>
    <path fill-rule="evenodd" clip-rule="evenodd" d="M 7.226 5.862 C 7.227 6.13 7.148 6.392 7.001 6.616 C 6.853 6.839 6.642 7.014 6.395 7.118 C 6.226 7.188 6.045 7.225 5.863 7.225 C 5.68 7.225 5.499 7.188 5.33 7.118 C 5.165 7.048 5.015 6.947 4.889 6.819 C 4.764 6.691 4.664 6.54 4.597 6.374 C 4.53 6.208 4.496 6.03 4.497 5.851 C 4.499 5.672 4.536 5.495 4.606 5.33 C 4.743 5.003 5.003 4.743 5.33 4.606 C 5.498 4.535 5.679 4.499 5.862 4.5 C 6.13 4.498 6.393 4.576 6.616 4.724 C 6.84 4.872 7.014 5.083 7.118 5.33 C 7.19 5.498 7.227 5.679 7.226 5.862 Z M 6.408 5.862 C 6.408 5.789 6.393 5.716 6.365 5.649 C 6.337 5.585 6.298 5.526 6.249 5.476 C 6.199 5.427 6.14 5.387 6.076 5.36 C 6.009 5.331 5.936 5.317 5.863 5.317 C 5.79 5.317 5.717 5.331 5.65 5.36 C 5.519 5.415 5.415 5.518 5.36 5.649 C 5.304 5.785 5.304 5.938 5.36 6.075 C 5.387 6.14 5.427 6.199 5.477 6.248 C 5.527 6.298 5.585 6.337 5.65 6.365 C 5.717 6.393 5.79 6.407 5.863 6.407 C 5.936 6.407 6.009 6.393 6.076 6.365 C 6.14 6.337 6.199 6.297 6.249 6.248 C 6.298 6.198 6.338 6.139 6.365 6.075 C 6.393 6.007 6.408 5.935 6.408 5.862 Z" style="fill: rgb(174, 78, 151);"/>
    <path fill-rule="evenodd" clip-rule="evenodd" d="M 6.43 1.11 L 1.11 6.43 L 1.796 7.116 L 7.116 1.795 L 6.43 1.11 Z" style="fill: rgb(174, 78, 151);"/>
  </g>
  <path fill-rule="evenodd" clip-rule="evenodd" d="M 14 3 L 10 3 L 10 4 L 14 4 L 14 3 Z" style="fill: rgb(137, 209, 133);"/>
  <path fill-rule="evenodd" clip-rule="evenodd" d="M 5.7677700000000005 9.52509 L 6.47487 10.2322 L 4.70711 12 L 6.47487 13.7677 L 5.7677700000000005 14.4748 L 4 12.7071 L 2.23223 14.4748 L 1.5251299999999999 13.7677 L 3.29289 12 L 1.5251299999999999 10.2322 L 2.23223 9.52509 L 4 11.2929 L 5.7677700000000005 9.52509 Z" style="fill: rgb(117, 190, 255);"/>
  <path fill-rule="evenodd" clip-rule="evenodd" d="M 11.5 8.99999 L 12.5 8.99999 L 12.5 11.5 L 15 11.5 L 15 12.5 L 12.5 12.5 L 12.5 15 L 11.5 15 L 11.5 12.5 L 9 12.5 L 9 11.5 L 11.5 11.5 L 11.5 8.99999 Z" style="fill: rgb(255, 115, 0);"/>
</svg>