<?xml version="1.0" encoding="utf-8"?>
<svg width="16" height="16" viewBox="0 0 16 16" fill="none" xmlns="http://www.w3.org/2000/svg">
  <path fill-rule="evenodd" clip-rule="evenodd" d="M6 1.5L6.5 1H14.5L15 1.5V3.5V8.5L14.5 9H12V8H14V4H7V5H6V3.5V1.5ZM7 2V3H14V2H7ZM1.5 7L1 7.5V14.5L1.5 15H9.5L10 14.5V7.5L9.5 7H1.5ZM2 9V8H9V9H2ZM2 10H9V14H2V10Z" fill="#C5C5C5"/>
  <rect x="5.995" y="4.911" width="1.002" height="2.188" style="fill: rgb(197, 197, 197);" rx="0.071" ry="0.071"/>
  <rect x="9.609" y="8" width="2.502" height="1.005" style="fill: rgb(197, 197, 197);"/>
</svg>