<?xml version="1.0" encoding="utf-8"?>
<svg width="16" height="16" viewBox="0 0 16 16" fill="none" xmlns="http://www.w3.org/2000/svg">
  <path d="M 0.554 13.04 C 1.124 13.04 1.851 13.057 2.39 12.829 C 2.632 12.729 2.949 12.947 3.172 12.785 C 3.534 12.519 4.077 12.743 4.417 12.41 C 5.301 11.549 6.416 10.537 7.194 9.4 C 7.562 8.861 8.32 8.583 8.87 8.583 C 8.966 8.583 9.286 8.507 9.365 8.583 C 9.781 8.989 10.339 9.191 10.77 9.61 C 10.953 9.79 11.077 10.087 11.249 10.287 C 11.876 11.02 12.509 11.669 13.164 12.387 C 13.476 12.729 13.865 12.947 14.249 13.087 C 14.407 13.145 14.782 13.12 14.888 13.274 C 14.888 13.241 15.153 13.216 15.191 13.216 C 15.276 13.169 15.361 13.169 15.447 13.169" style="fill: rgb(216, 216, 216); fill-opacity: 0; stroke: rgb(128, 70, 0); stroke-linejoin: round; stroke-width: 1.5px;"/>
  <path d="M 11.646 2.853 L 11.646 2.853" style="stroke: rgb(0, 0, 0); fill: rgb(216, 216, 216); stroke-width: 1.5px;"/>
  <path d="M 0.554 11.835 C 1.124 11.835 1.851 11.851 2.39 11.625 C 2.632 11.524 2.949 11.741 3.172 11.58 C 3.534 11.313 4.077 11.537 4.417 11.205 C 5.301 10.344 6.416 9.333 7.194 8.195 C 7.562 7.656 8.32 7.378 8.87 7.378 C 8.966 7.378 9.286 7.302 9.365 7.378 C 9.781 7.784 10.339 7.986 10.77 8.405 C 10.953 8.584 11.077 8.882 11.249 9.083 C 11.876 9.815 12.509 10.464 13.164 11.182 C 13.476 11.524 13.865 11.741 14.249 11.883 C 14.407 11.939 14.782 11.914 14.888 12.07 C 14.888 12.036 15.153 12.011 15.191 12.011 C 15.276 11.963 15.361 11.963 15.447 11.963" style="fill-opacity: 0; stroke-linejoin: round; fill: rgb(189, 120, 0); stroke: rgb(171, 94, 0); stroke-width: 1.5px;"/>
  <path d="M 0.554 10.638 C 1.124 10.638 1.851 10.656 2.39 10.429 C 2.632 10.329 2.949 10.546 3.172 10.384 C 3.534 10.117 4.077 10.341 4.417 10.009 C 5.301 9.148 6.416 8.136 7.194 6.998 C 7.562 6.46 8.32 6.182 8.87 6.182 C 8.966 6.182 9.286 6.106 9.365 6.182 C 9.781 6.588 10.339 6.79 10.77 7.209 C 10.953 7.387 11.077 7.685 11.249 7.886 C 11.876 8.619 12.509 9.268 13.164 9.985 C 13.476 10.329 13.865 10.546 14.249 10.685 C 14.407 10.743 14.782 10.719 14.888 10.873 C 14.888 10.839 15.153 10.814 15.191 10.814 C 15.276 10.768 15.361 10.768 15.447 10.768" style="fill: rgb(216, 216, 216); fill-opacity: 0; stroke-linejoin: round; stroke: rgb(210, 117, 3); stroke-width: 1.5px;"/>
  <path d="M 0.554 9.482 C 1.124 9.482 1.851 9.497 2.39 9.271 C 2.632 9.17 2.949 9.388 3.172 9.225 C 3.534 8.96 4.077 9.183 4.417 8.85 C 5.301 7.99 6.416 6.979 7.194 5.841 C 7.562 5.303 8.32 5.024 8.87 5.024 C 8.966 5.024 9.286 4.948 9.365 5.024 C 9.781 5.43 10.339 5.632 10.77 6.052 C 10.953 6.23 11.077 6.529 11.249 6.729 C 11.876 7.46 12.509 8.11 13.164 8.828 C 13.476 9.17 13.865 9.388 14.249 9.529 C 14.407 9.585 14.782 9.56 14.888 9.716 C 14.888 9.682 15.153 9.657 15.191 9.657 C 15.276 9.61 15.361 9.61 15.447 9.61" style="fill: rgb(216, 216, 216); fill-opacity: 0; stroke-linejoin: round; stroke: rgb(255, 140, 0); stroke-width: 1.5px;"/>
  <path d="M 0.554 8.315 C 1.124 8.315 1.851 8.332 2.39 8.105 C 2.632 8.005 2.949 8.222 3.172 8.06 C 3.534 7.793 4.077 8.017 4.417 7.685 C 5.301 6.825 6.416 5.813 7.194 4.675 C 7.562 4.137 8.32 3.858 8.87 3.858 C 8.966 3.858 9.286 3.782 9.365 3.858 C 9.781 4.264 10.339 4.466 10.77 4.886 C 10.953 5.064 11.077 5.362 11.249 5.563 C 11.876 6.295 12.509 6.944 13.164 7.661 C 13.476 8.005 13.865 8.222 14.249 8.361 C 14.407 8.419 14.782 8.394 14.888 8.549 C 14.888 8.516 15.153 8.491 15.191 8.491 C 15.276 8.444 15.361 8.444 15.447 8.444" style="fill: rgb(216, 216, 216); fill-opacity: 0; stroke-linejoin: round; stroke: rgb(150, 84, 3); stroke-width: 1.5px;"/>
</svg>