<?xml version="1.0" encoding="utf-8"?>
<!-- Generator: Adobe Illustrator 24.3.0, SVG Export Plug-In . SVG Version: 6.00 Build 0)  -->
<svg version="1.1" id="Layer_1" xmlns="http://www.w3.org/2000/svg" xmlns:xlink="http://www.w3.org/1999/xlink" x="0px" y="0px"
	 viewBox="0 0 24 24" style="enable-background:new 0 0 24 24;" xml:space="preserve">
<style type="text/css">
	.st0{fill:#FFFFFF;stroke:#8F9090;stroke-linecap:round;stroke-linejoin:round;stroke-miterlimit:10.6667;}
	.st1{fill:#8F9090;}
</style>
<path class="st0" d="M15.63,1.42h-6c-0.95,0-1.71,0.77-1.71,1.71v13.71c0,0.95,0.77,1.71,1.71,1.71h10.28
	c0.95,0,1.71-0.77,1.71-1.71V7.42L15.63,1.42z"/>
<polyline class="st1" points="15.63,1.42 15.63,7.42 21.63,7.42 "/>
<path class="st0" d="M10.08,5.08h-6c-0.95,0-1.71,0.77-1.71,1.71V20.5c0,0.95,0.77,1.71,1.71,1.71h10.28c0.95,0,1.71-0.77,1.71-1.71
	v-9.42L10.08,5.08z"/>
<polyline class="st1" points="10.08,5.08 10.08,11.07 16.08,11.07 "/>
</svg>
