<?xml version="1.0" encoding="utf-8"?>
<svg width="16" height="16" viewBox="0 0 16 16" fill="none" xmlns="http://www.w3.org/2000/svg" xmlns:bx="https://boxy-svg.com">
  <defs>
    <bx:grid x="32.272" y="2.071" width="100" height="100"/>
  </defs>
  <rect width="16" height="16" style="fill: rgb(137, 209, 133);"/>
  <text style="font-size: 36; font-family: Roboto; white-space: pre;" transform="matrix(1, 0, 0, 1, -56.358006, 18.39388)">#89d185</text>
  <text style="font-size: 36; font-family: Roboto; white-space: pre;" transform="matrix(1, 0, 0, 1, -54.681717, 16.23931)">#1d8d2f</text>
  <path fill-rule="evenodd" clip-rule="evenodd" d="M 6.706 6.293 C 6.425 6.557 6.209 6.847 6.058 7.169 C 5.912 7.489 5.837 7.836 5.837 8.213 L 5.837 9.469 C 5.837 9.61 5.809 9.742 5.753 9.868 C 5.696 9.991 5.62 10.099 5.522 10.19 C 5.426 10.284 5.31 10.356 5.18 10.41 C 5.05 10.462 4.91 10.489 4.76 10.489 L 3.432 10.489 C 3.284 10.489 3.144 10.462 3.012 10.41 C 2.88 10.356 2.766 10.284 2.67 10.19 C 2.572 10.099 2.496 9.991 2.439 9.868 C 2.384 9.742 2.355 9.61 2.355 9.469 L 2.355 8.213 C 2.355 7.836 2.28 7.489 2.129 7.169 C 1.981 6.847 1.768 6.557 1.486 6.293 C 1.127 5.958 0.851 5.581 0.655 5.166 C 0.461 4.75 0.363 4.299 0.363 3.815 C 0.363 3.491 0.408 3.177 0.497 2.877 C 0.584 2.575 0.71 2.295 0.872 2.033 C 1.034 1.77 1.23 1.529 1.456 1.316 C 1.682 1.102 1.933 0.918 2.209 0.764 C 2.489 0.611 2.788 0.491 3.104 0.407 C 3.423 0.324 3.754 0.282 4.096 0.282 C 4.438 0.282 4.769 0.324 5.088 0.407 C 5.406 0.491 5.704 0.609 5.979 0.764 C 6.257 0.918 6.51 1.102 6.738 1.316 C 6.962 1.529 7.156 1.77 7.32 2.033 C 7.482 2.295 7.608 2.575 7.697 2.877 C 7.785 3.177 7.829 3.491 7.829 3.815 C 7.829 4.299 7.731 4.75 7.537 5.166 C 7.341 5.581 7.064 5.958 6.706 6.293 Z M 5.011 7.741 L 3.181 7.741 L 3.181 9.469 C 3.181 9.532 3.206 9.587 3.256 9.636 C 3.307 9.684 3.364 9.705 3.432 9.705 L 4.76 9.705 C 4.828 9.705 4.885 9.684 4.936 9.636 C 4.988 9.587 5.011 9.532 5.011 9.469 L 5.011 7.741 Z" style="fill: rgb(106, 106, 106);"/>
</svg>