<?xml version="1.0" encoding="utf-8"?>
<svg width="16" height="16" viewBox="0 0 16 16" fill="none" xmlns="http://www.w3.org/2000/svg">
  <path d="M 7.55 7.78 L 1.939 4.591 L 2.272 4.007 L 7.272 1.007 L 8.272 1.007 L 13.272 4.007 L 13.523 4.447 Z" style="fill: rgb(172, 216, 255);"/>
  <path d="M 13.707 4.791 L 13.707 10.887 L 13.218 11.751 L 8.231 14.799 L 7.421 14.799 L 7.482 7.592 L 13.401 4.243 Z" style="fill: rgb(47, 157, 255);"/>
  <polygon points="2.175 4.831 7.78 1.549" style="fill: rgb(137, 209, 133);"/>
  <path d="M 2.333 11.792 L 1.826 10.924 L 1.826 4.796 L 2.034 4.436 L 7.534 7.605 C 7.534 7.605 7.487 12.944 7.441 14.821 Z" style="fill: rgb(144, 203, 255);"/>
  <path fill-rule="evenodd" clip-rule="evenodd" d="M 14.361 11.184 C 14.079 11.454 13.863 11.754 13.712 12.084 C 13.564 12.414 13.49 12.771 13.49 13.157 L 13.49 14.45 C 13.49 14.595 13.462 14.732 13.405 14.861 C 13.349 14.987 13.272 15.099 13.174 15.194 C 13.077 15.289 12.962 15.362 12.832 15.417 C 12.7 15.473 12.559 15.5 12.41 15.5 L 11.078 15.5 C 10.928 15.5 10.788 15.473 10.656 15.417 C 10.525 15.362 10.411 15.289 10.313 15.194 C 10.215 15.099 10.139 14.987 10.082 14.861 C 10.025 14.732 9.998 14.595 9.998 14.45 L 9.998 13.157 C 9.998 12.771 9.921 12.414 9.771 12.084 C 9.622 11.755 9.408 11.454 9.128 11.184 C 8.768 10.838 8.488 10.452 8.294 10.024 C 8.098 9.596 8 9.132 8 8.633 C 8 8.299 8.045 7.978 8.133 7.668 C 8.222 7.359 8.349 7.07 8.51 6.8 C 8.674 6.529 8.869 6.283 9.096 6.063 C 9.323 5.843 9.575 5.653 9.85 5.495 C 10.131 5.336 10.431 5.215 10.75 5.128 C 11.069 5.042 11.4 5 11.744 5 C 12.087 5 12.419 5.042 12.739 5.128 C 13.056 5.215 13.354 5.336 13.631 5.495 C 13.91 5.653 14.166 5.843 14.392 6.063 C 14.619 6.283 14.814 6.529 14.976 6.8 C 15.14 7.07 15.265 7.358 15.355 7.668 C 15.443 7.978 15.486 8.299 15.486 8.633 C 15.486 9.132 15.39 9.596 15.194 10.024 C 14.998 10.452 14.72 10.838 14.361 11.184 Z M 12.661 12.672 L 10.827 12.672 L 10.827 14.45 C 10.827 14.516 10.85 14.572 10.901 14.622 C 10.953 14.67 11.009 14.695 11.078 14.695 L 12.41 14.695 C 12.477 14.695 12.535 14.67 12.586 14.622 C 12.638 14.572 12.661 14.516 12.661 14.45 L 12.661 12.672 Z" fill="#FFCC00" style=""/>
</svg>