<?xml version="1.0" encoding="utf-8"?>
<svg width="16" height="16" viewBox="0 0 16 16" fill="none" xmlns="http://www.w3.org/2000/svg">
  <path d="M 13.51 4 L 8.51001 1 L 7.51001 1 L 2.51001 4 L 2.02002 4.85999 L 2.02002 10.86 L 2.51001 11.71 L 7.51001 14.71 L 8.51001 14.71 L 13.51 11.71 L 14 10.86 L 14 4.85999 L 13.51 4 Z" style="fill: rgb(144, 144, 144);"/>
  <path d="M 13.01 10.86 L 8.51001 13.5601 L 8.51001 8.15002 L 13.01 5.69995 L 13.01 10.86 Z" style="fill: rgb(117, 190, 255);"/>
  <path d="M 3.27002 4.69995 L 8.01001 1.8599900000000003 L 12.75 4.69995 L 8.01001 7.29004 L 3.27002 4.69995 Z" style="fill: rgb(117, 190, 255);"/>
  <path d="M 7.51001 13.5601 L 3.01001 10.86 L 3.01001 5.69995 L 7.51001 8.15002 L 7.51001 13.5601 Z" style="fill: rgb(117, 190, 255);"/>
  <polygon points="2.485 4.658 8.09 1.376" style="fill: rgb(137, 209, 133);"/>
</svg>