<?xml version="1.0" encoding="utf-8"?>
<svg viewBox="0 0 24 24" version="1.1" id="svg52" xmlns="http://www.w3.org/2000/svg">
  <line style="stroke: rgb(0, 0, 0);" x1="8.191" y1="8.403" x2="8.191" y2="8.403" id="line18"/>
  <rect x="-6.267" y="-2.75" width="0.225" height="0.038" style="fill: rgb(216, 216, 216);" id="rect20"/>
  <path fill-rule="evenodd" clip-rule="evenodd" d="M 17.006 13.711 C 16.467 14.209 16.052 14.756 15.764 15.364 C 15.484 15.968 15.341 16.62 15.341 17.333 L 15.341 19.701 C 15.341 19.97 15.286 20.217 15.179 20.454 C 15.069 20.687 14.923 20.891 14.735 21.063 C 14.551 21.238 14.33 21.376 14.08 21.476 C 13.83 21.575 13.56 21.626 13.273 21.626 L 10.726 21.626 C 10.441 21.626 10.173 21.575 9.92 21.476 C 9.666 21.376 9.449 21.238 9.266 21.063 C 9.076 20.891 8.932 20.687 8.821 20.454 C 8.716 20.217 8.66 19.97 8.66 19.701 L 8.66 17.333 C 8.66 16.62 8.517 15.968 8.227 15.364 C 7.943 14.756 7.535 14.209 6.994 13.711 C 6.306 13.081 5.775 12.369 5.399 11.586 C 5.029 10.803 4.84 9.951 4.84 9.038 C 4.84 8.427 4.926 7.834 5.098 7.268 C 5.263 6.699 5.505 6.171 5.817 5.678 C 6.127 5.181 6.503 4.726 6.935 4.326 C 7.37 3.922 7.85 3.573 8.381 3.284 C 8.917 2.995 9.491 2.768 10.098 2.61 C 10.71 2.453 11.343 2.375 12 2.375 C 12.655 2.375 13.29 2.453 13.902 2.61 C 14.512 2.768 15.084 2.991 15.611 3.284 C 16.144 3.573 16.629 3.922 17.067 4.326 C 17.499 4.726 17.868 5.181 18.184 5.678 C 18.495 6.171 18.738 6.699 18.908 7.268 C 19.076 7.834 19.161 8.427 19.161 9.038 C 19.161 9.951 18.971 10.803 18.601 11.586 C 18.223 12.369 17.694 13.081 17.006 13.711 Z M 13.754 16.442 L 10.245 16.442 L 10.245 19.701 C 10.245 19.821 10.292 19.924 10.388 20.018 C 10.487 20.106 10.596 20.146 10.726 20.146 L 13.273 20.146 C 13.404 20.146 13.511 20.106 13.61 20.018 C 13.711 19.924 13.754 19.821 13.754 19.701 L 13.754 16.442 Z" style="fill: rgb(144, 144, 144);"/>
</svg>