<?xml version="1.0" encoding="utf-8"?>
<svg width="16" height="16" viewBox="0 0 16 16" fill="none" xmlns="http://www.w3.org/2000/svg">
  <path fill-rule="evenodd" clip-rule="evenodd" d="M 10 14.5 L 9.5 15 L 1.5 15 L 1 14.5 L 1 7.5 L 1.5 7 L 4.442 7 L 4.442 8 L 2 8 L 2 9 L 4.442 9 L 4.442 10 L 2 10 L 2 14 L 9 14 L 9 10.656 L 10 10.656 Z" style="fill: rgb(128, 128, 128);"/>
  <path fill-rule="evenodd" clip-rule="evenodd" d="M 6 1.5 L 6.5 1 L 14.5 1 L 15 1.5 L 15 8.5 L 14.5 9 L 12 9 L 12 8 L 14 8 L 14 4 L 7 4 L 7 5 L 6 5 Z M 7 2 L 7 3 L 14 3 L 14 2 Z" style="fill: rgb(128, 128, 128);"/>
  <path fill-rule="evenodd" clip-rule="evenodd" d="M 6.264 5.292 L 7.748 5.292 C 8.182 5.292 8.598 5.471 8.906 5.786 C 9.212 6.098 9.384 6.526 9.384 6.971 L 9.384 7.072 C 9.384 7.517 9.211 7.944 8.905 8.259 C 8.598 8.572 8.182 8.748 7.748 8.748 L 7.515 8.748 L 7.515 8.255 L 7.748 8.255 C 8.054 8.255 8.346 8.13 8.562 7.907 C 8.778 7.687 8.9 7.388 8.901 7.074 L 8.901 6.971 C 8.901 6.657 8.78 6.356 8.565 6.136 C 8.349 5.912 8.056 5.788 7.75 5.787 L 6.264 5.787 C 5.957 5.787 5.663 5.911 5.447 6.135 C 5.339 6.244 5.255 6.374 5.196 6.517 C 5.139 6.662 5.109 6.815 5.109 6.971 L 5.109 7.072 C 5.109 7.351 5.206 7.621 5.382 7.835 C 5.559 8.046 5.803 8.19 6.072 8.235 L 6.072 8.728 C 5.674 8.68 5.311 8.486 5.045 8.182 C 4.779 7.876 4.631 7.484 4.626 7.074 L 4.626 6.971 C 4.627 6.526 4.8 6.099 5.108 5.786 C 5.413 5.471 5.83 5.293 6.264 5.292 Z M 9.922 7.288 L 9.922 6.794 C 10.318 6.841 10.683 7.035 10.95 7.342 C 11.216 7.647 11.364 8.042 11.365 8.452 L 11.365 8.552 C 11.364 8.996 11.191 9.423 10.886 9.736 C 10.579 10.05 10.164 10.228 9.732 10.229 L 8.244 10.229 C 7.811 10.229 7.396 10.05 7.09 9.74 C 6.784 9.424 6.612 8.999 6.611 8.555 L 6.611 8.452 C 6.611 8.007 6.783 7.58 7.089 7.266 C 7.394 6.95 7.811 6.774 8.244 6.773 L 8.477 6.773 L 8.477 7.267 L 8.244 7.267 C 7.938 7.267 7.645 7.395 7.43 7.615 C 7.213 7.837 7.091 8.14 7.091 8.452 L 7.091 8.552 C 7.093 8.866 7.214 9.166 7.43 9.388 C 7.645 9.609 7.94 9.734 8.244 9.734 L 9.732 9.734 C 10.036 9.734 10.329 9.609 10.545 9.388 C 10.76 9.167 10.882 8.869 10.885 8.555 L 10.885 8.452 C 10.885 8.173 10.787 7.903 10.61 7.688 C 10.435 7.475 10.19 7.332 9.922 7.288 Z" style="fill: rgb(251, 176, 0);"/>
</svg>