<?xml version="1.0" encoding="utf-8"?>
<!-- Generator: Adobe Illustrator 24.3.0, SVG Export Plug-In . SVG Version: 6.00 Build 0)  -->
<svg version="1.1" xmlns="http://www.w3.org/2000/svg" xmlns:xlink="http://www.w3.org/1999/xlink" x="0px" y="0px"
	 viewBox="0 0 24 24" style="enable-background:new 0 0 24 24;" xml:space="preserve">
<style type="text/css">
	.st0{fill:#80B9E6;}
	.st1{fill:url(#SVGID_1_);stroke:#8F9090;stroke-linecap:round;stroke-linejoin:round;stroke-miterlimit:10;}
	.st2{fill:url(#SVGID_2_);stroke:#8F9090;stroke-linecap:round;stroke-linejoin:round;stroke-miterlimit:10;}
	.st3{fill:url(#SVGID_3_);stroke:#8F9090;stroke-linecap:round;stroke-linejoin:round;stroke-miterlimit:10;}
</style>
<g id="Layer_2">
</g>
<g id="Layer_1">
	<g id="Layer_2_1_">
		<g>
			<g>
				<path class="st0" d="M8.6,23.6c-0.4,0-0.6-0.1-0.9-0.3c-0.3-0.3-0.4-0.5-0.4-0.7c0-0.3,0.1-0.4,0.3-0.6c0.2-0.2,0.4-0.2,0.6-0.2
					c0.1,0,0.3,0,0.4,0c0.7,0.1,1.4,0.1,1.7-0.2c0.1-0.1,0.3-0.4,0.5-1.4l1.3-5.2h-1.7l0.3-1.2h1.7c0.3-1.1,0.5-1.9,0.9-2.4
					c0.4-0.6,0.9-1.1,1.5-1.4c0.6-0.4,1.2-0.5,1.8-0.5c0.4,0,0.6,0.1,0.8,0.3c0.3,0.2,0.4,0.4,0.4,0.6c0,0.3-0.1,0.4-0.3,0.6
					c-0.2,0.2-0.4,0.3-0.6,0.3c-0.2,0-0.5-0.1-1-0.2c-0.2-0.1-0.3-0.1-0.4-0.1c-0.2,0-0.4,0.2-0.5,0.4c-0.3,0.4-0.4,0.8-0.5,1.4
					L14.3,14h1.9l-0.3,1.2H14L13,19.3c-0.4,1.4-0.9,2.5-1.7,3.2C10.5,23.3,9.6,23.6,8.6,23.6z"/>
			</g>
			<g>
				<path class="st0" d="M21.1,22.3c-0.5,0-1-0.2-1.4-0.4c-0.4-0.4-0.8-0.8-1.2-1.5c-0.3-0.5-0.4-1.2-0.7-2.3
					c-0.6,0.9-1.1,1.4-1.4,1.7c-0.7,0.5-1.4,0.5-1.9,0.2c-0.2-0.2-0.4-0.4-0.4-0.6s0.1-0.4,0.2-0.5c0.3-0.4,0.8-0.4,1.2,0.1
					c0.1,0.1,0.1,0.1,0.1,0.1c0.1-0.1,0.2-0.1,0.4-0.4c0.3-0.3,0.4-0.5,0.6-0.7l0.8-1.2l-0.1-1.2C17.2,15,17.1,15,17.1,15
					s0,0-0.1,0.1c-0.3,0.2-0.4,0.3-0.6,0.4l-0.3,0.3L15.5,15l0.3-0.2c0.5-0.4,1-0.7,1.3-1c0.3-0.2,0.5-0.3,0.7-0.3
					c0.3,0,0.5,0.2,0.7,0.4c0.1,0.2,0.3,0.5,0.4,1c0.4-0.5,0.8-1,1.2-1.2c0.8-0.6,1.5-0.7,1.9-0.4c0.2,0.2,0.3,0.4,0.3,0.5
					c0,0.3-0.1,0.4-0.4,0.6c-0.1,0.1-0.3,0.2-0.9,0.2c-0.3,0-0.5,0.1-0.7,0.3c-0.4,0.3-0.7,0.7-1.1,1.2l0.4,1.9
					c0.2,0.9,0.4,1.5,0.5,1.9c0.2,0.4,0.4,0.7,0.7,0.9c0.1,0.1,0.3,0.1,0.4,0.1s0.2,0,0.4-0.4c0.2-0.5,0.5-0.5,0.7-0.5
					s0.4,0.1,0.5,0.3c0.1,0.2,0.2,0.4,0.2,0.5c0,0.4-0.2,0.6-0.5,0.9C22,22.2,21.7,22.3,21.1,22.3z"/>
			</g>
		</g>
	</g>
</g>
<g id="Layer_1_copy">
	<g>
		<linearGradient id="SVGID_1_" gradientUnits="userSpaceOnUse" x1="19.4971" y1="11.354" x2="20.0897" y2="11.354">
			<stop  offset="0" style="stop-color:#8E8F8F"/>
			<stop  offset="0.6397" style="stop-color:#CBC9CA"/>
			<stop  offset="1" style="stop-color:#8E8F8F"/>
		</linearGradient>
		<path class="st1" d="M19.5,11.8c0.2-0.1,0.4-0.2,0.6-0.3l-0.3-0.6C19.8,11.2,19.6,11.5,19.5,11.8z"/>
		<linearGradient id="SVGID_2_" gradientUnits="userSpaceOnUse" x1="1.1615" y1="10.9067" x2="18.1859" y2="10.9067">
			<stop  offset="0" style="stop-color:#8E8F8F"/>
			<stop  offset="0.6397" style="stop-color:#CBC9CA"/>
			<stop  offset="1" style="stop-color:#8E8F8F"/>
		</linearGradient>
		<path class="st2" d="M14.9,7.3c0.4-0.6,0.7-1.3,0.7-2.1c0-2-1.6-3.7-3.6-3.7S8.4,3.1,8.4,5.2c0,0.8,0.3,1.6,0.7,2.2
			C8.5,7.8,7.8,7.3,7.2,7.3c-0.9,0-1.7,0.5-2,1.3l-3.8,8.5c-0.7,1.5,0.4,3.2,2,3.2h3.3c0.7-0.4,1.3-0.5,1.7-0.5l0.7,0
			c0,0,0-0.1,0-0.1L9.7,17H8.1l1.2-5.2H11c0.2-0.6,0.4-1,0.7-1.4c0.5-0.8,1.2-1.5,2.2-2.1c0.9-0.5,1.9-0.8,2.8-0.8
			c0.6,0,1.1,0.1,1.5,0.3 M12,3c1.2,0,2.1,1,2.1,2.1c0,1.2-0.9,2.1-2.1,2.1s-2.1-1-2.1-2.1C9.9,4,10.9,3,12,3z"/>
		<linearGradient id="SVGID_3_" gradientUnits="userSpaceOnUse" x1="21.3379" y1="17.4465" x2="22.9515" y2="17.4465">
			<stop  offset="0" style="stop-color:#8E8F8F"/>
			<stop  offset="0.6397" style="stop-color:#CBC9CA"/>
			<stop  offset="1" style="stop-color:#8E8F8F"/>
		</linearGradient>
		<path class="st3" d="M22.7,17.1l-0.3-0.6c-0.4,0.2-0.8,0.2-1.1,0.2l0.2,1c0,0.2,0.1,0.4,0.1,0.5c0.2,0,0.4-0.1,0.6-0.1
			c0.2,0,0.4,0,0.7,0.1C23,17.9,22.9,17.5,22.7,17.1z"/>
	</g>
</g>
</svg>
