<?xml version="1.0" encoding="utf-8"?>
<!-- Generator: Adobe Illustrator 24.3.0, SVG Export Plug-In . SVG Version: 6.00 Build 0)  -->
<svg version="1.1" id="Layer_1" xmlns="http://www.w3.org/2000/svg" xmlns:xlink="http://www.w3.org/1999/xlink" x="0px" y="0px"
	 viewBox="0 0 24 24" style="enable-background:new 0 0 24 24;" xml:space="preserve">
<style type="text/css">
	.st0{fill:#80B9E6;}
	.st1{fill:url(#SVGID_1_);}
	.st2{fill:url(#SVGID_2_);}
	.st3{fill:url(#SVGID_3_);}
	.st4{fill:url(#SVGID_4_);}
	.st5{fill:url(#SVGID_5_);}
	.st6{fill:url(#SVGID_6_);}
</style>
<g id="Layer_2_1_">
	<g>
		<g>
			<path class="st0" d="M7.1,23.5c-0.4,0-0.7-0.1-1-0.3c-0.3-0.3-0.4-0.6-0.4-0.8c0-0.3,0.1-0.5,0.3-0.7c0.2-0.2,0.4-0.2,0.7-0.2
				c0.1,0,0.3,0,0.5,0c0.8,0.1,1.6,0.1,1.9-0.2c0.1-0.1,0.3-0.5,0.6-1.6l1.5-5.9H9.3l0.3-1.3h1.9c0.3-1.2,0.6-2.1,1-2.7
				c0.4-0.7,1-1.2,1.7-1.6c0.7-0.4,1.4-0.6,2-0.6c0.4,0,0.7,0.1,0.9,0.3c0.3,0.2,0.4,0.5,0.4,0.7c0,0.3-0.1,0.5-0.3,0.7
				c-0.2,0.2-0.4,0.3-0.7,0.3c-0.2,0-0.6-0.1-1.1-0.2c-0.2-0.1-0.3-0.1-0.4-0.1c-0.2,0-0.4,0.2-0.6,0.5c-0.3,0.4-0.5,0.9-0.6,1.6
				l-0.3,1.2h2.1l-0.3,1.3h-2.1L12,18.6c-0.4,1.6-1,2.8-1.9,3.6C9.2,23.1,8.2,23.5,7.1,23.5z"/>
		</g>
		<g>
			<path class="st0" d="M21.2,22c-0.6,0-1.1-0.2-1.6-0.5c-0.5-0.4-0.9-0.9-1.3-1.7c-0.3-0.6-0.5-1.4-0.8-2.6c-0.7,1-1.2,1.6-1.6,1.9
				c-0.8,0.6-1.6,0.6-2.1,0.2c-0.2-0.2-0.4-0.5-0.4-0.7s0.1-0.5,0.2-0.6c0.3-0.4,0.9-0.4,1.3,0.1c0.1,0.1,0.1,0.1,0.1,0.1
				c0.1-0.1,0.2-0.1,0.4-0.4c0.3-0.3,0.5-0.6,0.7-0.8l0.9-1.3l-0.1-1.4c-0.1-0.5-0.2-0.6-0.2-0.6s0,0-0.1,0.1
				c-0.3,0.2-0.5,0.3-0.7,0.5l-0.3,0.3l-0.7-0.9l0.3-0.2c0.6-0.5,1.1-0.8,1.5-1.1c0.3-0.2,0.6-0.3,0.8-0.3c0.3,0,0.6,0.2,0.8,0.5
				c0.1,0.2,0.3,0.6,0.4,1.1c0.5-0.6,0.9-1.1,1.3-1.3c0.9-0.7,1.7-0.8,2.1-0.4c0.2,0.2,0.3,0.4,0.3,0.6c0,0.3-0.1,0.5-0.4,0.7
				c-0.1,0.1-0.3,0.2-1,0.2c-0.3,0-0.6,0.1-0.8,0.3c-0.4,0.3-0.8,0.8-1.2,1.4l0.5,2.2c0.2,1,0.4,1.7,0.6,2.2c0.2,0.4,0.5,0.8,0.8,1
				c0.1,0.1,0.3,0.1,0.4,0.1s0.2,0,0.4-0.4c0.2-0.6,0.6-0.6,0.8-0.6c0.2,0,0.4,0.1,0.6,0.3c0.1,0.2,0.2,0.4,0.2,0.6
				c0,0.4-0.2,0.7-0.6,1C22.2,21.9,21.8,22,21.2,22z"/>
		</g>
	</g>
</g>
<g>
	<linearGradient id="SVGID_1_" gradientUnits="userSpaceOnUse" x1="20.3022" y1="19.7158" x2="20.3022" y2="19.7139">
		<stop  offset="0" style="stop-color:#F39200"/>
		<stop  offset="0.3393" style="stop-color:#F6A31C"/>
		<stop  offset="0.6861" style="stop-color:#F9AE2E"/>
		<stop  offset="1" style="stop-color:#F9B233"/>
	</linearGradient>
	<polygon class="st1" points="20.3,19.7 20.3,19.7 20.3,19.7 	"/>
	<linearGradient id="SVGID_2_" gradientUnits="userSpaceOnUse" x1="20.9066" y1="18.3217" x2="20.9066" y2="15.0191">
		<stop  offset="0" style="stop-color:#F39200"/>
		<stop  offset="0.3393" style="stop-color:#F6A31C"/>
		<stop  offset="0.6861" style="stop-color:#F9AE2E"/>
		<stop  offset="1" style="stop-color:#F9B233"/>
	</linearGradient>
	<path class="st2" d="M20.6,15.5l0.4,1.5c0.1,0.5,0.2,0.9,0.3,1.2V15c-0.1,0-0.1,0-0.2,0C21,15.1,20.8,15.3,20.6,15.5z"/>
	<linearGradient id="SVGID_3_" gradientUnits="userSpaceOnUse" x1="14.4925" y1="16.3086" x2="14.4925" y2="15.4687">
		<stop  offset="0" style="stop-color:#F39200"/>
		<stop  offset="0.3393" style="stop-color:#F6A31C"/>
		<stop  offset="0.6861" style="stop-color:#F9AE2E"/>
		<stop  offset="1" style="stop-color:#F9B233"/>
	</linearGradient>
	<path class="st3" d="M14.7,16.3c0-0.1,0.1-0.1,0.1-0.2l-0.5-0.7l-0.2,0.8C14.3,16.2,14.5,16.3,14.7,16.3z"/>
	<linearGradient id="SVGID_4_" gradientUnits="userSpaceOnUse" x1="8.1436" y1="19.9796" x2="8.1436" y2="3.8204">
		<stop  offset="0" style="stop-color:#F39200"/>
		<stop  offset="0.3393" style="stop-color:#F6A31C"/>
		<stop  offset="0.6861" style="stop-color:#F9AE2E"/>
		<stop  offset="1" style="stop-color:#F9B233"/>
	</linearGradient>
	<path class="st4" d="M8,20c0.1-0.2,0.1-0.4,0.2-0.6l1-4H7.4l1-4.3h2c0.3-0.9,0.5-1.5,0.9-2c0.1-0.1,0.1-0.2,0.2-0.3H5.6
		C5.3,8.8,5,9,5,9.4v8.9C5,18.7,4.7,19,4.3,19H3.5c-0.3,0-0.6-0.3-0.6-0.6V5.6c0-0.4,0.3-0.7,0.7-0.7h7.3c0.2,0,0.4,0.1,0.5,0.2
		L13.4,7c0,0,0,0,0.1,0c0.3-0.2,0.6-0.3,0.9-0.4c-0.1,0-0.1-0.1-0.2-0.1l-2.2-2.2c-0.2-0.2-0.4-0.3-0.7-0.3l-8.4,0
		c-0.5,0-0.9,0.4-0.9,0.9V19c0,0.5,0.4,0.9,0.9,0.9H5H8z"/>
	<linearGradient id="SVGID_5_" gradientUnits="userSpaceOnUse" x1="19.5398" y1="11.2383" x2="19.5398" y2="6.6348">
		<stop  offset="0" style="stop-color:#F39200"/>
		<stop  offset="0.3393" style="stop-color:#F6A31C"/>
		<stop  offset="0.6861" style="stop-color:#F9AE2E"/>
		<stop  offset="1" style="stop-color:#F9B233"/>
	</linearGradient>
	<path class="st5" d="M18,6.8c0.3,0.2,0.6,0.6,0.7,0.9l1.1,0c0.2,0,0.3,0.1,0.3,0.3v0.5c0,0.2-0.1,0.3-0.3,0.3H19
		c0,0.6-0.3,1.2-0.7,1.6c-0.1,0.1-0.2,0.2-0.3,0.3c0.4,0.1,0.8,0.3,1.1,0.6c0,0,0.1,0,0.1-0.1c0.8-0.6,1.5-0.8,2.1-0.9V9V7.6
		c0-0.5-0.4-0.9-0.9-0.9h-2.4C17.9,6.7,18,6.7,18,6.8z"/>
	<linearGradient id="SVGID_6_" gradientUnits="userSpaceOnUse" x1="15.6967" y1="11.1274" x2="15.6967" y2="10.9722">
		<stop  offset="0" style="stop-color:#F39200"/>
		<stop  offset="0.3393" style="stop-color:#F6A31C"/>
		<stop  offset="0.6861" style="stop-color:#F9AE2E"/>
		<stop  offset="1" style="stop-color:#F9B233"/>
	</linearGradient>
	<path class="st6" d="M15.4,11L15.4,11c0,0,0,0.1-0.1,0.2h0.6c0,0,0,0,0.1,0C15.8,11.1,15.7,11,15.4,11z"/>
</g>
</svg>
