<?xml version="1.0" encoding="utf-8"?>
<svg width="16" height="16" viewBox="0 0 16 16" fill="none" xmlns="http://www.w3.org/2000/svg">
  <path d="M 15.01 3.001 L 15.01 14.669 L 14.51 15.252 L 1.51 15.252 L 1.01 14.669 L 1.01 1.835 L 1.51 1.252 L 6.51 1.252 L 6.86 1.427 L 7.71 2.418 L 14.5 2.418 Z M 14 7.657 L 14 5.907 L 13.999 5.907 L 13.999 4.056 L 13.996 4.056 L 14 3.597 L 7.5 3.597 L 7.14 3.422 L 6.29 2.43 L 2 2.43 L 2 7.086 L 1.99 7.086 L 1.99 14.086 L 13.99 14.086 L 13.99 12.325 Z" style="fill: rgb(144, 144, 144);"/>
  <path d="M 10.379 10.001 L 10.867 10.001 L 12.693 8.114 L 12.693 7.613 L 11.776 6.673 L 11.297 6.673 L 10.051 7.952 L 6.632 7.952 L 6.632 7.068 L 7.902 5.759 L 7.902 5.259 L 6.536 3.844 L 6.042 3.844 L 3.307 6.673 L 3.307 7.174 L 4.675 8.588 L 5.159 8.588 L 5.94 7.775 L 5.94 11.87 L 6.283 12.221 L 9.464 12.221 L 9.464 12.589 L 10.373 13.536 L 10.859 13.536 L 12.687 11.65 L 12.687 11.146 L 11.767 10.207 L 11.291 10.207 L 10.018 11.513 L 6.597 11.513 L 6.597 8.687 L 9.464 8.687 L 9.464 9.024 L 10.379 10.001 Z M 11.536 7.422 L 11.966 7.868 L 10.6 9.281 L 10.169 8.835 L 11.536 7.422 Z M 11.536 10.956 L 11.966 11.402 L 10.6 12.815 L 10.169 12.371 L 11.536 10.956 Z M 4.914 7.838 L 4.032 6.918 L 6.283 4.594 L 7.172 5.504 L 4.914 7.838 Z" fill="#EE9D28" style=""/>
</svg>