<?xml version="1.0" encoding="utf-8"?>
<svg width="16" height="16" viewBox="0 0 16 16" fill="none" xmlns="http://www.w3.org/2000/svg">
  <path fill-rule="evenodd" clip-rule="evenodd" d="M 15 1 L 1 1 L 0.462 1.538 L 0.462 12.308 L 1 12.846 L 6.924 12.846 L 6.924 13.923 L 3.693 13.923 L 3.693 15 L 12.308 15 L 12.308 13.923 L 9.077 13.923 L 9.077 12.846 L 15 12.846 L 15.539 12.308 L 15.539 1.538 L 15 1 Z M 14.462 11.769 L 1.539 11.769 L 1.539 2.077 L 14.462 2.077 L 14.462 11.769 Z" style="fill: rgb(144, 144, 144);"/>
  <line style="fill: rgb(253, 194, 93); stroke: rgb(157, 203, 226);" x1="6.217" y1="2.479" x2="6.217" y2="11.068"/>
  <line style="fill: rgb(157, 203, 226); stroke: rgb(157, 203, 226);" x1="9.783" y1="11.068" x2="9.783" y2="2.479" transform="matrix(-1, 0, 0, -1, 19.566, 13.547)"/>
</svg>