<?xml version="1.0" encoding="utf-8"?>
<svg width="16" height="16" viewBox="0 0 16 16" fill="none" xmlns="http://www.w3.org/2000/svg">
  <path fill-rule="evenodd" clip-rule="evenodd" d="M10.707 3H14.5L15 3.5V12.5L14.5 13H1.5L1 12.5V3.5L1.5 3H5.293L6.146 2.146L6.5 2H9.5L9.854 2.146L10.707 3ZM2 12H14V4H10.5L10.146 3.854L9.293 3H6.707L5.854 3.854L5.5 4H2V12ZM3.5 5C3.40111 5 3.30444 5.02932 3.22222 5.08427C3.13999 5.13921 3.0759 5.2173 3.03806 5.30866C3.00022 5.40002 2.99031 5.50055 3.00961 5.59755C3.0289 5.69454 3.07652 5.78363 3.14645 5.85355C3.21637 5.92348 3.30546 5.9711 3.40246 5.99039C3.49945 6.00969 3.59998 5.99978 3.69134 5.96194C3.78271 5.9241 3.86079 5.86001 3.91574 5.77779C3.97068 5.69556 4 5.59889 4 5.5C4 5.36739 3.94732 5.24021 3.85355 5.14645C3.75979 5.05268 3.63261 5 3.5 5ZM8 6C8.39556 6 8.78224 6.1173 9.11114 6.33706C9.44004 6.55682 9.69639 6.86918 9.84776 7.23463C9.99914 7.60009 10.0387 8.00222 9.96157 8.39018C9.8844 8.77814 9.69392 9.13451 9.41421 9.41421C9.13451 9.69392 8.77814 9.8844 8.39018 9.96157C8.00222 10.0387 7.60009 9.99913 7.23463 9.84776C6.86918 9.69638 6.55683 9.44004 6.33706 9.11114C6.1173 8.78224 6 8.39556 6 8C6 7.46957 6.21071 6.96086 6.58579 6.58579C6.96086 6.21071 7.46957 6 8 6ZM8 5C7.40666 5 6.82664 5.17595 6.33329 5.50559C5.83994 5.83524 5.45543 6.30377 5.22836 6.85195C5.0013 7.40013 4.94189 8.00333 5.05765 8.58527C5.1734 9.16721 5.45912 9.70176 5.87868 10.1213C6.29824 10.5409 6.83279 10.8266 7.41473 10.9424C7.99667 11.0581 8.59987 10.9987 9.14805 10.7716C9.69623 10.5446 10.1648 10.1601 10.4944 9.66671C10.8241 9.17336 11 8.59334 11 8C11 7.20435 10.6839 6.44129 10.1213 5.87868C9.55871 5.31607 8.79565 5 8 5Z" style="fill: rgb(144, 144, 144);"/>
  <text style="font-size: 36; font-family: Roboto; white-space: pre;" transform="matrix(1, 0, 0, 1, -57.601505, 19.319807)">#ae4e97</text>
  <path fill-rule="evenodd" clip-rule="evenodd" d="M 15.193 9.056 L 15.614 9.523 L 15.614 15.118 L 15.193 15.586 L 5.935 15.586 L 5.514 15.118 L 5.514 9.523 L 5.935 9.056 L 15.193 9.056 Z" fill="#C5C5C5" style=""/>
  <path fill-rule="evenodd" clip-rule="evenodd" d="M 14.772 9.988 L 6.355 9.988 L 6.355 14.653 L 14.772 14.653 L 14.772 9.988 Z" style="fill: rgb(255, 255, 255);"/>
  <path fill-rule="evenodd" clip-rule="evenodd" d="M 13.847 12.639 L 13.031 12.639 L 13.031 13.72 L 12.458 13.72 L 12.458 10.923 L 13.922 10.923 L 13.922 11.434 L 13.031 11.434 L 13.031 12.126 L 13.847 12.126 L 13.847 12.639 Z" style="fill: rgb(255, 0, 0);"/>
  <path fill-rule="evenodd" clip-rule="evenodd" d="M 10.953 13.633 C 10.786 13.7 10.608 13.729 10.43 13.72 L 9.537 13.72 L 9.537 10.923 L 10.43 10.923 C 11.331 10.923 11.776 11.35 11.776 12.283 C 11.785 12.476 11.755 12.669 11.692 12.85 C 11.626 13.03 11.53 13.193 11.405 13.329 C 11.273 13.462 11.12 13.565 10.953 13.633 Z M 10.387 13.207 C 10.494 13.213 10.6 13.193 10.7 13.152 C 10.8 13.111 10.89 13.046 10.968 12.965 C 11.115 12.78 11.192 12.54 11.178 12.292 C 11.184 12.178 11.168 12.065 11.132 11.957 C 11.095 11.849 11.04 11.751 10.968 11.668 C 10.889 11.588 10.796 11.525 10.696 11.484 C 10.593 11.445 10.486 11.429 10.379 11.434 L 10.101 11.434 L 10.101 13.207 Z" style="fill: rgb(255, 0, 0);"/>
  <path fill-rule="evenodd" clip-rule="evenodd" d="M 8.04 12.788 L 7.77 12.788 L 7.77 13.72 L 7.197 13.72 L 7.197 10.923 L 8.089 10.923 C 8.721 10.923 9.041 11.258 9.041 11.855 C 9.042 11.981 9.019 12.107 8.973 12.223 C 8.926 12.34 8.857 12.442 8.772 12.527 C 8.562 12.707 8.304 12.799 8.04 12.788 Z M 7.989 11.434 L 7.77 11.434 L 7.77 12.303 L 7.989 12.303 C 8.292 12.303 8.442 12.154 8.442 11.864 C 8.442 11.575 8.292 11.434 7.989 11.434 Z" style="fill: rgb(255, 0, 0);"/>
</svg>