<?xml version="1.0" encoding="utf-8"?>
<svg width="16" height="16" viewBox="0 0 16 16" fill="none" xmlns="http://www.w3.org/2000/svg" xmlns:bx="https://boxy-svg.com">
  <path fill-rule="evenodd" clip-rule="evenodd" d="M 10.706 2.091 L 14.5 2.091 L 15 2.636 L 15 12.455 L 14.5 13 L 1.5 13 L 1 12.455 L 1 2.636 L 1.5 2.091 L 5.293 2.091 L 6.146 1.159 L 6.5 1 L 9.5 1 L 9.854 1.159 L 10.706 2.091 Z M 2 11.909 L 14 11.909 L 14 3.182 L 10.5 3.182 L 10.145 3.023 L 9.293 2.091 L 6.707 2.091 L 5.854 3.023 L 5.5 3.182 L 2 3.182 L 2 11.909 Z M 3.5 4.273 C 3.401 4.273 3.304 4.305 3.222 4.365 C 3.14 4.425 3.076 4.509 3.038 4.609 C 3 4.709 2.99 4.819 3.009 4.925 C 3.029 5.03 3.076 5.128 3.147 5.204 C 3.216 5.28 3.305 5.332 3.403 5.353 C 3.5 5.373 3.6 5.363 3.691 5.322 C 3.783 5.281 3.861 5.211 3.916 5.121 C 3.971 5.032 4 4.926 4 4.818 C 4 4.674 3.947 4.535 3.854 4.432 C 3.76 4.329 3.633 4.273 3.5 4.273 Z M 8 5.364 C 8.396 5.364 8.782 5.492 9.111 5.731 C 9.44 5.971 9.696 6.312 9.848 6.711 C 9.999 7.109 10.038 7.548 9.961 7.971 C 9.884 8.394 9.694 8.783 9.414 9.088 C 9.134 9.392 8.778 9.601 8.39 9.685 C 8.002 9.769 7.6 9.726 7.234 9.56 C 6.869 9.396 6.557 9.116 6.337 8.757 C 6.118 8.399 6 7.976 6 7.544 C 6 6.967 6.21 6.412 6.586 6.003 C 6.961 5.594 7.47 5.364 8 5.364 Z M 8 4.273 C 7.406 4.273 6.826 4.465 6.333 4.824 C 5.84 5.184 5.455 5.695 5.229 6.293 C 5.001 6.891 4.942 7.549 5.058 8.184 C 5.174 8.819 5.459 9.402 5.878 9.86 C 6.298 10.316 6.833 10.628 7.415 10.755 C 7.997 10.881 8.6 10.817 9.148 10.568 C 9.696 10.321 10.165 9.902 10.495 9.364 C 10.824 8.825 11 8.192 11 7.544 C 11 6.677 10.683 5.845 10.122 5.231 C 9.559 4.617 8.795 4.273 8 4.273 Z" style="fill: rgb(128, 128, 128);" bx:origin="0.5 0.416667"/>
  <text style="font-size: 36; font-family: Roboto; white-space: pre;" transform="matrix(1, 0, 0, 1, -57.601505, 19.319807)">#ae4e97</text>
  <path fill-rule="evenodd" clip-rule="evenodd" d="M 15.135 8.055 L 15.614 8.594 L 15.614 15.046 L 15.135 15.586 L 4.592 15.586 L 4.113 15.046 L 4.113 8.594 L 4.592 8.055 Z M 14.655 9.13 L 5.07 9.13 L 5.07 14.51 L 14.655 14.51 Z" style="fill: rgb(255, 0, 0);"/>
  <path fill-rule="evenodd" clip-rule="evenodd" d="M 14.637 9.129 L 5.052 9.129 L 5.052 14.509 L 14.637 14.509 L 14.637 9.129 Z" style="fill: rgb(255, 255, 255); fill-opacity: 0.8;"/>
  <path fill-rule="evenodd" clip-rule="evenodd" d="M 13.602 12.187 L 12.673 12.187 L 12.673 13.434 L 12.02 13.434 L 12.02 10.208 L 13.687 10.208 L 13.687 10.798 L 12.673 10.798 L 12.673 11.596 L 13.602 11.596 L 13.602 12.187 Z" style="fill: rgb(255, 0, 0);"/>
  <path fill-rule="evenodd" clip-rule="evenodd" d="M 10.306 13.334 C 10.116 13.411 9.913 13.444 9.711 13.434 L 8.694 13.434 L 8.694 10.208 L 9.711 10.208 C 10.737 10.208 11.244 10.701 11.244 11.777 C 11.254 11.999 11.22 12.222 11.148 12.431 C 11.073 12.638 10.963 12.826 10.821 12.983 C 10.671 13.136 10.497 13.255 10.306 13.334 Z M 9.662 12.842 C 9.784 12.849 9.904 12.826 10.018 12.779 C 10.132 12.732 10.235 12.657 10.323 12.563 C 10.491 12.35 10.578 12.073 10.563 11.787 C 10.569 11.656 10.551 11.525 10.51 11.401 C 10.468 11.276 10.405 11.163 10.323 11.067 C 10.233 10.975 10.128 10.903 10.014 10.855 C 9.896 10.81 9.775 10.792 9.653 10.798 L 9.336 10.798 L 9.336 12.842 Z" style="fill: rgb(255, 0, 0);"/>
  <path fill-rule="evenodd" clip-rule="evenodd" d="M 6.989 12.359 L 6.682 12.359 L 6.682 13.434 L 6.029 13.434 L 6.029 10.208 L 7.045 10.208 C 7.765 10.208 8.129 10.595 8.129 11.283 C 8.13 11.428 8.104 11.574 8.052 11.708 C 7.998 11.842 7.92 11.96 7.823 12.058 C 7.584 12.266 7.29 12.372 6.989 12.359 Z M 6.931 10.798 L 6.682 10.798 L 6.682 11.8 L 6.931 11.8 C 7.276 11.8 7.447 11.628 7.447 11.293 C 7.447 10.96 7.276 10.798 6.931 10.798 Z" style="fill: rgb(255, 0, 0);"/>
</svg>