<?xml version="1.0" encoding="utf-8"?>
<svg width="16" height="16" viewBox="0 0 16 16" fill="none" xmlns="http://www.w3.org/2000/svg">
  <path fill-rule="evenodd" clip-rule="evenodd" d="M 10.952 3.091 L 15.09 3.091 L 15.636 3.636 L 15.636 13.455 L 15.09 14 L 0.908 14 L 0.363 13.455 L 0.363 3.636 L 0.908 3.091 L 5.046 3.091 L 5.977 2.159 L 6.363 2 L 9.636 2 L 10.022 2.159 L 10.952 3.091 Z M 1.454 12.909 L 14.545 12.909 L 14.545 4.182 L 10.727 4.182 L 10.34 4.023 L 9.41 3.091 L 6.589 3.091 L 5.658 4.023 L 5.272 4.182 L 1.454 4.182 L 1.454 12.909 Z M 3.09 5.273 C 2.982 5.273 2.877 5.305 2.787 5.365 C 2.698 5.425 2.628 5.51 2.586 5.609 C 2.545 5.709 2.534 5.819 2.555 5.925 C 2.576 6.03 2.628 6.128 2.705 6.204 C 2.781 6.28 2.878 6.332 2.984 6.353 C 3.09 6.374 3.199 6.363 3.299 6.322 C 3.399 6.281 3.484 6.211 3.544 6.121 C 3.604 6.032 3.636 5.926 3.636 5.818 C 3.636 5.674 3.578 5.535 3.476 5.432 C 3.374 5.33 3.235 5.273 3.09 5.273 Z M 7.999 6.364 C 8.431 6.364 8.853 6.492 9.212 6.731 C 9.57 6.971 9.85 7.312 10.015 7.711 C 10.18 8.109 10.223 8.548 10.139 8.971 C 10.055 9.394 9.847 9.783 9.542 10.088 C 9.237 10.393 8.848 10.601 8.425 10.685 C 8.002 10.769 7.563 10.726 7.164 10.561 C 6.766 10.396 6.425 10.116 6.185 9.758 C 5.946 9.399 5.818 8.977 5.818 8.545 C 5.818 7.967 6.047 7.412 6.457 7.003 C 6.866 6.594 7.421 6.364 7.999 6.364 Z M 7.999 5.273 C 7.352 5.273 6.719 5.465 6.181 5.824 C 5.643 6.184 5.223 6.695 4.976 7.293 C 4.728 7.891 4.663 8.549 4.79 9.184 C 4.916 9.819 5.227 10.402 5.685 10.86 C 6.143 11.317 6.726 11.629 7.361 11.755 C 7.996 11.882 8.654 11.817 9.252 11.569 C 9.85 11.321 10.361 10.902 10.721 10.364 C 11.08 9.825 11.272 9.193 11.272 8.545 C 11.272 7.677 10.927 6.845 10.314 6.231 C 9.7 5.618 8.867 5.273 7.999 5.273 Z" style="fill: rgb(144, 144, 144);"/>
  <text style="font-size: 36; font-family: Roboto; white-space: pre;" transform="matrix(1, 0, 0, 1, -57.601505, 19.319807)">#ae4e97</text>
  <path fill-rule="evenodd" clip-rule="evenodd" d="M 15.135 8.055 L 15.614 8.594 L 15.614 15.046 L 15.135 15.586 L 4.592 15.586 L 4.113 15.046 L 4.113 8.594 L 4.592 8.055 Z M 14.655 9.13 L 5.07 9.13 L 5.07 14.51 L 14.655 14.51 Z" style="fill: rgb(255, 0, 0);"/>
  <path fill-rule="evenodd" clip-rule="evenodd" d="M 14.637 9.129 L 5.052 9.129 L 5.052 14.509 L 14.637 14.509 L 14.637 9.129 Z" style="fill: rgb(255, 255, 255); fill-opacity: 0.8;"/>
  <path fill-rule="evenodd" clip-rule="evenodd" d="M 13.602 12.187 L 12.673 12.187 L 12.673 13.434 L 12.02 13.434 L 12.02 10.208 L 13.687 10.208 L 13.687 10.798 L 12.673 10.798 L 12.673 11.596 L 13.602 11.596 L 13.602 12.187 Z" style="fill: rgb(255, 0, 0);"/>
  <path fill-rule="evenodd" clip-rule="evenodd" d="M 10.306 13.334 C 10.116 13.411 9.913 13.444 9.711 13.434 L 8.694 13.434 L 8.694 10.208 L 9.711 10.208 C 10.737 10.208 11.244 10.701 11.244 11.777 C 11.254 11.999 11.22 12.222 11.148 12.431 C 11.073 12.638 10.963 12.826 10.821 12.983 C 10.671 13.136 10.497 13.255 10.306 13.334 Z M 9.662 12.842 C 9.784 12.849 9.904 12.826 10.018 12.779 C 10.132 12.732 10.235 12.657 10.323 12.563 C 10.491 12.35 10.578 12.073 10.563 11.787 C 10.569 11.656 10.551 11.525 10.51 11.401 C 10.468 11.276 10.405 11.163 10.323 11.067 C 10.233 10.975 10.128 10.903 10.014 10.855 C 9.896 10.81 9.775 10.792 9.653 10.798 L 9.336 10.798 L 9.336 12.842 Z" style="fill: rgb(255, 0, 0);"/>
  <path fill-rule="evenodd" clip-rule="evenodd" d="M 6.989 12.359 L 6.682 12.359 L 6.682 13.434 L 6.029 13.434 L 6.029 10.208 L 7.045 10.208 C 7.765 10.208 8.129 10.595 8.129 11.283 C 8.13 11.428 8.104 11.574 8.052 11.708 C 7.998 11.842 7.92 11.96 7.823 12.058 C 7.584 12.266 7.29 12.372 6.989 12.359 Z M 6.931 10.798 L 6.682 10.798 L 6.682 11.8 L 6.931 11.8 C 7.276 11.8 7.447 11.628 7.447 11.293 C 7.447 10.96 7.276 10.798 6.931 10.798 Z" style="fill: rgb(255, 0, 0);"/>
</svg>