<?xml version="1.0" encoding="utf-8"?>
<svg width="16" height="16" viewBox="0 0 16 16" fill="none" xmlns="http://www.w3.org/2000/svg">
  <defs>
    <linearGradient gradientUnits="userSpaceOnUse" x1="5.949" y1="3.512" x2="5.949" y2="11.277" id="gradient-0" gradientTransform="matrix(1.00882, 0.376893, -0.390603, 1.060002, 3.079717, -3.261176)">
      <stop offset="0" style="stop-color: rgb(133, 206, 255);"/>
      <stop offset="1" style="stop-color: rgb(117, 190, 255);"/>
    </linearGradient>
    <linearGradient gradientUnits="userSpaceOnUse" x1="9.614" y1="3.582" x2="9.614" y2="11.225" id="gradient-1" gradientTransform="matrix(1.068376, 0.135417, -0.13514, 1.086787, 0.983697, -2.566455)">
      <stop offset="0" style="stop-color: rgb(133, 206, 255);"/>
      <stop offset="1" style="stop-color: rgb(117, 190, 255);"/>
    </linearGradient>
  </defs>
  <path fill-rule="evenodd" clip-rule="evenodd" d="M 15 1 L 1 1 L 0.462 1.538 L 0.462 12.308 L 1 12.846 L 6.924 12.846 L 6.924 13.923 L 3.693 13.923 L 3.693 15 L 12.308 15 L 12.308 13.923 L 9.077 13.923 L 9.077 12.846 L 15 12.846 L 15.539 12.308 L 15.539 1.538 L 15 1 Z M 14.462 11.769 L 1.539 11.769 L 1.539 2.077 L 14.462 2.077 L 14.462 11.769 Z" style="fill: rgb(144, 144, 144);"/>
  <polygon points="3.393 10.991 7.457 2.628 8.189 2.628 5.882 10.991" style="fill: url(#gradient-0);"/>
  <polygon points="10.91 2.704 11.017 10.934 8.458 10.935 10.427 2.723" style="fill: url(#gradient-1);"/>
</svg>