<?xml version="1.0" encoding="utf-8"?>
<svg width="16" height="16" viewBox="0 0 16 16" fill="none" xmlns="http://www.w3.org/2000/svg">
  <path fill-rule="evenodd" clip-rule="evenodd" d="M 11 1.5 L 11 11.5 L 11.5 12 L 13.5 12 L 14 11.5 L 14 1.5 L 13.5 1 L 11.5 1 L 11 1.5 Z" style="fill: rgb(144, 144, 144);"/>
  <path fill-rule="evenodd" clip-rule="evenodd" d="M 7 11.5 L 7 5.5 L 7.5 5 L 9.5 5 L 10 5.5 L 10 11.5 L 9.5 12 L 7.5 12 L 7 11.5 Z" style="fill: rgb(144, 144, 144);"/>
  <path fill-rule="evenodd" clip-rule="evenodd" d="M 3 11.5 L 3 3.5 L 3.5 3 L 5.5 3 L 6 3.5 L 6 11.5 L 5.5 12 L 3.5 12 L 3 11.5 Z" style="fill: rgb(144, 144, 144);"/>
  <path fill-rule="evenodd" clip-rule="evenodd" d="M 1.5 14 L 15 14 L 15 13 L 2 13 L 2 0 L 1 0 L 1 13.5 L 1.5 14 Z" style="fill: rgb(144, 144, 144);"/>
  <path fill-rule="evenodd" clip-rule="evenodd" d="M 9.24 11.269 L 9.24 5.661 L 7.704 5.661 L 7.704 11.269 L 9.24 11.269 Z" style="fill: rgb(137, 209, 133);"/>
  <path fill-rule="evenodd" clip-rule="evenodd" d="M 13.184 1.704 L 13.184 11.325 L 11.76 11.325 L 11.76 1.704 L 13.184 1.704 Z" style="fill: rgb(174, 78, 151);"/>
  <path fill-rule="evenodd" clip-rule="evenodd" d="M 5.254 11.311 L 5.254 3.732 L 3.718 3.732 L 3.718 11.311 L 5.254 11.311 Z" style="fill: rgb(117, 190, 255);"/>
</svg>