<?xml version="1.0" encoding="utf-8"?>
<!-- Generator: Adobe Illustrator 24.3.0, SVG Export Plug-In . SVG Version: 6.00 Build 0)  -->
<svg version="1.1" id="Layer_1" xmlns="http://www.w3.org/2000/svg" xmlns:xlink="http://www.w3.org/1999/xlink" x="0px" y="0px"
	 viewBox="0 0 24 24" style="enable-background:new 0 0 24 24;" xml:space="preserve">
<style type="text/css">
	
		.st0{display:none;fill:#FFFFFF;stroke:#8F9090;stroke-width:2;stroke-linecap:round;stroke-linejoin:round;stroke-miterlimit:10.6667;}
	
		.st1{display:none;fill:none;stroke:#8F9090;stroke-width:2;stroke-linecap:round;stroke-linejoin:round;stroke-miterlimit:10.6667;}
	.st2{fill:none;stroke:#8DC584;stroke-width:2;stroke-linecap:round;stroke-linejoin:round;stroke-miterlimit:10.6667;}
</style>
<path class="st0" d="M18.94,5.84v14.43c0,1.14-0.92,2.06-2.06,2.06H6.57c-1.14,0-2.06-0.92-2.06-2.06V5.84 M7.6,5.84V3.78
	c0-1.14,0.92-2.06,2.06-2.06h4.12c1.14,0,2.06,0.92,2.06,2.06v2.06"/>
<polyline class="st1" points="2.45,5.84 4.51,5.84 21.01,5.84 "/>
<line class="st1" x1="9.66" y1="11" x2="9.66" y2="17.18"/>
<line class="st1" x1="13.79" y1="11" x2="13.79" y2="17.18"/>
<line class="st1" x1="20.21" y1="3.79" x2="3.79" y2="20.21"/>
<line class="st1" x1="3.79" y1="3.79" x2="20.21" y2="20.21"/>
<polyline class="st2" points="21.85,4.85 21.85,10.22 16.48,10.22 "/>
<polyline class="st2" points="2.17,19.16 2.17,13.8 7.53,13.8 "/>
<path class="st2" d="M4.41,9.32c1.48-4.19,6.08-6.39,10.28-4.9c1.13,0.4,2.16,1.05,3.01,1.9l4.15,3.9 M2.17,13.8l4.15,3.9
	c3.14,3.14,8.24,3.15,11.39,0c0.85-0.85,1.5-1.88,1.9-3.01"/>
</svg>
