<?xml version="1.0" encoding="utf-8"?>
<svg width="16" height="16" viewBox="0 0 16 16" fill="none" xmlns="http://www.w3.org/2000/svg">
  <rect x="8.73" y="1" width="4.687" height="14" style="fill: rgb(251, 176, 0); stroke: rgb(128, 128, 128);"/>
  <line style="fill: rgb(253, 194, 93); stroke: rgb(144, 144, 144);" x1="8.73" y1="13.023" x2="10.763" y2="13.023"/>
  <line style="fill: rgb(253, 194, 93); stroke: rgb(144, 144, 144);" x1="8.73" y1="2.919" x2="10.763" y2="2.919"/>
  <line style="fill: rgb(253, 194, 93); stroke: rgb(144, 144, 144);" x1="8.73" y1="8.007" x2="10.763" y2="7.993"/>
  <line style="fill: rgb(253, 194, 93); stroke: rgb(144, 144, 144);" x1="8.73" y1="5.377" x2="10.763" y2="5.377"/>
  <line style="fill: rgb(253, 194, 93); stroke: rgb(144, 144, 144);" x1="8.73" y1="10.431" x2="10.763" y2="10.431"/>
  <g transform="matrix(1, 0, 0, 0.904566, 0.93656, 0.769834)" style="">
    <g transform="matrix(1, 0, 0, 0.96601, 0, -0.353146)" style="">
      <rect x="1.829" y="5.818" width="1.93" height="1.98" style="fill: rgb(117, 190, 255);" transform="matrix(0.999783, 0.020817, 0.020817, -0.999783, -0.303515, 12.570394)"/>
      <rect x="-1.822" y="-5.583" width="1.923" height="1.9" style="fill: rgb(117, 190, 255);" transform="matrix(0.999919, 0.012709, -0.004193, -1.000134, 6.551228, -3.031367)"/>
      <rect x="3.289" y="2.695" width="1.043" height="4.491" style="fill: rgb(117, 190, 255);" transform="matrix(0.846425, 0.532508, 0.590974, -0.809643, -2.037156, 5.848013)"/>
      <rect x="2.174" y="6.073" width="0.964" height="3.247" style="fill: rgb(117, 190, 255);"/>
    </g>
    <g transform="matrix(1, 0, 0, -1, 0, 16.360456)">
      <rect x="1.829" y="5.818" width="1.93" height="1.98" style="fill: rgb(117, 190, 255);" transform="matrix(0.999783, 0.020817, 0.020817, -0.999783, -0.303515, 12.570394)"/>
      <rect x="-1.822" y="-5.583" width="1.923" height="1.9" style="fill: rgb(117, 190, 255);" transform="matrix(0.999919, 0.012709, -0.004193, -1.000134, 6.551228, -3.031367)"/>
      <rect x="3.289" y="2.695" width="1.043" height="4.491" style="fill: rgb(117, 190, 255);" transform="matrix(0.846425, 0.532508, 0.590974, -0.809643, -2.037156, 5.848013)"/>
      <rect x="2.174" y="6.073" width="0.964" height="3.247" style="fill: rgb(117, 190, 255);"/>
    </g>
  </g>
</svg>