<?xml version="1.0" encoding="utf-8"?>
<svg width="16" height="16" viewBox="0 0 16 16" fill="none" xmlns="http://www.w3.org/2000/svg">
  <path fill-rule="evenodd" clip-rule="evenodd" d="M11.04 1.32996L12.71 3L13 3.70996V4.04004H12.5L12 4.54004V3.70996L10.33 2.04004H10V6.04004H4V2.04004H2V12.04H5L4.5 13.04H2L1 12.04V2.04004L2 1.04004H10.33L11.04 1.32996ZM7 5H9V2H7V5ZM13.5 5L15 6.5L14.98 7.18994L9.47998 12.6899L9.34998 12.8101L8.97998 13.1801L8.88 13.27L5.88 14.77L5.20996 14.1L6.70996 11.1L6.80005 11L7.17004 10.63L7.29004 10.5L12.79 5H13.5ZM7.28003 12.24L6.76001 13.24L7.80005 12.76L7.28003 12.24ZM7.96997 11.21L8.76001 12L13.91 6.84998L13.12 6.06006L7.96997 11.21Z" style="fill: rgb(128, 128, 128);"/>
  <polygon points="7.886000156402588 11.178999900817871 13.109999656677246 5.927999973297119 14.083999633789062 6.874000072479248 8.859999656677246 12.138999938964844 7.886000156402588 11.164999961853027" style="fill: rgb(251, 176, 0);"/>
  <polygon points="6.602 13.283 7.251 12.083 7.957 12.831 6.602 13.297" style="fill: rgb(251, 176, 0);"/>
</svg>