<?xml version="1.0" encoding="utf-8"?>
<svg width="16" height="16" viewBox="0 0 16 16" fill="none" xmlns="http://www.w3.org/2000/svg">
  <path fill-rule="evenodd" clip-rule="evenodd" d="M 10.707 2.091 L 14.5 2.091 L 15 2.636 L 15 12.455 L 14.5 13 L 1.5 13 L 1 12.455 L 1 2.636 L 1.5 2.091 L 5.293 2.091 L 6.146 1.159 L 6.5 1 L 9.5 1 L 9.854 1.159 L 10.707 2.091 Z M 2 11.909 L 14 11.909 L 14 3.182 L 10.5 3.182 L 10.146 3.023 L 9.293 2.091 L 6.707 2.091 L 5.854 3.023 L 5.5 3.182 L 2 3.182 L 2 11.909 Z M 3.5 4.273 C 3.401 4.273 3.304 4.305 3.222 4.365 C 3.14 4.425 3.076 4.51 3.038 4.609 C 3 4.709 2.99 4.819 3.01 4.925 C 3.029 5.03 3.077 5.128 3.146 5.204 C 3.216 5.28 3.305 5.332 3.402 5.353 C 3.499 5.374 3.6 5.363 3.691 5.322 C 3.783 5.281 3.861 5.211 3.916 5.121 C 3.971 5.032 4 4.926 4 4.818 C 4 4.674 3.947 4.535 3.854 4.432 C 3.76 4.33 3.633 4.273 3.5 4.273 Z M 8 5.364 C 8.396 5.364 8.782 5.492 9.111 5.731 C 9.44 5.971 9.696 6.312 9.848 6.711 C 9.999 7.109 10.039 7.548 9.962 7.971 C 9.884 8.394 9.694 8.783 9.414 9.088 C 9.135 9.393 8.778 9.601 8.39 9.685 C 8.002 9.769 7.6 9.726 7.235 9.561 C 6.869 9.396 6.557 9.116 6.337 8.758 C 6.117 8.399 6 7.977 6 7.545 C 6 6.967 6.211 6.412 6.586 6.003 C 6.961 5.594 7.47 5.364 8 5.364 Z M 8 4.273 C 7.407 4.273 6.827 4.465 6.333 4.824 C 5.84 5.184 5.455 5.695 5.228 6.293 C 5.001 6.891 4.942 7.549 5.058 8.184 C 5.173 8.819 5.459 9.402 5.879 9.86 C 6.298 10.317 6.833 10.629 7.415 10.755 C 7.997 10.882 8.6 10.817 9.148 10.569 C 9.696 10.321 10.165 9.902 10.494 9.364 C 10.824 8.825 11 8.193 11 7.545 C 11 6.677 10.684 5.845 10.121 5.231 C 9.559 4.618 8.796 4.273 8 4.273 Z" style="fill: rgb(144, 144, 144);"/>
  <path fill-rule="evenodd" clip-rule="evenodd" d="M 14.708 7.545 L 15.521 8.391 L 15.6 8.589 L 15.6 15.08 L 15.33 15.361 L 8.286 15.361 L 8.015 15.08 L 8.015 7.743 L 8.286 7.461 L 14.519 7.461 Z M 8.557 8.027 L 8.557 14.797 L 15.059 14.797 L 15.059 8.705 L 14.406 8.027 L 13.434 8.027 L 13.434 10.285 L 9.64 10.285 L 9.64 8.027 Z M 11.807 8.027 L 11.807 9.719 L 12.89 9.719 L 12.89 8.027 Z" style="fill: rgb(251, 176, 0);"/>
  <path fill-rule="evenodd" clip-rule="evenodd" d="M 8.551 8.021 L 8.551 14.79 L 15.053 14.79 L 15.053 8.699 L 14.4 8.021 L 13.429 8.021 L 13.429 10.277 L 9.634 10.277 L 9.634 8.021 L 8.551 8.021 Z" style="fill: rgb(255, 255, 255); fill-opacity: 0.8;"/>
  <path fill-rule="evenodd" clip-rule="evenodd" d="M 11.812 8.034 L 11.812 9.726 L 12.895 9.726 L 12.895 8.034 L 11.812 8.034 Z" style="fill: rgb(255, 255, 255); fill-opacity: 0.68;"/>
</svg>