<?xml version="1.0" encoding="utf-8"?>
<svg width="16" height="16" viewBox="0 0 16 16" fill="none" xmlns="http://www.w3.org/2000/svg">
  <path fill-rule="evenodd" clip-rule="evenodd" d="M 10.707 2.091 L 14.5 2.091 L 15 2.636 L 15 12.455 L 14.5 13 L 1.5 13 L 1 12.455 L 1 2.636 L 1.5 2.091 L 5.293 2.091 L 6.146 1.159 L 6.5 1 L 9.5 1 L 9.854 1.159 L 10.707 2.091 Z M 2 11.909 L 14 11.909 L 14 3.182 L 10.5 3.182 L 10.146 3.023 L 9.293 2.091 L 6.707 2.091 L 5.854 3.023 L 5.5 3.182 L 2 3.182 L 2 11.909 Z M 3.5 4.273 C 3.401 4.273 3.304 4.305 3.222 4.365 C 3.14 4.425 3.076 4.51 3.038 4.609 C 3 4.709 2.99 4.819 3.01 4.925 C 3.029 5.03 3.077 5.128 3.146 5.204 C 3.216 5.28 3.305 5.332 3.402 5.353 C 3.499 5.374 3.6 5.363 3.691 5.322 C 3.783 5.281 3.861 5.211 3.916 5.121 C 3.971 5.032 4 4.926 4 4.818 C 4 4.674 3.947 4.535 3.854 4.432 C 3.76 4.33 3.633 4.273 3.5 4.273 Z M 8 5.364 C 8.396 5.364 8.782 5.492 9.111 5.731 C 9.44 5.971 9.696 6.312 9.848 6.711 C 9.999 7.109 10.039 7.548 9.962 7.971 C 9.884 8.394 9.694 8.783 9.414 9.088 C 9.135 9.393 8.778 9.601 8.39 9.685 C 8.002 9.769 7.6 9.726 7.235 9.561 C 6.869 9.396 6.557 9.116 6.337 8.758 C 6.117 8.399 6 7.977 6 7.545 C 6 6.967 6.211 6.412 6.586 6.003 C 6.961 5.594 7.47 5.364 8 5.364 Z M 8 4.273 C 7.407 4.273 6.827 4.465 6.333 4.824 C 5.84 5.184 5.455 5.695 5.228 6.293 C 5.001 6.891 4.942 7.549 5.058 8.184 C 5.173 8.819 5.459 9.402 5.879 9.86 C 6.298 10.317 6.833 10.629 7.415 10.755 C 7.997 10.882 8.6 10.817 9.148 10.569 C 9.696 10.321 10.165 9.902 10.494 9.364 C 10.824 8.825 11 8.193 11 7.545 C 11 6.677 10.684 5.845 10.121 5.231 C 9.559 4.618 8.796 4.273 8 4.273 Z" style="fill: rgb(144, 144, 144);"/>
  <path fill-rule="evenodd" clip-rule="evenodd" d="M 12.15 5.956 L 12.868 6.706 L 12.938 6.882 L 12.938 12.633 L 12.699 12.882 L 6.481 12.882 L 6.242 12.633 L 6.242 6.132 L 6.481 5.882 L 11.983 5.882 Z M 6.721 6.384 L 6.721 12.382 L 12.46 12.382 L 12.46 6.984 L 11.883 6.384 L 11.025 6.384 L 11.025 8.384 L 7.678 8.384 L 7.678 6.384 Z M 9.589 6.384 L 9.589 7.883 L 10.545 7.883 L 10.545 6.384 Z" style="fill: rgb(213, 149, 0);"/>
  <path fill-rule="evenodd" clip-rule="evenodd" d="M 6.715 6.378 L 6.715 12.376 L 12.455 12.376 L 12.455 6.979 L 11.878 6.378 L 11.021 6.378 L 11.021 8.377 L 7.672 8.377 L 7.672 6.378 L 6.715 6.378 Z" style="fill: rgb(255, 255, 255); fill-opacity: 0.85;"/>
  <path fill-rule="evenodd" clip-rule="evenodd" d="M 9.594 6.39 L 9.594 7.889 L 10.55 7.889 L 10.55 6.39 L 9.594 6.39 Z" style="fill: rgb(255, 255, 255); fill-opacity: 0.68;"/>
  <path fill-rule="evenodd" clip-rule="evenodd" d="M 13.522 7.131 L 14.24 7.881 L 14.309 8.056 L 14.309 13.808 L 14.071 14.057 L 7.853 14.057 L 7.614 13.808 L 7.614 7.307 L 7.853 7.057 L 13.356 7.057 Z M 8.093 7.558 L 8.093 13.557 L 13.831 13.557 L 13.831 8.159 L 13.255 7.558 L 12.397 7.558 L 12.397 9.559 L 9.049 9.559 L 9.049 7.558 Z M 10.961 7.558 L 10.961 9.058 L 11.918 9.058 L 11.918 7.558 Z" style="fill: rgb(245, 172, 0);"/>
  <path fill-rule="evenodd" clip-rule="evenodd" d="M 8.086 7.553 L 8.086 13.551 L 13.826 13.551 L 13.826 8.154 L 13.25 7.553 L 12.392 7.553 L 12.392 9.552 L 9.043 9.552 L 9.043 7.553 L 8.086 7.553 Z" style="fill: rgb(255, 255, 255); fill-opacity: 0.85;"/>
  <path fill-rule="evenodd" clip-rule="evenodd" d="M 10.965 7.565 L 10.965 9.064 L 11.922 9.064 L 11.922 7.565 L 10.965 7.565 Z" style="fill: rgb(255, 255, 255); fill-opacity: 0.68;"/>
  <path fill-rule="evenodd" clip-rule="evenodd" d="M 14.894 8.369 L 15.612 9.119 L 15.682 9.294 L 15.682 15.046 L 15.443 15.295 L 9.225 15.295 L 8.986 15.046 L 8.986 8.545 L 9.225 8.295 L 14.728 8.295 Z M 9.465 8.796 L 9.465 14.795 L 15.203 14.795 L 15.203 9.397 L 14.628 8.796 L 13.769 8.796 L 13.769 10.797 L 10.421 10.797 L 10.421 8.796 Z M 12.334 8.796 L 12.334 10.296 L 13.29 10.296 L 13.29 8.796 Z" style="fill: rgb(251, 176, 0);"/>
  <path fill-rule="evenodd" clip-rule="evenodd" d="M 9.46 8.791 L 9.46 14.789 L 15.199 14.789 L 15.199 9.392 L 14.623 8.791 L 13.765 8.791 L 13.765 10.79 L 10.416 10.79 L 10.416 8.791 L 9.46 8.791 Z" style="fill: rgb(255, 255, 255); fill-opacity: 0.85;"/>
  <path fill-rule="evenodd" clip-rule="evenodd" d="M 12.338 8.803 L 12.338 10.302 L 13.294 10.302 L 13.294 8.803 L 12.338 8.803 Z" style="fill: rgb(255, 255, 255); fill-opacity: 0.68;"/>
</svg>