<?xml version="1.0" encoding="utf-8"?>
<svg width="16" height="16" viewBox="0 0 16 16" fill="none" xmlns="http://www.w3.org/2000/svg">
  <path d="M 2.241 12.532 C 2.699 12.532 3.282 12.548 3.714 12.339 C 3.908 12.247 4.162 12.447 4.34 12.298 C 4.631 12.054 5.066 12.26 5.339 11.954 C 6.047 11.163 6.942 10.233 7.565 9.189 C 7.861 8.693 8.469 8.438 8.909 8.438 C 8.986 8.438 9.243 8.368 9.306 8.438 C 9.64 8.81 10.087 8.997 10.432 9.382 C 10.579 9.547 10.68 9.819 10.817 10.003 C 11.319 10.677 11.827 11.273 12.352 11.933 C 12.602 12.247 12.914 12.447 13.222 12.576 C 13.348 12.629 13.65 12.606 13.735 12.748 C 13.735 12.718 13.947 12.694 13.977 12.694 C 14.045 12.651 14.114 12.651 14.182 12.651" style="fill: rgb(216, 216, 216); fill-opacity: 0; stroke: rgb(128, 70, 0); stroke-linejoin: round; stroke-width: 0.6px;"/>
  <path d="M 11.646 2.853 L 11.646 2.853" style="stroke: rgb(0, 0, 0); fill: rgb(216, 216, 216); stroke-width: 0.6px;"/>
  <path d="M 2.307 9.699 C 2.765 9.699 3.347 9.713 3.779 9.505 C 3.973 9.412 4.228 9.612 4.405 9.462 C 4.696 9.219 5.132 9.424 5.405 9.118 C 6.113 8.328 7.008 7.399 7.631 6.353 C 7.927 5.86 8.534 5.603 8.975 5.603 C 9.051 5.603 9.308 5.533 9.372 5.603 C 9.705 5.976 10.153 6.161 10.498 6.547 C 10.645 6.711 10.745 6.986 10.882 7.169 C 11.385 7.841 11.893 8.438 12.418 9.098 C 12.668 9.412 12.979 9.612 13.288 9.742 C 13.414 9.793 13.716 9.77 13.801 9.913 C 13.801 9.882 14.013 9.86 14.043 9.86 C 14.111 9.817 14.179 9.817 14.248 9.817" style="fill: rgb(216, 216, 216); fill-opacity: 0; stroke-linejoin: round; stroke: rgb(255, 140, 0); stroke-width: 0.6px;"/>
  <path d="M 2.263 6.673 C 2.721 6.673 3.304 6.689 3.736 6.481 C 3.93 6.388 4.184 6.587 4.362 6.438 C 4.653 6.194 5.089 6.399 5.361 6.095 C 6.069 5.304 6.964 4.375 7.587 3.329 C 7.883 2.835 8.491 2.578 8.931 2.578 C 9.008 2.578 9.265 2.509 9.329 2.578 C 9.662 2.952 10.109 3.137 10.454 3.523 C 10.601 3.686 10.702 3.96 10.839 4.144 C 11.341 4.817 11.85 5.414 12.374 6.072 C 12.625 6.388 12.936 6.587 13.244 6.716 C 13.371 6.768 13.672 6.746 13.757 6.888 C 13.757 6.858 13.97 6.835 14 6.835 C 14.067 6.792 14.136 6.792 14.205 6.792" style="fill: rgb(216, 216, 216); fill-opacity: 0; stroke-linejoin: round; stroke: rgb(150, 84, 3); stroke-width: 0.6px;"/>
  <line style="fill: rgb(253, 194, 93); stroke: rgb(144, 144, 144);" x1="1.378" y1="14.337" x2="1.352" y2="2.051" transform="matrix(-1, 0, 0, -1, 2.73, 16.388)"/>
  <line style="fill: rgb(253, 194, 93); stroke: rgb(144, 144, 144);" x1="0.871" y1="14.161" x2="14.262" y2="13.999"/>
</svg>