<?xml version="1.0" encoding="utf-8"?>
<svg width="16" height="16" viewBox="0 0 16 16" fill="none" xmlns="http://www.w3.org/2000/svg">
  <path fill-rule="evenodd" clip-rule="evenodd" d="M14.5 2H1.5L1 2.5V12.5L1.5 13H7V14H4V15H12V14H9V13H14.5L15 12.5V2.5L14.5 2ZM14 12H2V3H14V12Z" style="fill: rgb(144, 144, 144);"/>
  <text style="font-size: 36; font-family: Roboto; white-space: pre;" transform="matrix(1, 0, 0, 1, -53.118594, 17.258764)">#fbb000</text>
  <path fill-rule="evenodd" clip-rule="evenodd" d="M 7.311 7.315 L 7.311 11.015 L 8.688 11.015 L 8.688 7.315 L 9.94 8.562 L 11.012 7.495 L 8.313 4.807 L 7.686 4.807 L 4.987 7.495 L 6.059 8.562 Z" style="fill: rgb(251, 176, 0);"/>
  <rect x="4.456" y="-4.788" width="7.087" height="0.847" style="fill: rgb(137, 209, 133);" transform="matrix(1, 0, 0, -1, 0, 0)"/>
</svg>