<?xml version="1.0" encoding="utf-8"?>
<svg width="16" height="16" viewBox="0 0 16 16" fill="none" xmlns="http://www.w3.org/2000/svg">
  <path fill-rule="evenodd" clip-rule="evenodd" d="M 12.028 6.149 C 12.123 7.566 11.668 8.967 10.758 10.058 L 15.018 14.318 L 14.318 15.028 L 10.058 10.758 C 8.967 11.668 7.566 12.123 6.149 12.028 C 4.731 11.932 3.404 11.293 2.446 10.244 C 1.487 9.195 0.969 7.817 1.001 6.396 C 1.033 4.975 1.612 3.622 2.617 2.617 C 3.622 1.612 4.975 1.033 6.396 1.001 C 7.817 0.969 9.195 1.487 10.244 2.446 C 11.293 3.404 11.932 4.731 12.028 6.149 Z M 6.578 11.038 C 7.77 11.035 8.914 10.561 9.758 9.718 L 9.718 9.738 C 10.145 9.321 10.485 8.823 10.718 8.274 C 10.952 7.725 11.074 7.134 11.078 6.538 C 11.078 5.648 10.814 4.778 10.319 4.038 C 9.825 3.298 9.122 2.721 8.3 2.38 C 7.477 2.039 6.573 1.95 5.7 2.124 C 4.827 2.298 4.025 2.726 3.396 3.356 C 2.766 3.985 2.338 4.787 2.164 5.66 C 1.99 6.533 2.08 7.437 2.42 8.26 C 2.761 9.082 3.337 9.785 4.077 10.279 C 4.817 10.774 5.688 11.038 6.578 11.038 Z" style="fill: rgb(144, 144, 144);"/>
  <path fill-rule="evenodd" clip-rule="evenodd" d="M 9.01749 7.0376 L 9.01749 6.0376 L 7.01749 6.0376 L 7.01749 4.0376 L 6.01749 4.0376 L 6.01749 6.0376 L 4.01749 6.0376 L 4.01749 7.0376 L 6.01749 7.0376 L 6.01749 9.0376 L 7.01749 9.0376 L 7.01749 7.0376 L 9.01749 7.0376 Z" style="fill: rgb(174, 78, 151);"/>
</svg>