<?xml version="1.0" encoding="UTF-8" standalone="no"?>
<!-- Generator: Adobe Illustrator 24.1.2, SVG Export Plug-In . SVG Version: 6.00 Build 0)  -->

<svg
   version="1.1"
   id="Layer_1"
   x="0px"
   y="0px"
   viewBox="0 0 16 16"
   style="enable-background:new 0 0 16 16;"
   xml:space="preserve"
   sodipodi:docname="AppendPrevCurve.svg"
   inkscape:version="1.1.2 (b8e25be833, 2022-02-05)"
   inkscape:export-filename="D:\Repos\OPM\ResInsight\ApplicationExeCode\Resources\AppendPrevCurve.png"
   inkscape:export-xdpi="314.46732"
   inkscape:export-ydpi="314.46732"
   xmlns:inkscape="http://www.inkscape.org/namespaces/inkscape"
   xmlns:sodipodi="http://sodipodi.sourceforge.net/DTD/sodipodi-0.dtd"
   xmlns:xlink="http://www.w3.org/1999/xlink"
   xmlns="http://www.w3.org/2000/svg"
   xmlns:svg="http://www.w3.org/2000/svg"><defs
   id="defs9"><symbol
     id="FirstAid"><title
       id="title1005">First Aid</title><path
       d="m 44,13 0,15 15,0 0,16 -15,0 0,15 -16,0 0,-15 -15,0 0,-16 15,0 0,-15 z"
       style="stroke:none"
       id="path1007" /></symbol></defs><sodipodi:namedview
   id="namedview7"
   pagecolor="#ffffff"
   bordercolor="#666666"
   borderopacity="1.0"
   inkscape:pageshadow="2"
   inkscape:pageopacity="0.0"
   inkscape:pagecheckerboard="0"
   showgrid="false"
   inkscape:zoom="44.9375"
   inkscape:cx="6.9763561"
   inkscape:cy="6.2197497"
   inkscape:window-width="2560"
   inkscape:window-height="1351"
   inkscape:window-x="-9"
   inkscape:window-y="-9"
   inkscape:window-maximized="1"
   inkscape:current-layer="Layer_1" />
<style
   type="text/css"
   id="style2">
	.st0{fill-rule:evenodd;clip-rule:evenodd;fill:#75BEFF;}
</style>

<g
   id="g4186"><path
     class="st0"
     d="M 2.1,13.2 H 13.9 L 8,2.8 Z"
     id="path4" /><use
     xlink:href="#FirstAid"
     style="opacity:0.78;fill:#008000;stroke:#000000"
     id="use3426"
     x="0"
     y="0"
     width="100%"
     height="100%"
     transform="matrix(0.15988928,0,0,0.15002721,6.0894814,-0.96147989)" /></g><path
   style="opacity:0.58;fill:#0000ff;fill-opacity:0.0136055;stroke:#f60000;stroke-width:1px;stroke-linecap:butt;stroke-linejoin:miter;stroke-opacity:1"
   d="m 7.8833419,14.663316 c -0.05031,0.0014 -0.341591,-0.02003 -0.378303,-0.04451 -0.0138,-0.0092 -0.0084,-0.03531 -0.02225,-0.04451 -0.03847,-0.02565 -0.131631,-0.01358 -0.178025,-0.04451 -0.02619,-0.01746 -0.03944,-0.05115 -0.06676,-0.06676 -0.03822,-0.02184 -0.11519,-0.02421 -0.155772,-0.04451 -0.02766,-0.01383 -0.06499,-0.09325 -0.08901,-0.111265 -0.06195,-0.04646 -0.101925,-0.13297 -0.155772,-0.200279 -0.01036,-0.01295 -0.03278,-0.01053 -0.04451,-0.02225 -0.02414,-0.02414 -0.07151,-0.214527 -0.08901,-0.267037 -0.04076,-0.122281 0.02235,-0.37879 0.04451,-0.489569 0.03212,-0.160577 0.01255,-0.751339 -0.06676,-0.890125 -0.02967,-0.05192 -0.05073,-0.10983 -0.08901,-0.155772 -0.04749,-0.05699 -0.122587,-0.08424 -0.178028,-0.13352 -0.204933,-0.182164 -0.434818,-0.285566 -0.689847,-0.378304 -0.146281,-0.05319 -0.269566,-0.162915 -0.400556,-0.244784 -0.135624,-0.08477 -0.328363,-0.128429 -0.378303,-0.311544 -0.05025,-0.184249 -0.06342,-0.41172 -0.04451,-0.600834 0.01131,-0.113118 0.07996,-0.207198 0.111265,-0.311544 0.06553,-0.218424 0.107956,-0.5515388 0.08901,-0.7788599 -0.01352,-0.1622592 -0.07994,-0.2950421 -0.133518,-0.4450626 -0.01816,-0.050856 -0.01909,-0.1081233 -0.04451,-0.1557719 -0.03491,-0.06545 -0.09421,-0.115123 -0.133519,-0.178025 C 4.6842469,8.5745317 4.6116209,8.3760449 4.5008629,8.2099085 4.3451499,7.9763382 4.3984299,8.1301135 4.2338259,7.9206178 4.0834269,7.7292015 3.9763409,7.526467 3.9000289,7.2975302 c -0.06391,-0.191733 -0.02225,-0.4455852 -0.02225,-0.6453408 0,-0.2236424 -0.03581,-0.5417555 0,-0.7566069 0.0077,-0.04628 0.03611,-0.08736 0.04451,-0.133519 0.01939,-0.10667 -0.02694,-0.238234 -0.06676,-0.333797 -0.07218,-0.173243 -0.20968,-0.266095 -0.333797,-0.400556 -0.361635,-0.39177 0.122508,0.110655 -0.289291,-0.35605 -0.117989,-0.133721 -0.252202,-0.252202 -0.378303,-0.378303 -0.153222,-0.153223 -0.359409,-0.29377 -0.489569,-0.467316 -0.02986,-0.03981 -0.04005,-0.09154 -0.06676,-0.133519 -0.06993,-0.109887 -0.164102,-0.194567 -0.178025,-0.333797 -0.01302,-0.130194 0.02052,-0.13873 -0.02225,-0.267037 -0.01573,-0.04721 -0.05469,-0.08524 -0.06676,-0.133519 -0.04991,-0.199637 -0.04395,-0.420291 -0.08901,-0.623088 -0.0275,-0.123735 -0.133519,-0.08658 -0.133519,-0.178025"
   id="path7358" /><path
   style="opacity:0.658192;fill:none;stroke:#000000;stroke-width:1px;stroke-linecap:butt;stroke-linejoin:miter;stroke-opacity:1"
   d="m 9.4855669,14.663316 c -0.130532,0.03231 -0.120511,-0.05067 -0.178025,-0.08901 -0.01234,-0.0082 -0.03628,0.01234 -0.04451,0 -0.01234,-0.01852 0.0099,-0.04686 0,-0.06676 -0.01196,-0.02392 -0.05192,-0.02225 -0.06676,-0.04451 -0.01696,-0.02544 -0.0845,-0.155449 -0.08901,-0.178025 -0.01,-0.04993 0.01,-0.105845 0,-0.155772 -0.04037,-0.201854 0.0036,-0.415984 -0.02225,-0.623087 -0.01092,-0.08738 -0.06334,-0.123262 -0.08901,-0.200278 -0.0097,-0.02901 -0.0053,-0.06357 -0.02225,-0.08901 -0.0354,-0.05309 -0.110651,-0.06615 -0.155772,-0.111266 -0.06717,-0.06717 -0.110854,-0.155361 -0.178025,-0.222531 -0.03358,-0.03358 -0.07949,-0.05371 -0.111265,-0.08901 -0.03578,-0.03976 -0.05323,-0.09376 -0.08901,-0.133519 -0.03177,-0.0353 -0.07768,-0.05543 -0.111266,-0.08901 -0.157491,-0.157492 -0.365789,-0.500701 -0.445064,-0.712102 -0.118092,-0.314912 0.03666,-0.691146 -0.06676,-1.001391 -0.0228,-0.06841 -0.03618,-0.04083 -0.08901,-0.111266 -0.0519,-0.0692 -0.07565,-0.158232 -0.133519,-0.222531 -0.203436,-0.22604 -0.526974,-0.408609 -0.667594,-0.6898471 -0.02098,-0.041961 -0.02353,-0.091558 -0.04451,-0.1335188 -0.01659,-0.033173 -0.0517,-0.055121 -0.06676,-0.089012 -0.08722,-0.1962321 -0.03325,-0.4220389 -0.06676,-0.6230881 -0.03378,-0.2026756 -0.105931,-0.4014727 -0.155771,-0.6008345 -0.02809,-0.1123626 -0.02758,-0.2483132 -0.06676,-0.3560501 -0.03563,-0.097983 -0.150854,-0.2843726 -0.222531,-0.35605 -0.03782,-0.037823 -0.09394,-0.053031 -0.133519,-0.089013 -0.108191,-0.098355 -0.128252,-0.1963025 -0.200278,-0.3115438 -0.04195,-0.067112 -0.130018,-0.1452701 -0.155772,-0.2225313 -0.04822,-0.1446554 -0.01824,-0.3005999 -0.04451,-0.4450625 -0.0059,-0.032638 -0.03731,-0.056629 -0.04451,-0.089013 -0.03435,-0.154599 0,-0.3547133 0,-0.5118213 0,-0.116921 0.02299,-0.263337 0,-0.378303 -0.01013,-0.05065 -0.156266,-0.222779 -0.200278,-0.244785 -0.01327,-0.0066 -0.03264,0.0089 -0.04451,0 -0.05433,-0.01207 -0.03216,-0.08531 -0.06676,-0.111266 -0.01681,-0.01261 -0.09222,-0.02229 -0.111266,-0.04451 -0.277875,-0.324188 -0.333797,-0.510928 -0.333797,-0.912378 0,-0.355322 -0.0998,-0.698198 -0.28929,-1.001391 -0.08713,-0.139408 -0.04976,-0.0345 -0.111266,-0.178025 -0.08333,-0.194437 -0.006,-0.506987 -0.08901,-0.645341 -0.05922,-0.0987 -0.103701,-0.185148 -0.155772,-0.28929 -0.02691,-0.05382 -0.101263,-0.05676 -0.111266,-0.06676 -0.01049,-0.01049 0.0066,-0.03124 0,-0.04451 -0.02893,-0.05785 -0.06356,-0.09637 -0.08901,-0.155772 -0.02547,-0.05942 -0.02152,-0.222166 -0.02225,-0.222531 -0.01327,-0.0066 -0.03402,0.01049 -0.04451,0 -0.04155,-0.04155 0.02802,-0.04451 -0.04451,-0.04451"
   id="path7426" /></svg>
