<?xml version="1.0" encoding="UTF-8" standalone="no"?>
<!-- Generator: Adobe Illustrator 24.1.2, SVG Export Plug-In . SVG Version: 6.00 Build 0)  -->

<svg
   version="1.1"
   id="Layer_1"
   x="0px"
   y="0px"
   viewBox="0 0 16 16"
   style="enable-background:new 0 0 16 16;"
   xml:space="preserve"
   sodipodi:docname="AppendNextCurve.svg"
   inkscape:version="1.1.2 (b8e25be833, 2022-02-05)"
   inkscape:export-filename="D:\Repos\OPM\ResInsight\ApplicationExeCode\Resources\AppendNextCurve.png"
   inkscape:export-xdpi="279.2092"
   inkscape:export-ydpi="279.2092"
   xmlns:inkscape="http://www.inkscape.org/namespaces/inkscape"
   xmlns:sodipodi="http://sodipodi.sourceforge.net/DTD/sodipodi-0.dtd"
   xmlns:xlink="http://www.w3.org/1999/xlink"
   xmlns="http://www.w3.org/2000/svg"
   xmlns:svg="http://www.w3.org/2000/svg"><defs
   id="defs9"><symbol
     id="FirstAid"><title
       id="title4273">First Aid</title><path
       d="m 44,13 0,15 15,0 0,16 -15,0 0,15 -16,0 0,-15 -15,0 0,-16 15,0 0,-15 z"
       style="stroke:none"
       id="path4275" /></symbol></defs><sodipodi:namedview
   id="namedview7"
   pagecolor="#ffffff"
   bordercolor="#666666"
   borderopacity="1.0"
   inkscape:pageshadow="2"
   inkscape:pageopacity="0.0"
   inkscape:pagecheckerboard="0"
   showgrid="false"
   inkscape:zoom="36.543278"
   inkscape:cx="6.0613062"
   inkscape:cy="6.2254951"
   inkscape:window-width="2560"
   inkscape:window-height="1351"
   inkscape:window-x="-9"
   inkscape:window-y="-9"
   inkscape:window-maximized="1"
   inkscape:current-layer="g7616" />
<style
   type="text/css"
   id="style2">
	.st0{fill-rule:evenodd;clip-rule:evenodd;fill:#75BEFF;}
</style>

<g
   id="g7616"
   inkscape:groupmode="layer"><path
     class="st0"
     d="M 13.9,2.8 H 2.1 L 8,13.2 Z"
     id="path4" /><use
     xlink:href="#FirstAid"
     style="opacity:0.69;fill:#008000;stroke:#000000"
     id="use6694"
     x="0"
     y="0"
     width="100%"
     height="100%"
     transform="matrix(0.16145491,0,0,0.15825119,5.9080974,4.7174215)" /><path
     style="fill:#0000ff;stroke:#f60000;stroke-width:1px;stroke-linecap:butt;stroke-linejoin:miter;stroke-opacity:1;opacity:0.58;fill-opacity:0.01360544"
     d="m 8.255911,1.5354659 c -0.050314,-0.00137 -0.341591,0.020031 -0.3783032,0.044506 -0.013801,0.0092 -0.00845,0.035306 -0.022253,0.044506 -0.03847,0.025646 -0.1316305,0.013577 -0.1780251,0.044506 -0.026185,0.017457 -0.039435,0.051146 -0.066759,0.066759 -0.038224,0.021842 -0.1151897,0.024215 -0.1557719,0.044506 -0.027662,0.013831 -0.064992,0.093251 -0.089012,0.1112657 -0.061949,0.046462 -0.1019246,0.1329691 -0.1557719,0.2002782 -0.010362,0.012952 -0.032778,0.010525 -0.044506,0.022253 -0.02414,0.02414 -0.071509,0.2145277 -0.089012,0.2670375 -0.04076,0.1222813 0.02235,0.3787897 0.044506,0.4895689 0.032115,0.1605772 0.012547,0.7513386 -0.066759,0.8901252 C 7.0245729,3.8127014 7.0035169,3.870607 6.9652319,3.9165493 6.9177425,3.9735352 6.8426451,4.000789 6.7872045,4.0500695 6.5822709,4.2322327 6.352386,4.3356351 6.0973574,4.4283727 5.9510757,4.4815661 5.8277908,4.5912886 5.6968011,4.6731572 5.561177,4.7579223 5.3684383,4.8015862 5.3184979,4.984701 c -0.05025,0.1842491 -0.063418,0.4117199 -0.044506,0.6008345 0.011312,0.1131173 0.079962,0.2071973 0.1112656,0.3115438 0.065527,0.2184234 0.1079559,0.5515384 0.089012,0.7788595 -0.013522,0.1622592 -0.07994,0.2950421 -0.1335188,0.4450626 -0.018163,0.050856 -0.019094,0.1081233 -0.044506,0.1557719 -0.034907,0.06545 -0.094205,0.115123 -0.1335188,0.178025 C 5.0568186,7.6242502 4.984193,7.822737 4.8734353,7.9888734 4.7177218,8.2224437 4.7710018,8.0686681 4.6063978,8.2781641 4.4559992,8.4695804 4.3489131,8.6723149 4.2726008,8.9012517 c -0.063911,0.191733 -0.022253,0.4455852 -0.022253,0.6453408 0,0.2236424 -0.035808,0.5417555 0,0.7566065 0.00771,0.04628 0.036114,0.08736 0.044506,0.133519 0.019395,0.10667 -0.026942,0.238234 -0.066759,0.333797 -0.072185,0.173243 -0.2096795,0.266095 -0.333797,0.400556 -0.3616343,0.39177 0.1225081,-0.110655 -0.2892906,0.35605 -0.1179896,0.133721 -0.2522022,0.252202 -0.3783032,0.378303 -0.1532224,0.153223 -0.3594091,0.29377 -0.4895689,0.467316 -0.029856,0.03981 -0.040045,0.09154 -0.066759,0.133519 -0.069929,0.109887 -0.1641021,0.194567 -0.178025,0.333797 -0.013019,0.130194 0.020516,0.13873 -0.022253,0.267037 -0.015735,0.04721 -0.054691,0.08524 -0.066759,0.133519 -0.049909,0.199637 -0.043947,0.420291 -0.089013,0.623088 -0.027497,0.123735 -0.1335188,0.08658 -0.1335188,0.178025"
     id="path7358" /><path
     style="fill:none;stroke:#000000;stroke-width:1px;stroke-linecap:butt;stroke-linejoin:miter;stroke-opacity:1;opacity:0.65819209"
     d="m 9.8581363,1.5354659 c -0.1305326,-0.032308 -0.1205116,0.05067 -0.178025,0.089013 -0.012344,0.00823 -0.036277,-0.012344 -0.044506,0 -0.012344,0.018516 0.00995,0.046856 0,0.066759 -0.011961,0.023921 -0.051924,0.022253 -0.066759,0.044506 -0.016963,0.025444 -0.084497,0.1554492 -0.089012,0.178025 -0.00999,0.049927 0.00999,0.105845 0,0.1557719 -0.040371,0.2018541 0.00363,0.4159845 -0.022253,0.6230877 -0.010923,0.087381 -0.063341,0.1232621 -0.089013,0.2002781 -0.00967,0.029015 -0.00529,0.063565 -0.022253,0.089012 -0.035395,0.053093 -0.1106517,0.066146 -0.1557719,0.1112657 -0.06717,0.06717 -0.1108548,0.1553611 -0.178025,0.2225313 -0.033585,0.033585 -0.079492,0.053709 -0.1112657,0.089012 -0.035783,0.039759 -0.05323,0.09376 -0.089012,0.1335188 -0.031773,0.035304 -0.077681,0.055427 -0.1112656,0.089012 C 8.5434839,3.7847497 8.3351863,4.1279594 8.255911,4.3393602 8.1378191,4.6542719 8.2925667,5.0305058 8.1891516,5.340751 8.1663474,5.4091638 8.1529688,5.3815771 8.1001391,5.4520167 8.0482363,5.5212204 8.0244888,5.6102496 7.9666203,5.674548 7.7631844,5.9005879 7.4396456,6.0831566 7.2990264,6.364395 c -0.02098,0.041961 -0.023526,0.091558 -0.044506,0.1335188 -0.016586,0.033173 -0.051696,0.055121 -0.066759,0.089012 -0.087215,0.1962321 -0.033252,0.4220389 -0.06676,0.6230881 C 7.0872221,7.4126895 7.0150699,7.6114866 6.9652295,7.8108484 6.9371388,7.923211 6.9376471,8.0591616 6.8984701,8.1668985 6.8628398,8.2648817 6.7476162,8.4512711 6.6759388,8.5229485 6.6381158,8.5607716 6.5819993,8.5759799 6.54242,8.6119611 6.4342293,8.7103163 6.4141677,8.8082636 6.3421419,8.9235049 6.3001967,8.9906172 6.2121237,9.068775 6.18637,9.1460362 6.138152,9.2906916 6.16813,9.4466361 6.141864,9.5910987 c -0.00593,0.032638 -0.03731,0.056629 -0.044506,0.089013 -0.034355,0.154599 0,0.3547133 0,0.5118213 0,0.116921 0.022993,0.263337 0,0.378303 -0.01013,0.05065 -0.1562658,0.222779 -0.2002781,0.244785 -0.013269,0.0066 -0.032638,-0.0089 -0.044506,0 -0.054332,0.01207 -0.032157,0.08531 -0.066759,0.111266 -0.01681,0.01261 -0.092225,0.02229 -0.1112656,0.04451 -0.2778755,0.324188 -0.333797,0.510928 -0.333797,0.912378 0,0.355322 -0.099795,0.698198 -0.2892906,1.001391 -0.08713,0.139408 -0.049755,0.0345 -0.1112657,0.178025 -0.08333,0.194437 -0.006,0.506987 -0.089012,0.645341 -0.059223,0.0987 -0.1037008,0.185148 -0.1557719,0.28929 -0.026909,0.05382 -0.1012629,0.05676 -0.1112657,0.06676 -0.01049,0.01049 0.00663,0.03124 0,0.04451 -0.028926,0.05785 -0.063556,0.09637 -0.089012,0.155772 -0.025467,0.05942 -0.021522,0.222166 -0.022253,0.222531 -0.013269,0.0066 -0.034016,-0.01049 -0.044506,0 -0.041545,0.04155 0.028017,0.04451 -0.044506,0.04451"
     id="path7426" /></g></svg>
