<svg xmlns="http://www.w3.org/2000/svg" viewBox="0 0 16 16">
  <defs>
    <style>.canvas{fill: none; opacity: 0;}.light-lightblue-10{fill: #0077a0; opacity: 0.1;}.light-lightblue{fill: #0077a0; opacity: 1;}</style>
  </defs>
  <title>IconLightCloud</title>
  <g id="canvas" class="canvas">
    <path class="canvas" d="M16,16H0V0H16Z" />
  </g>
  <g id="level-1">
    <path class="light-lightblue-10" d="M14.518,9.25A2.239,2.239,0,0,1,12.3,11.5H4.562a3.125,3.125,0,0,1,0-6.25,2.939,2.939,0,0,1,.8.109A3.492,3.492,0,0,1,11.937,7H12.3A2.239,2.239,0,0,1,14.518,9.25Z" />
    <path class="light-lightblue" d="M8.43,3ZM15,9.25A2.73,2.73,0,0,1,12.3,12H4.561a3.626,3.626,0,0,1,0-7.25,3.471,3.471,0,0,1,.567.047,3.963,3.963,0,0,1,7.255,1.7A2.732,2.732,0,0,1,15,9.25Zm-.982,0A1.735,1.735,0,0,0,12.3,7.5h-.859V7.063A3.037,3.037,0,0,0,8.43,4,3.005,3.005,0,0,0,5.622,5.988,2.521,2.521,0,0,0,4.561,5.75a2.625,2.625,0,0,0,0,5.25H12.3A1.735,1.735,0,0,0,14.018,9.25Z" />
  </g>
</svg>
