<svg xmlns="http://www.w3.org/2000/svg" viewBox="0 0 16 16">
  <defs>
    <style>.canvas{fill: none; opacity: 0;}.light-lightblue-10{fill: #0077a0; opacity: 0.1;}.light-lightblue{fill: #0077a0; opacity: 1;}.light-blue{fill: #005dba; opacity: 1;}.light-defaultgrey-10{fill: #212121; opacity: 0.1;}.light-defaultgrey{fill: #212121; opacity: 1;}</style>
  </defs>
  <title>IconLightCloudBlobs</title>
  <g id="canvas">
    <path class="canvas" d="M16,16H0V0H16Z" />
  </g>
  <g id="level-1">
    <path class="light-lightblue-10" d="M12.263,6.5h-.325l-.5-.492A3.048,3.048,0,0,0,8.43,3,3,3,0,0,0,5.8,4.6l-.575.244a2.452,2.452,0,0,0-.661-.091A2.631,2.631,0,0,0,3.582,9.8a.724.724,0,0,0,.317.116l-.586.843A3.508,3.508,0,0,0,4.562,11H7V8L8,7h4l.383.076.353.147.325.216.912.913c0-.034.009-.067.009-.1A1.737,1.737,0,0,0,12.263,6.5ZM4.2,9.966c.16.018.338.029.528.034H4.562A2.194,2.194,0,0,1,4.2,9.966Z" />
    <path class="light-lightblue" d="M14.982,8.25a2.685,2.685,0,0,1-.208,1.008l-.213-.319-.588-.587c0-.034.009-.067.009-.1a1.748,1.748,0,0,0-1.1-1.627l0,0-.053-.022c-.042-.015-.084-.028-.127-.04a1.7,1.7,0,0,0-.278-.046.753.753,0,0,1-.083-.011c-.027,0-.052-.008-.078-.008h-.814V6.063c0-.016,0-.031,0-.047l-.008-.008A3.048,3.048,0,0,0,8.437,3c-.015,0-.03,0-.044,0a2.921,2.921,0,0,0-.378.03c-.079.012-.156.031-.234.049-.057.013-.114.025-.169.042a2.72,2.72,0,0,0-.271.1c-.036.014-.071.028-.106.044a3.138,3.138,0,0,0-.282.146l-.066.041a3.055,3.055,0,0,0-.283.2l-.029.025a3.073,3.073,0,0,0-.759.921l-.007,0a3.03,3.03,0,0,0-.177.388,2.659,2.659,0,0,0-.44-.152,2.515,2.515,0,0,0-.623-.085c-.067,0-.131.013-.2.018-.087.007-.175.012-.26.027-.029.007-.057.015-.086.021a2.5,2.5,0,0,0-.323.094h0c-.03.011-.059.024-.088.037l0-.008A2.637,2.637,0,0,0,3.582,9.8a2.6,2.6,0,0,0,.328.1l-.6.857c-.043-.017-.09-.024-.132-.042A3.629,3.629,0,0,1,3.975,3.81l.016,0a3.484,3.484,0,0,1,.37-.036c.068,0,.132-.021.2-.021h.017a3.557,3.557,0,0,1,.537.043A3.986,3.986,0,0,1,8.43,2h.017a4.047,4.047,0,0,1,3.97,3.5l.013,0a2.666,2.666,0,0,1,.468.068l.026.007a2.779,2.779,0,0,1,.51.18l0,.008A2.755,2.755,0,0,1,14.982,8.25Z" />
    <path class="light-blue" d="M7.039,12.146v.708L5.1,14.8l-.707-.707L5.479,13H2.5V12H5.479L4.388,10.909,5.1,10.2Z" />
    <path class="light-defaultgrey-10" d="M13.5,14.5h-5v-6H12L13.5,10Z" />
    <path class="light-defaultgrey" d="M13.854,9.646l-1.5-1.5L12,8H8.5L8,8.5v6l.5.5h5l.5-.5V10ZM9,14V9h3v1h1v4Z" />
  </g>
</svg>
