<?xml version="1.0" encoding="utf-8"?>
<!-- Generator: Adobe Illustrator 24.3.0, SVG Export Plug-In . SVG Version: 6.00 Build 0)  -->
<svg version="1.1" xmlns="http://www.w3.org/2000/svg" xmlns:xlink="http://www.w3.org/1999/xlink" x="0px" y="0px"
	 viewBox="0 0 24 24" style="enable-background:new 0 0 24 24;" xml:space="preserve">
<style type="text/css">
	.st0{fill:none;stroke:#8DC584;stroke-width:2;stroke-linecap:round;stroke-linejoin:round;stroke-miterlimit:10;}
	.st1{display:none;}
	.st2{display:inline;}
	.st3{fill:#75BEFF;}
	.st4{fill:#89D185;}
	.st5{fill:url(#SVGID_1_);stroke:#8F9090;stroke-width:0.75;stroke-linecap:round;stroke-linejoin:round;stroke-miterlimit:10;}
	.st6{fill:url(#SVGID_2_);stroke:#8F9090;stroke-width:0.75;stroke-linecap:round;stroke-linejoin:round;stroke-miterlimit:10;}
</style>
<g id="Layer_1">
	<path class="st0" d="M1.7,17.8"/>
</g>
<g id="Layer_2" class="st1">
	<g class="st2">
		<g>
			<path class="st3" d="M10.9,12.7h1.9c0.3-1.3,0.7-2.3,1.1-2.9c0.4-0.6,0.9-1.1,1.5-1.5c0.6-0.4,1.2-0.6,1.8-0.6
				c0.3,0,0.6,0.1,0.7,0.2C18,8,18.1,8.2,18.1,8.3c0,0.2-0.1,0.3-0.2,0.4c-0.1,0.1-0.3,0.2-0.4,0.2c-0.2,0-0.5-0.1-1-0.2
				c-0.2-0.1-0.4-0.1-0.6-0.1c-0.3,0-0.7,0.2-0.9,0.6c-0.3,0.4-0.5,1-0.7,1.7l-0.4,1.7H16l-0.1,0.6h-2.1l-1.2,5
				c-0.4,1.5-1,2.7-1.8,3.4S9,22.8,8,22.8c-0.3,0-0.6-0.1-0.7-0.2C7.1,22.5,7,22.3,7,22.1c0-0.2,0.1-0.3,0.2-0.4s0.3-0.1,0.5-0.1
				c0.1,0,0.3,0,0.5,0c0.4,0,0.7,0.1,1,0.1c0.5,0,0.9-0.1,1.1-0.4s0.5-0.8,0.7-1.8l1.6-6.4h-1.9L10.9,12.7z"/>
			<path class="st3" d="M8,23.2c-0.4,0-0.7-0.1-1-0.3c-0.3-0.3-0.4-0.6-0.4-0.8c0-0.3,0.1-0.5,0.3-0.7c0.2-0.2,0.4-0.2,0.7-0.2
				c0.1,0,0.3,0,0.5,0c0.8,0.1,1.6,0.1,1.9-0.2c0.1-0.1,0.3-0.5,0.6-1.6l1.5-5.9h-1.9l0.3-1.3h1.9c0.3-1.2,0.6-2.1,1-2.7
				c0.4-0.7,1-1.2,1.7-1.6c0.7-0.4,1.4-0.6,2-0.6c0.4,0,0.7,0.1,0.9,0.3c0.3,0.2,0.4,0.5,0.4,0.7c0,0.3-0.1,0.5-0.3,0.7
				c-0.2,0.2-0.4,0.3-0.7,0.3c-0.2,0-0.6-0.1-1.1-0.2C16.1,9,16,9,15.9,9c-0.2,0-0.4,0.2-0.6,0.5c-0.3,0.4-0.5,0.9-0.6,1.6l-0.3,1.2
				h2.1l-0.3,1.3h-2.1l-1.2,4.7c-0.4,1.6-1,2.8-1.9,3.6C10.1,22.8,9.1,23.2,8,23.2z M7.7,22c-0.2,0-0.2,0-0.3,0.1c0,0,0,0,0,0.1
				c0,0,0,0.1,0.1,0.2c0.1,0.1,0.2,0.1,0.5,0.1c0.5,0,1-0.1,1.4-0.3c-0.4,0-0.9,0-1.3-0.1C7.9,22,7.8,22,7.7,22z M13.1,13l-1.7,6.6
				c-0.1,0.3-0.2,0.6-0.2,0.9c0.4-0.7,0.8-1.5,1-2.5l1.8-7.2c0.1-0.5,0.3-0.9,0.4-1.3c-0.1,0.1-0.2,0.2-0.2,0.3
				c-0.4,0.6-0.7,1.5-1,2.8L13.1,13z M16.2,8.3c0.1,0,0.3,0,0.4,0.1c0.6,0.1,0.9,0.2,1,0.2c0.1,0,0.1,0,0.2-0.1c0,0,0-0.1,0-0.1
				c0,0,0-0.1-0.1-0.1c-0.1,0-0.2-0.1-0.5-0.1C16.8,8.1,16.5,8.1,16.2,8.3z"/>
		</g>
		<g>
			<path class="st3" d="M16.5,13.7l-0.2-0.3c0.6-0.5,1-0.8,1.4-1c0.3-0.2,0.5-0.2,0.6-0.2c0.2,0,0.4,0.1,0.5,0.3
				c0.2,0.3,0.3,0.9,0.5,1.8c0.6-0.9,1.2-1.6,1.7-2c0.5-0.4,0.9-0.5,1.2-0.5c0.2,0,0.3,0,0.4,0.1c0.1,0.1,0.2,0.2,0.2,0.4
				c0,0.2-0.1,0.3-0.2,0.4c-0.1,0.1-0.4,0.1-0.9,0.2c-0.4,0-0.7,0.1-1,0.4c-0.5,0.4-0.9,0.9-1.3,1.7l0.5,2.3c0.2,1,0.4,1.8,0.7,2.3
				s0.5,0.9,0.9,1.1c0.2,0.2,0.4,0.2,0.6,0.2c0.3,0,0.6-0.2,0.7-0.6c0.1-0.3,0.3-0.4,0.5-0.4c0.1,0,0.2,0,0.3,0.1s0.1,0.2,0.1,0.3
				c0,0.3-0.1,0.5-0.4,0.7s-0.7,0.3-1.1,0.3c-0.5,0-1-0.2-1.4-0.5c-0.5-0.3-0.8-0.8-1.2-1.5c-0.3-0.7-0.6-1.8-0.9-3.3
				c-0.1,0.1-0.3,0.4-0.5,0.7c-0.7,0.9-1.2,1.5-1.5,1.8s-0.7,0.4-1,0.4c-0.2,0-0.4-0.1-0.6-0.2c-0.2-0.1-0.2-0.3-0.2-0.5
				c0-0.1,0-0.3,0.1-0.4c0.1-0.1,0.2-0.2,0.3-0.2c0.1,0,0.3,0.1,0.4,0.3c0.1,0.2,0.2,0.2,0.3,0.2c0.1,0,0.2,0,0.2-0.1
				c0.1-0.1,0.3-0.2,0.5-0.5c0.3-0.3,0.6-0.6,0.7-0.9l1-1.4L18.1,14c-0.1-0.4-0.2-0.6-0.3-0.8S17.7,13,17.6,13c-0.1,0-0.2,0-0.3,0.1
				C17,13.3,16.7,13.5,16.5,13.7z"/>
			<path class="st3" d="M22.1,21.7c-0.6,0-1.1-0.2-1.6-0.5c-0.5-0.4-0.9-0.9-1.3-1.7c-0.3-0.6-0.5-1.4-0.8-2.6
				c-0.7,1-1.2,1.6-1.6,1.9c-0.8,0.6-1.6,0.6-2.1,0.2c-0.2-0.2-0.4-0.5-0.4-0.7c0-0.2,0.1-0.5,0.2-0.6c0.3-0.4,0.9-0.4,1.3,0.1
				c0.1,0.1,0.1,0.1,0.1,0.1c0.1-0.1,0.2-0.1,0.4-0.4c0.3-0.3,0.5-0.6,0.7-0.8l0.9-1.3L17.8,14c-0.1-0.5-0.2-0.6-0.2-0.6
				c0,0,0,0-0.1,0.1c-0.3,0.2-0.5,0.3-0.7,0.5l-0.3,0.3l-0.7-0.9l0.3-0.2c0.6-0.5,1.1-0.8,1.5-1.1c0.3-0.2,0.6-0.3,0.8-0.3
				c0.3,0,0.6,0.2,0.8,0.5c0.1,0.2,0.3,0.6,0.4,1.1c0.5-0.6,0.9-1.1,1.3-1.3c0.9-0.7,1.7-0.8,2.1-0.4c0.2,0.2,0.3,0.4,0.3,0.6
				c0,0.3-0.1,0.5-0.4,0.7c-0.1,0.1-0.3,0.2-1,0.2c-0.3,0-0.6,0.1-0.8,0.3c-0.4,0.3-0.8,0.8-1.2,1.4l0.5,2.2c0.2,1,0.4,1.7,0.6,2.2
				c0.2,0.4,0.5,0.8,0.8,1c0.1,0.1,0.3,0.1,0.4,0.1c0.1,0,0.2,0,0.4-0.4c0.2-0.6,0.6-0.6,0.8-0.6c0.2,0,0.4,0.1,0.6,0.3
				c0.1,0.2,0.2,0.4,0.2,0.6c0,0.4-0.2,0.7-0.6,1C23.1,21.6,22.7,21.7,22.1,21.7z M23.3,20.3c0,0-0.1,0-0.1,0.1
				c-0.1,0.1-0.1,0.3-0.2,0.3c0,0,0,0,0,0C23.2,20.6,23.3,20.5,23.3,20.3C23.3,20.3,23.3,20.3,23.3,20.3z M18.8,15.1L19,16
				c0.3,1.5,0.6,2.6,0.9,3.2c0.2,0.5,0.5,0.9,0.8,1.1c-0.1-0.2-0.3-0.4-0.4-0.7c-0.3-0.5-0.5-1.3-0.7-2.4l-0.4-2.1l0,0l-0.2-0.9
				c-0.2-1.2-0.4-1.6-0.5-1.7c-0.1-0.1-0.1-0.1-0.2-0.1c0,0-0.1,0-0.4,0.2c0,0,0,0,0,0c0.1,0,0.2,0.1,0.3,0.3
				c0.1,0.2,0.2,0.4,0.3,0.9L18.8,15.1L18.8,15.1z M15.2,18.1c-0.1,0.1-0.1,0.1-0.1,0.2c0,0,0,0.1,0.1,0.2c0.1,0.1,0.3,0.1,0.5,0.1
				c-0.1-0.1-0.2-0.2-0.3-0.3C15.3,18.2,15.2,18.1,15.2,18.1z M22.3,12.2c-0.2,0-0.4,0.1-0.9,0.4c0.1,0,0.2,0,0.4-0.1
				c0.5,0,0.7-0.1,0.7-0.1c0,0,0-0.1,0-0.1c0,0,0-0.1,0-0.1C22.4,12.2,22.4,12.2,22.3,12.2z"/>
		</g>
	</g>
</g>
<g id="Layer_2_copy" class="st1">
	<g class="st2">
		<g>
			<g>
				<path class="st3" d="M10.9,12.7h1.9c0.3-1.3,0.7-2.3,1.1-2.9c0.4-0.6,0.9-1.1,1.5-1.5c0.6-0.4,1.2-0.6,1.8-0.6
					c0.3,0,0.6,0.1,0.7,0.2C18,8,18.1,8.2,18.1,8.3c0,0.2-0.1,0.3-0.2,0.4c-0.1,0.1-0.3,0.2-0.4,0.2c-0.2,0-0.5-0.1-1-0.2
					c-0.2-0.1-0.4-0.1-0.6-0.1c-0.3,0-0.7,0.2-0.9,0.6c-0.3,0.4-0.5,1-0.7,1.7l-0.4,1.7H16l-0.1,0.6h-2.1l-1.2,5
					c-0.4,1.5-1,2.7-1.8,3.4S9,22.8,8,22.8c-0.3,0-0.6-0.1-0.7-0.2C7.1,22.5,7,22.3,7,22.1c0-0.2,0.1-0.3,0.2-0.4s0.3-0.1,0.5-0.1
					c0.1,0,0.3,0,0.5,0c0.4,0,0.7,0.1,1,0.1c0.5,0,0.9-0.1,1.1-0.4s0.5-0.8,0.7-1.8l1.6-6.4h-1.9L10.9,12.7z"/>
				<path class="st3" d="M8,24.3c-0.7,0-1.2-0.2-1.6-0.5c-0.5-0.4-0.9-1-0.9-1.7c0-0.6,0.3-1.2,0.7-1.5c0.3-0.2,0.7-0.5,1.5-0.5
					c0.2,0,0.4,0,0.7,0.1c0.3,0,0.7,0.1,0.9,0.1c0.1-0.1,0.2-0.5,0.3-1l1.1-4.5H8.8l0.9-3.6h1.9c0.3-0.9,0.6-1.6,0.9-2.2
					c0.5-0.8,1.2-1.5,2.1-2c1.5-0.9,3.2-1,4.2-0.3c0.5,0.4,0.8,1,0.8,1.6c0,0.6-0.2,1.1-0.6,1.5c-0.4,0.4-0.9,0.6-1.5,0.6
					c-0.3,0-0.7-0.1-1.3-0.2c-0.1,0.2-0.2,0.5-0.4,1h2l-0.8,3.6h-2.1L14,18.6c-0.5,1.8-1.2,3.2-2.3,4.2C10.6,23.8,9.4,24.3,8,24.3z
					 M9.4,20.2L9.4,20.2L9.4,20.2z M16.3,10L16.3,10L16.3,10z"/>
			</g>
			<g>
				<path class="st3" d="M8,23.2c-0.4,0-0.7-0.1-1-0.3c-0.3-0.3-0.4-0.6-0.4-0.8c0-0.3,0.1-0.5,0.3-0.7c0.2-0.2,0.4-0.2,0.7-0.2
					c0.1,0,0.3,0,0.5,0c0.8,0.1,1.6,0.1,1.9-0.2c0.1-0.1,0.3-0.5,0.6-1.6l1.5-5.9h-1.9l0.3-1.3h1.9c0.3-1.2,0.6-2.1,1-2.7
					c0.4-0.7,1-1.2,1.7-1.6c0.7-0.4,1.4-0.6,2-0.6c0.4,0,0.7,0.1,0.9,0.3c0.3,0.2,0.4,0.5,0.4,0.7c0,0.3-0.1,0.5-0.3,0.7
					c-0.2,0.2-0.4,0.3-0.7,0.3c-0.2,0-0.6-0.1-1.1-0.2C16.1,9,16,9,15.9,9c-0.2,0-0.4,0.2-0.6,0.5c-0.3,0.4-0.5,0.9-0.6,1.6
					l-0.3,1.2h2.1l-0.3,1.3h-2.1l-1.2,4.7c-0.4,1.6-1,2.8-1.9,3.6C10.1,22.8,9.1,23.2,8,23.2z"/>
				<path class="st3" d="M8,24.7c-0.7,0-1.4-0.2-1.9-0.6c-0.6-0.5-1-1.2-1-2c0-0.7,0.3-1.4,0.9-1.8c0.3-0.3,0.9-0.6,1.7-0.6
					c0.2,0,0.4,0,0.7,0.1c0.3,0,0.5,0,0.6,0.1c0.1-0.2,0.1-0.4,0.2-0.7l1-4H8.3l1.1-4.3h1.9c0.3-0.8,0.6-1.5,0.9-2
					c0.6-0.9,1.3-1.6,2.2-2.1c1.7-1,3.5-1.1,4.6-0.2c0.6,0.5,1,1.2,1,1.9c0,0.7-0.3,1.3-0.7,1.7c-0.5,0.4-1.1,0.7-1.7,0.7
					c-0.3,0-0.6,0-1.1-0.1c0,0.1,0,0.1-0.1,0.2h2l-1,4.3h-2.1l-0.9,3.6C13.9,20.5,13.1,22,12,23C10.8,24.1,9.5,24.7,8,24.7z
					 M8.9,20.2L8.9,20.2L8.9,20.2z M17.3,8.8L17.3,8.8L17.3,8.8z"/>
			</g>
		</g>
		<g>
			<g>
				<path class="st3" d="M16.5,13.7l-0.2-0.3c0.6-0.5,1-0.8,1.4-1c0.3-0.2,0.5-0.2,0.6-0.2c0.2,0,0.4,0.1,0.5,0.3
					c0.2,0.3,0.3,0.9,0.5,1.8c0.6-0.9,1.2-1.6,1.7-2c0.5-0.4,0.9-0.5,1.2-0.5c0.2,0,0.3,0,0.4,0.1c0.1,0.1,0.2,0.2,0.2,0.4
					c0,0.2-0.1,0.3-0.2,0.4c-0.1,0.1-0.4,0.1-0.9,0.2c-0.4,0-0.7,0.1-1,0.4c-0.5,0.4-0.9,0.9-1.3,1.7l0.5,2.3c0.2,1,0.4,1.8,0.7,2.3
					s0.5,0.9,0.9,1.1c0.2,0.2,0.4,0.2,0.6,0.2c0.3,0,0.6-0.2,0.7-0.6c0.1-0.3,0.3-0.4,0.5-0.4c0.1,0,0.2,0,0.3,0.1s0.1,0.2,0.1,0.3
					c0,0.3-0.1,0.5-0.4,0.7s-0.7,0.3-1.1,0.3c-0.5,0-1-0.2-1.4-0.5c-0.5-0.3-0.8-0.8-1.2-1.5c-0.3-0.7-0.6-1.8-0.9-3.3
					c-0.1,0.1-0.3,0.4-0.5,0.7c-0.7,0.9-1.2,1.5-1.5,1.8s-0.7,0.4-1,0.4c-0.2,0-0.4-0.1-0.6-0.2c-0.2-0.1-0.2-0.3-0.2-0.5
					c0-0.1,0-0.3,0.1-0.4c0.1-0.1,0.2-0.2,0.3-0.2c0.1,0,0.3,0.1,0.4,0.3c0.1,0.2,0.2,0.2,0.3,0.2c0.1,0,0.2,0,0.2-0.1
					c0.1-0.1,0.3-0.2,0.5-0.5c0.3-0.3,0.6-0.6,0.7-0.9l1-1.4L18.1,14c-0.1-0.4-0.2-0.6-0.3-0.8S17.7,13,17.6,13
					c-0.1,0-0.2,0-0.3,0.1C17,13.3,16.7,13.5,16.5,13.7z"/>
				<path class="st3" d="M22.1,22.9c-0.8,0-1.6-0.2-2.3-0.7c-0.7-0.5-1.2-1.2-1.7-2.1c-0.1-0.2-0.2-0.4-0.3-0.6
					c-0.2,0.1-0.3,0.3-0.4,0.4c-1.2,0.9-2.6,0.9-3.5,0.1c-0.5-0.4-0.8-1-0.8-1.6c0-0.5,0.2-1,0.6-1.4c0.4-0.4,0.9-0.6,1.4-0.6
					c0.2,0,0.4,0,0.7,0.1c0.2-0.2,0.3-0.3,0.3-0.4l0.1-0.1L16.3,16l-2-2.8l1.1-0.9c0.6-0.5,1.2-0.9,1.7-1.2c1.2-0.7,2.2-0.5,2.8,0.3
					c0.1-0.1,0.2-0.2,0.3-0.2c1.4-1,2.7-1.1,3.6-0.3c0.4,0.4,0.6,0.9,0.6,1.5c0,0.6-0.3,1.2-0.8,1.6c-0.4,0.3-0.8,0.4-1.6,0.4
					c-0.1,0-0.1,0-0.2,0c-0.2,0.2-0.4,0.4-0.7,0.8l0.4,1.7c0.2,1.1,0.4,1.7,0.6,2c0,0,0,0,0,0c0.7-0.7,2-0.7,2.7,0.1
					c0.3,0.4,0.5,0.8,0.5,1.3c0,0.4-0.1,1.2-1,1.9C23.6,22.7,22.9,22.9,22.1,22.9z"/>
			</g>
			<g>
				<path class="st3" d="M22.1,21.7c-0.6,0-1.1-0.2-1.6-0.5c-0.5-0.4-0.9-0.9-1.3-1.7c-0.3-0.6-0.5-1.4-0.8-2.6
					c-0.7,1-1.2,1.6-1.6,1.9c-0.8,0.6-1.6,0.6-2.1,0.2c-0.2-0.2-0.4-0.5-0.4-0.7c0-0.2,0.1-0.5,0.2-0.6c0.3-0.4,0.9-0.4,1.3,0.1
					c0.1,0.1,0.1,0.1,0.1,0.1c0.1-0.1,0.2-0.1,0.4-0.4c0.3-0.3,0.5-0.6,0.7-0.8l0.9-1.3L17.8,14c-0.1-0.5-0.2-0.6-0.2-0.6
					c0,0,0,0-0.1,0.1c-0.3,0.2-0.5,0.3-0.7,0.5l-0.3,0.3l-0.7-0.9l0.3-0.2c0.6-0.5,1.1-0.8,1.5-1.1c0.3-0.2,0.6-0.3,0.8-0.3
					c0.3,0,0.6,0.2,0.8,0.5c0.1,0.2,0.3,0.6,0.4,1.1c0.5-0.6,0.9-1.1,1.3-1.3c0.9-0.7,1.7-0.8,2.1-0.4c0.2,0.2,0.3,0.4,0.3,0.6
					c0,0.3-0.1,0.5-0.4,0.7c-0.1,0.1-0.3,0.2-1,0.2c-0.3,0-0.6,0.1-0.8,0.3c-0.4,0.3-0.8,0.8-1.2,1.4l0.5,2.2c0.2,1,0.4,1.7,0.6,2.2
					c0.2,0.4,0.5,0.8,0.8,1c0.1,0.1,0.3,0.1,0.4,0.1c0.1,0,0.2,0,0.4-0.4c0.2-0.6,0.6-0.6,0.8-0.6c0.2,0,0.4,0.1,0.6,0.3
					c0.1,0.2,0.2,0.4,0.2,0.6c0,0.4-0.2,0.7-0.6,1C23.1,21.6,22.7,21.7,22.1,21.7z"/>
				<path class="st3" d="M22.1,23.2c-0.9,0-1.7-0.3-2.5-0.8c-0.7-0.5-1.3-1.3-1.8-2.3c0-0.1,0-0.1-0.1-0.2c0,0,0,0-0.1,0
					c-1.3,1-2.9,1-3.9,0.1c-0.6-0.5-0.9-1.1-0.9-1.9c0-0.6,0.2-1.2,0.7-1.7c0.4-0.5,1.1-0.8,1.8-0.7c0.2,0,0.3,0,0.5,0.1l-2.1-2.9
					L15,12c0.7-0.6,1.2-1,1.8-1.3c1.2-0.7,2.3-0.5,3,0.1c0,0,0,0,0,0c2.3-1.6,3.7-0.6,4.1-0.2c0.5,0.5,0.7,1.1,0.7,1.7
					c0,0.8-0.4,1.5-1,1.9c-0.5,0.4-1.1,0.5-1.8,0.5c-0.1,0.1-0.2,0.2-0.5,0.5l0.3,1.6c0.1,0.7,0.3,1.2,0.4,1.5
					c0.9-0.5,2.1-0.4,2.8,0.4c0.4,0.4,0.6,1,0.6,1.6c0,0.9-0.4,1.6-1.2,2.2C23.8,23,23,23.2,22.1,23.2z"/>
			</g>
		</g>
	</g>
</g>
<g id="Layer_4">
	<path class="st4" d="M22.3,15l-5.2-5.2H11v6.1l5.2,5.2c0,0,0,0,0,0c0.5,0.5,1.2,0.5,1.7,0l4.4-4.4C22.8,16.2,22.8,15.5,22.3,15z
		 M14.2,14.3c-0.8,0-1.4-0.6-1.4-1.4c0-0.8,0.6-1.4,1.4-1.4h0c0.8,0,1.4,0.6,1.4,1.4C15.6,13.7,14.9,14.3,14.2,14.3z"/>
</g>
<g id="Layer_4_copy">
	<g>
		<linearGradient id="SVGID_1_" gradientUnits="userSpaceOnUse" x1="1.18" y1="7.3951" x2="22.82" y2="7.3951">
			<stop  offset="1.118836e-07" style="stop-color:#9D9D9C"/>
			<stop  offset="0.5652" style="stop-color:#CECECE"/>
			<stop  offset="1" style="stop-color:#5C5C5B"/>
		</linearGradient>
		<path class="st5" d="M9,9.8c0-1.1,0.9-2,2-2h6.1c0.4,0,0.8,0.1,1.1,0.4l4.6-5.4H1.2L9,12V9.8z"/>
		<linearGradient id="SVGID_2_" gradientUnits="userSpaceOnUse" x1="9.84" y1="19.8517" x2="14.16" y2="19.8517">
			<stop  offset="1.118836e-07" style="stop-color:#9D9D9C"/>
			<stop  offset="0.5652" style="stop-color:#CECECE"/>
			<stop  offset="1" style="stop-color:#5C5C5B"/>
		</linearGradient>
		<polygon class="st6" points="9.8,17.5 9.8,20.1 14.2,22.2 14.2,21.8 		"/>
	</g>
</g>
</svg>
