<?xml version="1.0" encoding="utf-8"?>
<!-- Generator: Adobe Illustrator 24.3.0, SVG Export Plug-In . SVG Version: 6.00 Build 0)  -->
<svg version="1.1" id="Layer_1" xmlns="http://www.w3.org/2000/svg" xmlns:xlink="http://www.w3.org/1999/xlink" x="0px" y="0px"
	 viewBox="0 0 24 24" style="enable-background:new 0 0 24 24;" xml:space="preserve">
<style type="text/css">
	.st0{display:none;fill:#8F9090;stroke:#8F9090;stroke-linecap:round;stroke-linejoin:round;stroke-miterlimit:10;}
	.st1{fill:url(#SVGID_1_);}
	.st2{fill:url(#SVGID_2_);}
	.st3{fill:url(#SVGID_3_);stroke:#8E8F8F;stroke-width:0.75;stroke-linecap:round;stroke-linejoin:round;stroke-miterlimit:10;}
	.st4{fill:none;stroke:#8CC483;stroke-width:2;stroke-linecap:round;stroke-linejoin:round;stroke-miterlimit:10;}
</style>
<polygon class="st0" points="22.54,11.36 9.65,11.36 14.8,17.46 14.8,21.68 17.38,22.97 17.38,17.46 "/>
<g>
	
		<linearGradient id="SVGID_1_" gradientUnits="userSpaceOnUse" x1="11.57" y1="4.02" x2="11.57" y2="20.18" gradientTransform="matrix(1 0 0 -1 0 24)">
		<stop  offset="0" style="stop-color:#F39200"/>
		<stop  offset="0.3393" style="stop-color:#F6A31C"/>
		<stop  offset="0.6861" style="stop-color:#F9AE2E"/>
		<stop  offset="1" style="stop-color:#F9B233"/>
	</linearGradient>
	<path class="st1" d="M12.8,18.19l-4.68-5.54c-0.5-0.59-0.61-1.43-0.29-2.13c0.33-0.71,1.04-1.16,1.81-1.16h11.58V9V7.57
		c0-0.52-0.42-0.94-0.94-0.94h-5.45c-0.25,0-0.49-0.1-0.66-0.27l-2.25-2.25c-0.18-0.18-0.41-0.27-0.66-0.28l-8.4-0.01
		c-0.52,0-0.94,0.42-0.94,0.94v14.28c0,0.52,0.42,0.94,0.94,0.94h2.19h7.76v-1.79H12.8z M5.03,9.39v8.89c0,0.4-0.31,0.72-0.69,0.72
		H3.48c-0.31,0-0.56-0.26-0.56-0.59V5.58c0-0.4,0.31-0.72,0.69-0.72h7.33c0.16,0,0.4,0.09,0.51,0.21l2.46,2.42
		c0.12,0.12,0.35,0.21,0.51,0.21l5.46-0.01c0.16,0,0.3,0.13,0.3,0.3v0.47c0,0.16-0.14,0.3-0.3,0.3H5.64
		C5.3,8.76,5.03,9.04,5.03,9.39z"/>
	
		<linearGradient id="SVGID_2_" gradientUnits="userSpaceOnUse" x1="20.3" y1="4.02" x2="20.3" y2="7.9862" gradientTransform="matrix(1 0 0 -1 0 24)">
		<stop  offset="0" style="stop-color:#F39200"/>
		<stop  offset="0.3393" style="stop-color:#F6A31C"/>
		<stop  offset="0.6861" style="stop-color:#F9AE2E"/>
		<stop  offset="1" style="stop-color:#F9B233"/>
	</linearGradient>
	<path class="st2" d="M19.38,18.19v1.79h0.66c0.65,0,1.18-0.53,1.18-1.18v-2.78L19.38,18.19z"/>
</g>
<linearGradient id="SVGID_3_" gradientUnits="userSpaceOnUse" x1="9.9273" y1="16.7923" x2="22.2627" y2="16.7923">
	<stop  offset="1.118836e-07" style="stop-color:#9C9B9B"/>
	<stop  offset="0.5652" style="stop-color:#CDCDCD"/>
	<stop  offset="1" style="stop-color:#5C5C5B"/>
</linearGradient>
<polygon class="st3" points="22.26,11.24 9.93,11.24 14.86,17.08 14.86,21.11 17.33,22.34 17.33,17.08 "/>
<path class="st4" d="M2.29,17.76"/>
</svg>
