<?xml version="1.0" encoding="utf-8"?>
<!-- Generator: Adobe Illustrator 26.0.3, SVG Export Plug-In . SVG Version: 6.00 Build 0)  -->
<svg version="1.1" id="Layer_1" xmlns="http://www.w3.org/2000/svg" xmlns:xlink="http://www.w3.org/1999/xlink" x="0px" y="0px"
	 viewBox="0 0 16 16" style="enable-background:new 0 0 16 16;" xml:space="preserve">
<style type="text/css">
	.st0{fill:#424242;}
</style>
<path class="st0" d="M7,7.5H1L0.5,7v-6L1,0.4h6l0.5,0.5v6L7,7.5z M1.5,6.5h5v-5h-5V6.5z"/>
<path class="st0" d="M15.2,7.5h-6L8.6,7v-6l0.5-0.5h6l0.5,0.5v6L15.2,7.5z M9.6,6.5h5v-5h-5V6.5z"/>
<path class="st0" d="M6.9,15.7h-6l-0.5-0.5v-6l0.5-0.5h6l0.5,0.5v6L6.9,15.7z M1.4,14.7h5v-5h-5V14.7z"/>
<path class="st0" d="M15.1,15.7h-6l-0.5-0.5v-6l0.5-0.5h6l0.5,0.5v6L15.1,15.7z M9.6,14.7h5v-5h-5V14.7z"/>
</svg>
