<svg xmlns="http://www.w3.org/2000/svg" viewBox="0 0 16 16">
  <defs>
    <style>.canvas{fill: none; opacity: 0;}.light-defaultgrey-10{fill: #212121; opacity: 0.1;}.light-defaultgrey{fill: #212121; opacity: 1;}.light-blue{fill: #005dba; opacity: 1;}</style>
  </defs>
  <title>IconLightNavigationProperty</title>
  <g id="canvas">
    <path class="canvas" d="M16,0V16H0V0Z" />
  </g>
  <g id="level-1">
    <path class="light-defaultgrey-10" d="M14.5,1.5v12H9.328L6.859,11.031c.01-.033.013-.067.021-.1q.03-.123.051-.249A3.819,3.819,0,0,0,7,10,3.988,3.988,0,0,0,3.5,6.05V1.5Z" />
    <path class="light-defaultgrey" d="M9,14.586v.707L8.293,16H7.586l-3.3-3.3A2.969,2.969,0,0,1,3,13a3,3,0,0,1-3-3A2.969,2.969,0,0,1,.3,8.714l1.993,1.993L3.707,9.293,1.714,7.3A2.969,2.969,0,0,1,3,7a3,3,0,0,1,3,3,2.969,2.969,0,0,1-.3,1.286Z" />
    <path class="light-defaultgrey" d="M15,1.5v12l-.5.5H9.828l-1-1H14V2H4V6.141A3.977,3.977,0,0,0,3,6V1.5L3.5,1h11Z" />
    <path class="light-blue" d="M7.146,7.854l-2-2V5.146l2-2,.708.708L6.707,5H12V6H6.707L7.854,7.146Zm3.708-.708-.708.708L11.293,9H6.859A3.977,3.977,0,0,1,7,10h4.293l-1.147,1.146.708.708,2-2V9.146Z" />
  </g>
</svg>
