<?xml version="1.0" encoding="utf-8"?>
<!-- Svg Vector Icons : http://www.onlinewebfonts.com/icon -->
<!DOCTYPE svg PUBLIC "-//W3C//DTD SVG 1.1//EN" "http://www.w3.org/Graphics/SVG/1.1/DTD/svg11.dtd">
<svg version="1.1" xmlns="http://www.w3.org/2000/svg" xmlns:xlink="http://www.w3.org/1999/xlink" x="0px" y="0px" viewBox="0 0 1000 1000" enable-background="new 0 0 1000 1000" xml:space="preserve">
<metadata> Svg Vector Icons : http://www.onlinewebfonts.com/icon </metadata>
<g><path d="M909.8,514.5v405.2c0,7.1-5.8,12.8-12.8,12.8H88.1c-7.1,0-12.9-5.8-12.9-12.8V110.3c0-7.1,5.8-12.8,12.9-12.8h404.7c18,0,32.6-14.6,32.6-32.6c0-18-14.6-32.6-32.6-32.6H88.1C45,32.2,10,67.2,10,110.3v809.4c0,43.1,35,78.1,78.1,78.1h808.9c43.1,0,78.1-35,78.1-78.1V514.5c0-18-14.6-32.6-32.6-32.6S909.8,496.5,909.8,514.5L909.8,514.5z M281.5,545.8l-40,144.9c-4.8,17.4,5.4,35.3,22.8,40.1c17.4,4.8,35.3-5.4,40.1-22.8l40-144.9c4.8-17.4-5.4-35.3-22.8-40.1C304.2,518.2,286.2,528.4,281.5,545.8L281.5,545.8z M283.6,731.4l169.9-30c17.7-3.1,29.6-20,26.4-37.8c-3.1-17.7-20-29.6-37.8-26.4l-169.9,30c-17.7,3.1-29.6,20-26.4,37.8C248.9,722.7,265.9,734.6,283.6,731.4L283.6,731.4z M340.9,572.5l501.2-500c6.8-6.8,17.8-6.8,24.6,0l53,53c6.8,6.8,6.8,17.8,0,24.5l-490,491.3c-12.7,12.8-12.7,33.4,0.1,46.1c12.7,12.7,33.4,12.7,46.1-0.1l490-491.2c32.2-32.2,32.2-84.5,0-116.7l-53-53c-32.3-32.2-84.5-32.2-116.8,0L294.9,526.4c-12.7,12.7-12.8,33.4-0.1,46.1C307.5,585.2,328.2,585.3,340.9,572.5L340.9,572.5z"/></g>
</svg>