<?xml version="1.0" encoding="utf-8"?>
<!-- Uploaded to: SVG Repo, www.svgrepo.com, Generator: SVG Repo Mixer Tools -->
<svg width="800px" height="800px" viewBox="-4 0 32 32" xmlns="http://www.w3.org/2000/svg">
  <g id="Lager_46" data-name="Lager 46" transform="translate(-4)">
    <g id="Group_17" data-name="Group 17">
      <path id="Path_54" data-name="Path 54" d="M26,12H24V7h-.07A8.18,8.18,0,0,0,8.094,5.537,1.894,1.894,0,0,0,9.925,8h.25a1.975,1.975,0,0,0,1.838-1.348A4.132,4.132,0,0,1,20,8v4H6a2,2,0,0,0-2,2V30a2,2,0,0,0,2,2H26a2,2,0,0,0,2-2V14A2,2,0,0,0,26,12ZM24,27a1,1,0,0,1-1,1H9a1,1,0,0,1-1-1V17a1,1,0,0,1,1-1H23a1,1,0,0,1,1,1Z" fill="#040505"/>
      <circle id="Ellipse_2" data-name="Ellipse 2" cx="2" cy="2" r="2" transform="translate(14 20)" fill="#040505"/>
    </g>
  </g>
</svg>