<?xml version="1.0" encoding="utf-8"?>
<!-- Uploaded to: SVG Repo, www.svgrepo.com, Generator: SVG Repo Mixer Tools -->
<svg width="800px" height="800px" viewBox="-4 0 32 32" xmlns="http://www.w3.org/2000/svg">
  <g id="Lager_45" data-name="Lager 45" transform="translate(-4)">
    <g id="Group_16" data-name="Group 16">
      <path id="Path_53" data-name="Path 53" d="M26,12H24V7h-.069A7.993,7.993,0,0,0,8.069,7H8v5H6a2,2,0,0,0-2,2V30a2,2,0,0,0,2,2H26a2,2,0,0,0,2-2V14A2,2,0,0,0,26,12ZM12,8a4,4,0,0,1,8,0v4H12ZM23,28H9a1,1,0,0,1-1-1V17a1,1,0,0,1,1-1H23a1,1,0,0,1,1,1V27A1,1,0,0,1,23,28Z" fill="#040505"/>
      <circle id="Ellipse_1" data-name="Ellipse 1" cx="2" cy="2" r="2" transform="translate(14 20)" fill="#040505"/>
    </g>
  </g>
</svg>