<?xml version="1.0" encoding="utf-8"?>
<svg width="16" height="16" viewBox="0 0 16 16" fill="none" xmlns="http://www.w3.org/2000/svg" xmlns:bx="https://boxy-svg.com">
  <path fill-rule="evenodd" clip-rule="evenodd" d="M 10.706 2.091 L 14.5 2.091 L 15 2.636 L 15 12.455 L 14.5 13 L 1.5 13 L 1 12.455 L 1 2.636 L 1.5 2.091 L 5.293 2.091 L 6.146 1.159 L 6.5 1 L 9.5 1 L 9.854 1.159 L 10.706 2.091 Z M 2 11.909 L 14 11.909 L 14 3.182 L 10.5 3.182 L 10.145 3.023 L 9.293 2.091 L 6.707 2.091 L 5.854 3.023 L 5.5 3.182 L 2 3.182 L 2 11.909 Z M 3.5 4.273 C 3.401 4.273 3.304 4.305 3.222 4.365 C 3.14 4.425 3.076 4.509 3.038 4.609 C 3 4.709 2.99 4.819 3.009 4.925 C 3.029 5.03 3.076 5.128 3.147 5.204 C 3.216 5.28 3.305 5.332 3.403 5.353 C 3.5 5.373 3.6 5.363 3.691 5.322 C 3.783 5.281 3.861 5.211 3.916 5.121 C 3.971 5.032 4 4.926 4 4.818 C 4 4.674 3.947 4.535 3.854 4.432 C 3.76 4.329 3.633 4.273 3.5 4.273 Z M 8 5.364 C 8.396 5.364 8.782 5.492 9.111 5.731 C 9.44 5.971 9.696 6.312 9.848 6.711 C 9.999 7.109 10.038 7.548 9.961 7.971 C 9.884 8.394 9.694 8.783 9.414 9.088 C 9.134 9.392 8.778 9.601 8.39 9.685 C 8.002 9.769 7.6 9.726 7.234 9.56 C 6.869 9.396 6.557 9.116 6.337 8.757 C 6.118 8.399 6 7.976 6 7.544 C 6 6.967 6.21 6.412 6.586 6.003 C 6.961 5.594 7.47 5.364 8 5.364 Z M 8 4.273 C 7.406 4.273 6.826 4.465 6.333 4.824 C 5.84 5.184 5.455 5.695 5.229 6.293 C 5.001 6.891 4.942 7.549 5.058 8.184 C 5.174 8.819 5.459 9.402 5.878 9.86 C 6.298 10.316 6.833 10.628 7.415 10.755 C 7.997 10.881 8.6 10.817 9.148 10.568 C 9.696 10.321 10.165 9.902 10.495 9.364 C 10.824 8.825 11 8.192 11 7.544 C 11 6.677 10.683 5.845 10.122 5.231 C 9.559 4.617 8.795 4.273 8 4.273 Z" style="fill: rgb(128, 128, 128);" bx:origin="0.5 0.416667"/>
  <path fill-rule="evenodd" clip-rule="evenodd" d="M 15.135 7.9 L 15.614 8.439 L 15.614 14.891 L 15.135 15.431 L 4.592 15.431 L 4.113 14.891 L 4.113 8.439 L 4.592 7.9 Z M 14.655 8.975 L 5.07 8.975 L 5.07 14.355 L 14.655 14.355 Z" style="fill: rgb(255, 0, 0);"/>
  <path fill-rule="evenodd" clip-rule="evenodd" d="M 14.637 8.974 L 5.052 8.974 L 5.052 14.354 L 14.637 14.354 L 14.637 8.974 Z" style="fill: rgb(255, 255, 255); fill-opacity: 0.8;"/>
  <path fill-rule="evenodd" clip-rule="evenodd" d="M 13.602 12.032 L 12.673 12.032 L 12.673 13.279 L 12.02 13.279 L 12.02 10.053 L 13.687 10.053 L 13.687 10.643 L 12.673 10.643 L 12.673 11.441 L 13.602 11.441 L 13.602 12.032 Z" style="fill: rgb(255, 0, 0);"/>
  <path fill-rule="evenodd" clip-rule="evenodd" d="M 10.306 13.179 C 10.116 13.256 9.913 13.289 9.711 13.279 L 8.694 13.279 L 8.694 10.053 L 9.711 10.053 C 10.737 10.053 11.244 10.546 11.244 11.622 C 11.254 11.844 11.22 12.067 11.148 12.276 C 11.073 12.483 10.963 12.671 10.821 12.828 C 10.671 12.981 10.497 13.1 10.306 13.179 Z M 9.662 12.687 C 9.784 12.694 9.904 12.671 10.018 12.624 C 10.132 12.577 10.235 12.502 10.323 12.408 C 10.491 12.195 10.578 11.918 10.563 11.632 C 10.569 11.501 10.551 11.37 10.51 11.246 C 10.468 11.121 10.405 11.008 10.323 10.912 C 10.233 10.82 10.128 10.748 10.014 10.7 C 9.896 10.655 9.775 10.637 9.653 10.643 L 9.336 10.643 L 9.336 12.687 Z" style="fill: rgb(255, 0, 0);"/>
  <path fill-rule="evenodd" clip-rule="evenodd" d="M 6.989 12.204 L 6.682 12.204 L 6.682 13.279 L 6.029 13.279 L 6.029 10.053 L 7.045 10.053 C 7.765 10.053 8.129 10.44 8.129 11.128 C 8.13 11.273 8.104 11.419 8.052 11.553 C 7.998 11.687 7.92 11.805 7.823 11.903 C 7.584 12.111 7.29 12.217 6.989 12.204 Z M 6.931 10.643 L 6.682 10.643 L 6.682 11.645 L 6.931 11.645 C 7.276 11.645 7.447 11.473 7.447 11.138 C 7.447 10.805 7.276 10.643 6.931 10.643 Z" style="fill: rgb(255, 0, 0);"/>
</svg>