<?xml version="1.0" encoding="utf-8"?>
<svg width="16" height="16" viewBox="0 0 16 16" fill="none" xmlns="http://www.w3.org/2000/svg">
  <path fill-rule="evenodd" clip-rule="evenodd" d="M 10.706 2.09 L 14.5 2.09 L 15 2.635 L 15 12.456 L 14.5 13 L 1.499 13 L 1 12.456 L 1 2.635 L 1.499 2.09 L 5.293 2.09 L 6.145 1.159 L 6.499 1 L 9.5 1 L 9.854 1.159 L 10.706 2.09 Z M 2 11.911 L 13.999 11.911 L 13.999 3.182 L 10.5 3.182 L 10.146 3.023 L 9.293 2.09 L 6.706 2.09 L 5.853 3.023 L 5.5 3.182 L 2 3.182 L 2 11.911 Z M 3.5 4.273 C 3.401 4.273 3.305 4.305 3.222 4.363 C 3.141 4.425 3.077 4.512 3.038 4.609 C 3 4.708 2.99 4.818 3.011 4.926 C 3.029 5.03 3.077 5.128 3.147 5.204 C 3.216 5.281 3.306 5.332 3.403 5.352 C 3.5 5.375 3.599 5.364 3.691 5.322 C 3.783 5.281 3.86 5.21 3.916 5.119 C 3.971 5.032 4 4.926 4 4.818 C 4 4.673 3.947 4.536 3.854 4.434 C 3.759 4.331 3.632 4.273 3.5 4.273 Z M 7.999 5.364 C 8.395 5.364 8.782 5.491 9.11 5.731 C 9.439 5.971 9.696 6.312 9.847 6.709 C 9.999 7.109 10.039 7.548 9.962 7.971 C 9.884 8.395 9.693 8.784 9.414 9.088 C 9.134 9.393 8.778 9.601 8.389 9.685 C 8.002 9.769 7.6 9.727 7.234 9.56 C 6.869 9.396 6.557 9.115 6.337 8.759 C 6.118 8.399 6 7.976 6 7.545 C 6 6.967 6.211 6.412 6.585 6.001 C 6.961 5.593 7.47 5.364 7.999 5.364 Z M 7.999 4.273 C 7.407 4.273 6.827 4.466 6.333 4.824 C 5.84 5.184 5.456 5.695 5.229 6.294 C 5.001 6.89 4.941 7.548 5.057 8.183 C 5.174 8.819 5.458 9.403 5.879 9.859 C 6.298 10.317 6.833 10.629 7.414 10.755 C 7.997 10.883 8.6 10.817 9.148 10.568 C 9.696 10.321 10.165 9.901 10.494 9.364 C 10.824 8.827 10.999 8.193 10.999 7.545 C 10.999 6.678 10.684 5.844 10.121 5.232 C 9.559 4.617 8.796 4.273 7.999 4.273 Z" style="fill: rgb(128, 128, 128);"/>
  <path fill-rule="evenodd" clip-rule="evenodd" d="M 14.933 6.8 L 14.933 7.334 L 15.551 7.869 L 15.551 14.827 L 14.933 15.362 L 8.76 15.362 L 8.143 14.827 L 8.143 7.869 L 8.76 7.334 L 8.76 6.8 L 9.377 6.8 L 9.377 7.334 L 10.612 7.334 L 10.612 6.8 L 11.229 6.8 L 11.229 7.334 L 12.464 7.334 L 12.464 6.8 L 13.081 6.8 L 13.081 7.334 L 14.317 7.334 L 14.317 6.8 Z M 8.76 14.827 L 14.933 14.827 L 14.933 7.869 L 8.76 7.869 Z" style="fill: rgb(174, 78, 151);"/>
  <path fill-rule="evenodd" clip-rule="evenodd" d="M 8.78 14.832 L 14.953 14.832 L 14.953 7.875 L 8.78 7.875 L 8.78 14.832 Z" style="fill: rgb(255, 255, 255); fill-opacity: 0.8;"/>
  <path fill-rule="evenodd" clip-rule="evenodd" d="M 9.995 13.221 L 13.698 13.221 L 13.698 13.757 L 9.995 13.757 L 9.995 13.221 Z" style="fill: rgb(174, 78, 151);"/>
  <path fill-rule="evenodd" clip-rule="evenodd" d="M 13.698 11.081 L 9.995 11.081 L 9.995 11.616 L 13.698 11.616 L 13.698 11.081 Z" style="fill: rgb(174, 78, 151);"/>
  <path fill-rule="evenodd" clip-rule="evenodd" d="M 9.995 8.941 L 13.698 8.941 L 13.698 9.476 L 9.995 9.476 L 9.995 8.941 Z" style="fill: rgb(174, 78, 151);"/>
</svg>