<?xml version="1.0" encoding="utf-8"?>
<svg width="16" height="16" viewBox="0 0 16 16" fill="none" xmlns="http://www.w3.org/2000/svg">
  <path fill-rule="evenodd" clip-rule="evenodd" d="M 10.707 2.091 L 14.5 2.091 L 15 2.636 L 15 12.455 L 14.5 13 L 1.5 13 L 1 12.455 L 1 2.636 L 1.5 2.091 L 5.293 2.091 L 6.146 1.159 L 6.5 1 L 9.5 1 L 9.854 1.159 L 10.707 2.091 Z M 2 11.909 L 14 11.909 L 14 3.182 L 10.5 3.182 L 10.146 3.023 L 9.293 2.091 L 6.707 2.091 L 5.854 3.023 L 5.5 3.182 L 2 3.182 L 2 11.909 Z M 3.5 4.273 C 3.401 4.273 3.304 4.305 3.222 4.365 C 3.14 4.425 3.076 4.51 3.038 4.609 C 3 4.709 2.99 4.819 3.01 4.925 C 3.029 5.03 3.077 5.128 3.146 5.204 C 3.216 5.28 3.305 5.332 3.402 5.353 C 3.499 5.374 3.6 5.363 3.691 5.322 C 3.783 5.281 3.861 5.211 3.916 5.121 C 3.971 5.032 4 4.926 4 4.818 C 4 4.674 3.947 4.535 3.854 4.432 C 3.76 4.33 3.633 4.273 3.5 4.273 Z M 8 5.364 C 8.396 5.364 8.782 5.492 9.111 5.731 C 9.44 5.971 9.696 6.312 9.848 6.711 C 9.999 7.109 10.039 7.548 9.962 7.971 C 9.884 8.394 9.694 8.783 9.414 9.088 C 9.135 9.393 8.778 9.601 8.39 9.685 C 8.002 9.769 7.6 9.726 7.235 9.561 C 6.869 9.396 6.557 9.116 6.337 8.758 C 6.117 8.399 6 7.977 6 7.545 C 6 6.967 6.211 6.412 6.586 6.003 C 6.961 5.594 7.47 5.364 8 5.364 Z M 8 4.273 C 7.407 4.273 6.827 4.465 6.333 4.824 C 5.84 5.184 5.455 5.695 5.228 6.293 C 5.001 6.891 4.942 7.549 5.058 8.184 C 5.173 8.819 5.459 9.402 5.879 9.86 C 6.298 10.317 6.833 10.629 7.415 10.755 C 7.997 10.882 8.6 10.817 9.148 10.569 C 9.696 10.321 10.165 9.902 10.494 9.364 C 10.824 8.825 11 8.193 11 7.545 C 11 6.677 10.684 5.845 10.121 5.231 C 9.559 4.618 8.796 4.273 8 4.273 Z" style="fill: rgb(128, 128, 128);"/>
  <path fill-rule="evenodd" clip-rule="evenodd" d="M 12.108 6.074 L 12.826 6.824 L 12.896 7 L 12.896 12.751 L 12.657 13 L 6.439 13 L 6.2 12.751 L 6.2 6.25 L 6.439 6 L 11.941 6 Z M 6.679 6.502 L 6.679 12.5 L 12.418 12.5 L 12.418 7.102 L 11.841 6.502 L 10.983 6.502 L 10.983 8.502 L 7.636 8.502 L 7.636 6.502 Z M 9.547 6.502 L 9.547 8.001 L 10.503 8.001 L 10.503 6.502 Z" style="fill: rgb(213, 149, 0);"/>
  <path fill-rule="evenodd" clip-rule="evenodd" d="M 6.673 6.496 L 6.673 12.494 L 12.413 12.494 L 12.413 7.097 L 11.836 6.496 L 10.979 6.496 L 10.979 8.495 L 7.63 8.495 L 7.63 6.496 L 6.673 6.496 Z" style="fill: rgb(255, 255, 255); fill-opacity: 0.85;"/>
  <path fill-rule="evenodd" clip-rule="evenodd" d="M 9.552 6.508 L 9.552 8.007 L 10.508 8.007 L 10.508 6.508 L 9.552 6.508 Z" style="fill: rgb(255, 255, 255); fill-opacity: 0.68;"/>
  <path fill-rule="evenodd" clip-rule="evenodd" d="M 13.48 7.249 L 14.198 7.999 L 14.267 8.174 L 14.267 13.926 L 14.029 14.175 L 7.811 14.175 L 7.572 13.926 L 7.572 7.425 L 7.811 7.175 L 13.314 7.175 Z M 8.051 7.676 L 8.051 13.675 L 13.789 13.675 L 13.789 8.277 L 13.213 7.676 L 12.355 7.676 L 12.355 9.677 L 9.007 9.677 L 9.007 7.676 Z M 10.919 7.676 L 10.919 9.176 L 11.876 9.176 L 11.876 7.676 Z" style="fill: rgb(245, 172, 0);"/>
  <path fill-rule="evenodd" clip-rule="evenodd" d="M 8.044 7.671 L 8.044 13.669 L 13.784 13.669 L 13.784 8.272 L 13.208 7.671 L 12.35 7.671 L 12.35 9.67 L 9.001 9.67 L 9.001 7.671 L 8.044 7.671 Z" style="fill: rgb(255, 255, 255); fill-opacity: 0.85;"/>
  <path fill-rule="evenodd" clip-rule="evenodd" d="M 10.923 7.683 L 10.923 9.182 L 11.88 9.182 L 11.88 7.683 L 10.923 7.683 Z" style="fill: rgb(255, 255, 255); fill-opacity: 0.68;"/>
  <path fill-rule="evenodd" clip-rule="evenodd" d="M 14.852 8.487 L 15.57 9.237 L 15.64 9.412 L 15.64 15.164 L 15.401 15.413 L 9.183 15.413 L 8.944 15.164 L 8.944 8.663 L 9.183 8.413 L 14.686 8.413 Z M 9.423 8.914 L 9.423 14.913 L 15.161 14.913 L 15.161 9.515 L 14.586 8.914 L 13.727 8.914 L 13.727 10.915 L 10.379 10.915 L 10.379 8.914 Z M 12.292 8.914 L 12.292 10.414 L 13.248 10.414 L 13.248 8.914 Z" style="fill: rgb(251, 176, 0);"/>
  <path fill-rule="evenodd" clip-rule="evenodd" d="M 9.418 8.909 L 9.418 14.907 L 15.157 14.907 L 15.157 9.51 L 14.581 8.909 L 13.723 8.909 L 13.723 10.908 L 10.374 10.908 L 10.374 8.909 L 9.418 8.909 Z" style="fill: rgb(255, 255, 255); fill-opacity: 0.85;"/>
  <path fill-rule="evenodd" clip-rule="evenodd" d="M 12.296 8.921 L 12.296 10.42 L 13.252 10.42 L 13.252 8.921 L 12.296 8.921 Z" style="fill: rgb(255, 255, 255); fill-opacity: 0.68;"/>
</svg>