<?xml version="1.0" encoding="utf-8"?>
<!-- Generator: Adobe Illustrator 26.0.3, SVG Export Plug-In . SVG Version: 6.00 Build 0)  -->
<svg version="1.1" id="Layer_1" xmlns="http://www.w3.org/2000/svg" xmlns:xlink="http://www.w3.org/1999/xlink" x="0px" y="0px"
	 viewBox="0 0 16 16" style="enable-background:new 0 0 16 16;" xml:space="preserve">
<style type="text/css">
	.st0{fill-rule:evenodd;clip-rule:evenodd;fill:#424242;}
	.st1{fill:#424242;}
</style>
<path class="st0" d="M1.5,14H15v-1H2V0H1v13.5L1.5,14z"/>
<polygon class="st1" points="12.4,6.5 9.1,3.9 7.6,5.9 6.8,5.2 8.9,2.5 12.2,5 14.1,2.6 14.9,3.2 "/>
<rect x="3.7" y="8.4" transform="matrix(0.5823 -0.8129 0.8129 0.5823 -5.2677 7.5303)" class="st1" width="1.9" height="1"/>
<g>
	<rect x="4.2" y="5.2" transform="matrix(0.5971 -0.8022 0.8022 0.5971 -2.6616 6.0987)" class="st1" width="1" height="1"/>
	<path class="st1" d="M10,10.3L8.3,9l0.6-0.8l1.7,1.3L10,10.3z M7.4,8.3L5.7,7l0.6-0.8L8,7.5L7.4,8.3z"/>
	<polygon class="st1" points="12.1,11.8 10.9,10.9 11.5,10.1 11.9,10.4 12.2,10 13,10.6 	"/>
	<rect x="12.7" y="8.8" transform="matrix(0.5959 -0.803 0.803 0.5959 -2.0979 14.4626)" class="st1" width="1.2" height="1"/>
	<rect x="13.8" y="7.4" transform="matrix(0.5953 -0.8035 0.8035 0.5953 -0.5662 14.7387)" class="st1" width="1" height="1"/>
</g>
</svg>
