<?xml version="1.0" encoding="utf-8"?>
<svg width="16" height="16" viewBox="0 0 16 16" fill="none" xmlns="http://www.w3.org/2000/svg">
  <path d="M 7.55 7.78 L 1.939 4.591 L 2.272 4.007 L 7.272 1.007 L 8.272 1.007 L 13.272 4.007 L 13.523 4.447 Z" style="fill: rgb(117, 190, 255);"/>
  <path d="M 13.707 4.791 L 13.707 10.887 L 13.218 11.751 L 8.231 14.799 L 7.421 14.799 L 7.482 7.592 L 13.401 4.243 Z" style="fill: rgb(117, 190, 255);"/>
  <polygon points="2.175 4.831 7.78 1.549" style="fill: rgb(137, 209, 133);"/>
  <path d="M 2.333 11.792 L 1.826 10.924 L 1.826 4.796 L 2.034 4.436 L 7.534 7.605 C 7.534 7.605 7.487 12.944 7.441 14.821 Z" style="fill: rgb(117, 190, 255);"/>
  <path fill-rule="evenodd" clip-rule="evenodd" d="M 14.373 11.184 C 14.092 11.454 13.874 11.753 13.721 12.084 C 13.575 12.414 13.5 12.771 13.5 13.157 L 13.5 14.45 C 13.5 14.595 13.473 14.733 13.416 14.859 C 13.36 14.988 13.282 15.1 13.183 15.193 C 13.086 15.289 12.972 15.363 12.84 15.417 C 12.709 15.473 12.566 15.5 12.418 15.5 L 11.084 15.5 C 10.935 15.5 10.793 15.473 10.662 15.417 C 10.531 15.363 10.415 15.289 10.317 15.193 C 10.219 15.1 10.143 14.988 10.086 14.859 C 10.031 14.733 10.001 14.595 10.001 14.45 L 10.001 13.157 C 10.001 12.771 9.924 12.414 9.774 12.084 C 9.625 11.754 9.412 11.454 9.131 11.184 C 8.769 10.839 8.489 10.452 8.294 10.024 C 8.098 9.596 8 9.131 8 8.633 C 8 8.299 8.044 7.977 8.134 7.667 C 8.221 7.359 8.348 7.068 8.512 6.8 C 8.675 6.528 8.871 6.283 9.097 6.062 C 9.324 5.842 9.577 5.652 9.854 5.493 C 10.135 5.336 10.435 5.214 10.755 5.126 C 11.075 5.042 11.406 5 11.752 5 C 12.095 5 12.426 5.042 12.746 5.126 C 13.065 5.214 13.364 5.336 13.642 5.493 C 13.922 5.652 14.177 5.842 14.403 6.062 C 14.632 6.283 14.826 6.528 14.991 6.8 C 15.152 7.068 15.278 7.358 15.369 7.667 C 15.457 7.977 15.5 8.299 15.5 8.633 C 15.5 9.131 15.404 9.596 15.207 10.024 C 15.012 10.452 14.733 10.839 14.373 11.184 Z M 12.669 12.672 L 10.832 12.672 L 10.832 14.45 C 10.832 14.517 10.855 14.573 10.906 14.621 C 10.959 14.67 11.015 14.695 11.084 14.695 L 12.418 14.695 C 12.485 14.695 12.544 14.67 12.595 14.621 C 12.646 14.573 12.669 14.517 12.669 14.45 L 12.669 12.672 Z" style="fill: rgb(144, 144, 144);"/>
</svg>