<?xml version="1.0" encoding="utf-8"?>
<!-- Generator: Adobe Illustrator 24.3.0, SVG Export Plug-In . SVG Version: 6.00 Build 0)  -->
<svg version="1.1" xmlns="http://www.w3.org/2000/svg" xmlns:xlink="http://www.w3.org/1999/xlink" x="0px" y="0px"
	 viewBox="0 0 24 24" style="enable-background:new 0 0 24 24;" xml:space="preserve">
<style type="text/css">
	.st0{fill:none;stroke:#8DC584;stroke-width:2;stroke-linecap:round;stroke-linejoin:round;stroke-miterlimit:10;}
	.st1{fill:#75BEFF;}
	.st2{fill:url(#SVGID_1_);stroke:#8F9090;stroke-width:0.75;stroke-linecap:round;stroke-linejoin:round;stroke-miterlimit:10;}
	.st3{fill:url(#SVGID_2_);stroke:#8F9090;stroke-width:0.75;stroke-linecap:round;stroke-linejoin:round;stroke-miterlimit:10;}
	.st4{fill:url(#SVGID_3_);stroke:#8F9090;stroke-width:0.75;stroke-linecap:round;stroke-linejoin:round;stroke-miterlimit:10;}
</style>
<g id="Layer_1">
	<path class="st0" d="M1.7,17.8"/>
</g>
<g id="Layer_2">
	<g>
		<g>
			<path class="st1" d="M10.9,12.7h1.9c0.3-1.3,0.7-2.3,1.1-2.9c0.4-0.6,0.9-1.1,1.5-1.5c0.6-0.4,1.2-0.6,1.8-0.6
				c0.3,0,0.6,0.1,0.7,0.2C18,8,18.1,8.2,18.1,8.3c0,0.2-0.1,0.3-0.2,0.4c-0.1,0.1-0.3,0.2-0.4,0.2c-0.2,0-0.5-0.1-1-0.2
				c-0.2-0.1-0.4-0.1-0.6-0.1c-0.3,0-0.7,0.2-0.9,0.6c-0.3,0.4-0.5,1-0.7,1.7l-0.4,1.7H16l-0.1,0.6h-2.1l-1.2,5
				c-0.4,1.5-1,2.7-1.8,3.4S9,22.8,8,22.8c-0.3,0-0.6-0.1-0.7-0.2C7.1,22.5,7,22.3,7,22.1c0-0.2,0.1-0.3,0.2-0.4s0.3-0.1,0.5-0.1
				c0.1,0,0.3,0,0.5,0c0.4,0,0.7,0.1,1,0.1c0.5,0,0.9-0.1,1.1-0.4s0.5-0.8,0.7-1.8l1.6-6.4h-1.9L10.9,12.7z"/>
			<path class="st1" d="M8,23.2c-0.4,0-0.7-0.1-1-0.3c-0.3-0.3-0.4-0.6-0.4-0.8c0-0.3,0.1-0.5,0.3-0.7c0.2-0.2,0.4-0.2,0.7-0.2
				c0.1,0,0.3,0,0.5,0c0.8,0.1,1.6,0.1,1.9-0.2c0.1-0.1,0.3-0.5,0.6-1.6l1.5-5.9h-1.9l0.3-1.3h1.9c0.3-1.2,0.6-2.1,1-2.7
				c0.4-0.7,1-1.2,1.7-1.6c0.7-0.4,1.4-0.6,2-0.6c0.4,0,0.7,0.1,0.9,0.3c0.3,0.2,0.4,0.5,0.4,0.7c0,0.3-0.1,0.5-0.3,0.7
				c-0.2,0.2-0.4,0.3-0.7,0.3c-0.2,0-0.6-0.1-1.1-0.2C16.1,9,16,9,15.9,9c-0.2,0-0.4,0.2-0.6,0.5c-0.3,0.4-0.5,0.9-0.6,1.6l-0.3,1.2
				h2.1l-0.3,1.3h-2.1l-1.2,4.7c-0.4,1.6-1,2.8-1.9,3.6C10.1,22.8,9.1,23.2,8,23.2z M7.7,22c-0.2,0-0.2,0-0.3,0.1c0,0,0,0,0,0.1
				c0,0,0,0.1,0.1,0.2c0.1,0.1,0.2,0.1,0.5,0.1c0.5,0,1-0.1,1.4-0.3c-0.4,0-0.9,0-1.3-0.1C7.9,22,7.8,22,7.7,22z M13.1,13l-1.7,6.6
				c-0.1,0.3-0.2,0.6-0.2,0.9c0.4-0.7,0.8-1.5,1-2.5l1.8-7.2c0.1-0.5,0.3-0.9,0.4-1.3c-0.1,0.1-0.2,0.2-0.2,0.3
				c-0.4,0.6-0.7,1.5-1,2.8L13.1,13z M16.2,8.3c0.1,0,0.3,0,0.4,0.1c0.6,0.1,0.9,0.2,1,0.2c0.1,0,0.1,0,0.2-0.1c0,0,0-0.1,0-0.1
				c0,0,0-0.1-0.1-0.1c-0.1,0-0.2-0.1-0.5-0.1C16.8,8.1,16.5,8.1,16.2,8.3z"/>
		</g>
		<g>
			<path class="st1" d="M16.5,13.7l-0.2-0.3c0.6-0.5,1-0.8,1.4-1c0.3-0.2,0.5-0.2,0.6-0.2c0.2,0,0.4,0.1,0.5,0.3
				c0.2,0.3,0.3,0.9,0.5,1.8c0.6-0.9,1.2-1.6,1.7-2c0.5-0.4,0.9-0.5,1.2-0.5c0.2,0,0.3,0,0.4,0.1c0.1,0.1,0.2,0.2,0.2,0.4
				c0,0.2-0.1,0.3-0.2,0.4c-0.1,0.1-0.4,0.1-0.9,0.2c-0.4,0-0.7,0.1-1,0.4c-0.5,0.4-0.9,0.9-1.3,1.7l0.5,2.3c0.2,1,0.4,1.8,0.7,2.3
				s0.5,0.9,0.9,1.1c0.2,0.2,0.4,0.2,0.6,0.2c0.3,0,0.6-0.2,0.7-0.6c0.1-0.3,0.3-0.4,0.5-0.4c0.1,0,0.2,0,0.3,0.1s0.1,0.2,0.1,0.3
				c0,0.3-0.1,0.5-0.4,0.7s-0.7,0.3-1.1,0.3c-0.5,0-1-0.2-1.4-0.5c-0.5-0.3-0.8-0.8-1.2-1.5c-0.3-0.7-0.6-1.8-0.9-3.3
				c-0.1,0.1-0.3,0.4-0.5,0.7c-0.7,0.9-1.2,1.5-1.5,1.8s-0.7,0.4-1,0.4c-0.2,0-0.4-0.1-0.6-0.2c-0.2-0.1-0.2-0.3-0.2-0.5
				c0-0.1,0-0.3,0.1-0.4c0.1-0.1,0.2-0.2,0.3-0.2c0.1,0,0.3,0.1,0.4,0.3c0.1,0.2,0.2,0.2,0.3,0.2c0.1,0,0.2,0,0.2-0.1
				c0.1-0.1,0.3-0.2,0.5-0.5c0.3-0.3,0.6-0.6,0.7-0.9l1-1.4L18.1,14c-0.1-0.4-0.2-0.6-0.3-0.8S17.7,13,17.6,13c-0.1,0-0.2,0-0.3,0.1
				C17,13.3,16.7,13.5,16.5,13.7z"/>
			<path class="st1" d="M22.1,21.7c-0.6,0-1.1-0.2-1.6-0.5c-0.5-0.4-0.9-0.9-1.3-1.7c-0.3-0.6-0.5-1.4-0.8-2.6
				c-0.7,1-1.2,1.6-1.6,1.9c-0.8,0.6-1.6,0.6-2.1,0.2c-0.2-0.2-0.4-0.5-0.4-0.7c0-0.2,0.1-0.5,0.2-0.6c0.3-0.4,0.9-0.4,1.3,0.1
				c0.1,0.1,0.1,0.1,0.1,0.1c0.1-0.1,0.2-0.1,0.4-0.4c0.3-0.3,0.5-0.6,0.7-0.8l0.9-1.3L17.8,14c-0.1-0.5-0.2-0.6-0.2-0.6
				c0,0,0,0-0.1,0.1c-0.3,0.2-0.5,0.3-0.7,0.5l-0.3,0.3l-0.7-0.9l0.3-0.2c0.6-0.5,1.1-0.8,1.5-1.1c0.3-0.2,0.6-0.3,0.8-0.3
				c0.3,0,0.6,0.2,0.8,0.5c0.1,0.2,0.3,0.6,0.4,1.1c0.5-0.6,0.9-1.1,1.3-1.3c0.9-0.7,1.7-0.8,2.1-0.4c0.2,0.2,0.3,0.4,0.3,0.6
				c0,0.3-0.1,0.5-0.4,0.7c-0.1,0.1-0.3,0.2-1,0.2c-0.3,0-0.6,0.1-0.8,0.3c-0.4,0.3-0.8,0.8-1.2,1.4l0.5,2.2c0.2,1,0.4,1.7,0.6,2.2
				c0.2,0.4,0.5,0.8,0.8,1c0.1,0.1,0.3,0.1,0.4,0.1c0.1,0,0.2,0,0.4-0.4c0.2-0.6,0.6-0.6,0.8-0.6c0.2,0,0.4,0.1,0.6,0.3
				c0.1,0.2,0.2,0.4,0.2,0.6c0,0.4-0.2,0.7-0.6,1C23.1,21.6,22.7,21.7,22.1,21.7z M23.3,20.3c0,0-0.1,0-0.1,0.1
				c-0.1,0.1-0.1,0.3-0.2,0.3c0,0,0,0,0,0C23.2,20.6,23.3,20.5,23.3,20.3C23.3,20.3,23.3,20.3,23.3,20.3z M18.8,15.1L19,16
				c0.3,1.5,0.6,2.6,0.9,3.2c0.2,0.5,0.5,0.9,0.8,1.1c-0.1-0.2-0.3-0.4-0.4-0.7c-0.3-0.5-0.5-1.3-0.7-2.4l-0.4-2.1l0,0l-0.2-0.9
				c-0.2-1.2-0.4-1.6-0.5-1.7c-0.1-0.1-0.1-0.1-0.2-0.1c0,0-0.1,0-0.4,0.2c0,0,0,0,0,0c0.1,0,0.2,0.1,0.3,0.3
				c0.1,0.2,0.2,0.4,0.3,0.9L18.8,15.1L18.8,15.1z M15.2,18.1c-0.1,0.1-0.1,0.1-0.1,0.2c0,0,0,0.1,0.1,0.2c0.1,0.1,0.3,0.1,0.5,0.1
				c-0.1-0.1-0.2-0.2-0.3-0.3C15.3,18.2,15.2,18.1,15.2,18.1z M22.3,12.2c-0.2,0-0.4,0.1-0.9,0.4c0.1,0,0.2,0,0.4-0.1
				c0.5,0,0.7-0.1,0.7-0.1c0,0,0-0.1,0-0.1c0,0,0-0.1,0-0.1C22.4,12.2,22.4,12.2,22.3,12.2z"/>
		</g>
	</g>
</g>
<g id="Layer_2_copy">
	<g>
		<linearGradient id="SVGID_1_" gradientUnits="userSpaceOnUse" x1="9.84" y1="15.8604" x2="10.2266" y2="15.8604">
			<stop  offset="1.118836e-07" style="stop-color:#9D9D9C"/>
			<stop  offset="0.5652" style="stop-color:#CECECE"/>
			<stop  offset="1" style="stop-color:#5C5C5B"/>
		</linearGradient>
		<polygon class="st2" points="10.2,15.1 9.8,15.1 9.8,16.6 		"/>
		<linearGradient id="SVGID_2_" gradientUnits="userSpaceOnUse" x1="1.18" y1="7.429" x2="22.82" y2="7.429">
			<stop  offset="1.118836e-07" style="stop-color:#9D9D9C"/>
			<stop  offset="0.5652" style="stop-color:#CECECE"/>
			<stop  offset="1" style="stop-color:#5C5C5B"/>
		</linearGradient>
		<path class="st3" d="M9.4,10.8h1.9c0.3-0.8,0.6-1.5,0.9-2c0.6-0.9,1.3-1.6,2.2-2.1c1.7-1,3.5-1.1,4.6-0.2c0.1,0.1,0.3,0.2,0.4,0.4
			l3.4-4H1.2l7.9,9.4L9.4,10.8z"/>
		<linearGradient id="SVGID_3_" gradientUnits="userSpaceOnUse" x1="13.0764" y1="21.2243" x2="14.16" y2="21.2243">
			<stop  offset="1.118836e-07" style="stop-color:#9D9D9C"/>
			<stop  offset="0.5652" style="stop-color:#CECECE"/>
			<stop  offset="1" style="stop-color:#5C5C5B"/>
		</linearGradient>
		<path class="st4" d="M13.8,20.2c-0.2,0.5-0.5,1-0.8,1.4l1.1,0.5v-1.8C14,20.4,13.9,20.3,13.8,20.2z"/>
	</g>
</g>
</svg>
