<?xml version="1.0" encoding="utf-8"?>
<!-- Generator: Adobe Illustrator 24.3.0, SVG Export Plug-In . SVG Version: 6.00 Build 0)  -->
<svg version="1.1" id="Layer_1" xmlns="http://www.w3.org/2000/svg" xmlns:xlink="http://www.w3.org/1999/xlink" x="0px" y="0px"
	 viewBox="0 0 24 24" style="enable-background:new 0 0 24 24;" xml:space="preserve">
<style type="text/css">
	.st0{fill:#80B9E6;}
</style>
<g id="Layer_2_1_">
	<g>
		<g>
			<path class="st0" d="M2.6,22.1c-0.5,0-0.9-0.1-1.3-0.4c-0.4-0.4-0.5-0.8-0.5-1c0-0.4,0.1-0.6,0.4-0.9c0.3-0.3,0.5-0.3,0.9-0.3
				c0.1,0,0.4,0,0.6,0c1,0.1,2,0.1,2.4-0.3c0.1-0.1,0.4-0.6,0.8-2l1.9-7.5H5.4l0.4-1.7h2.4c0.4-1.5,0.8-2.7,1.3-3.4
				c0.5-0.9,1.3-1.5,2.2-2c0.9-0.5,1.8-0.8,2.5-0.8c0.5,0,0.9,0.1,1.1,0.4c0.4,0.3,0.5,0.6,0.5,0.9c0,0.4-0.1,0.6-0.4,0.9
				c-0.3,0.3-0.5,0.4-0.9,0.4c-0.3,0-0.8-0.1-1.4-0.3c-0.3-0.1-0.4-0.1-0.5-0.1c-0.3,0-0.5,0.3-0.8,0.6c-0.4,0.5-0.6,1.1-0.8,2
				l-0.4,1.5h2.7L13,9.9h-2.7l-1.5,6c-0.5,2-1.3,3.6-2.4,4.6C5.3,21.6,4,22.1,2.6,22.1z"/>
		</g>
		<g>
			<path class="st0" d="M20.5,20.2c-0.8,0-1.4-0.3-2-0.6c-0.6-0.5-1.1-1.1-1.7-2.2c-0.4-0.8-0.6-1.8-1-3.3c-0.9,1.3-1.5,2-2,2.4
				c-1,0.8-2,0.8-2.7,0.3c-0.3-0.3-0.5-0.6-0.5-0.9s0.1-0.6,0.3-0.8c0.4-0.5,1.1-0.5,1.7,0.1c0.1,0.1,0.1,0.1,0.1,0.1
				c0.1-0.1,0.3-0.1,0.5-0.5c0.4-0.4,0.6-0.8,0.9-1l1.1-1.7l-0.1-1.8c-0.1-0.6-0.3-0.8-0.3-0.8s0,0-0.1,0.1
				c-0.4,0.3-0.6,0.4-0.9,0.6l-0.4,0.4l-0.9-1.1l0.4-0.3c0.8-0.6,1.4-1,1.9-1.4c0.4-0.3,0.8-0.4,1-0.4c0.4,0,0.8,0.3,1,0.6
				C17,8.5,17.2,9,17.3,9.6C18,8.9,18.5,8.2,19,8c1.1-0.9,2.2-1,2.7-0.5C21.9,7.7,22,8,22,8.2c0,0.4-0.1,0.6-0.5,0.9
				c-0.1,0.1-0.4,0.3-1.3,0.3c-0.4,0-0.8,0.1-1,0.4c-0.5,0.4-1,1-1.5,1.8l0.6,2.8c0.3,1.3,0.5,2.2,0.8,2.8c0.3,0.5,0.6,1,1,1.3
				c0.1,0.1,0.4,0.1,0.5,0.1c0.1,0,0.3,0,0.5-0.5c0.3-0.8,0.8-0.8,1-0.8c0.3,0,0.5,0.1,0.8,0.4c0.1,0.3,0.3,0.5,0.3,0.8
				c0,0.5-0.3,0.9-0.8,1.3C21.8,20.1,21.3,20.2,20.5,20.2z"/>
		</g>
	</g>
</g>
</svg>
