<?xml version="1.0" encoding="utf-8"?>
<svg width="16" height="16" viewBox="0 0 16 16" fill="none" xmlns="http://www.w3.org/2000/svg">
  <path fill-rule="evenodd" clip-rule="evenodd" d="M 15 1 L 1 1 L 0.462 1.538 L 0.462 12.308 L 1 12.846 L 6.924 12.846 L 6.924 13.923 L 3.693 13.923 L 3.693 15 L 12.308 15 L 12.308 13.923 L 9.077 13.923 L 9.077 12.846 L 15 12.846 L 15.539 12.308 L 15.539 1.538 L 15 1 Z M 14.462 11.769 L 1.539 11.769 L 1.539 2.077 L 14.462 2.077 L 14.462 11.769 Z" style="fill: rgb(144, 144, 144);"/>
  <rect x="7.977" y="2.159" width="6.492" height="5.26" style="stroke: rgb(0, 0, 0); stroke-width: 0.2px; fill: rgb(251, 176, 0);"/>
  <rect x="8.026" y="2.194" width="6.407" height="1.124" style="stroke: rgb(0, 0, 0); stroke-width: 0.1px; fill: rgb(205, 205, 205);"/>
  <rect x="1.5" y="2.16" width="6.492" height="5.26" style="stroke: rgb(0, 0, 0); stroke-width: 0.2px; fill: rgb(117, 190, 255);"/>
  <rect x="1.55" y="2.195" width="6.407" height="1.124" style="stroke: rgb(0, 0, 0); stroke-width: 0.1px; fill: rgb(205, 205, 205);"/>
  <rect x="1.485" y="6.94" width="6.492" height="4.918" style="stroke: rgb(0, 0, 0); stroke-width: 0.2px; fill: rgb(174, 78, 151);"/>
  <rect x="1.535" y="6.973" width="6.407" height="0.918" style="stroke: rgb(0, 0, 0); stroke-width: 0.1px; fill: rgb(205, 205, 205);"/>
  <rect x="7.977" y="6.916" width="6.492" height="4.943" style="stroke: rgb(0, 0, 0); stroke-width: 0.2px; fill: rgb(137, 209, 133);"/>
  <rect x="8.026" y="6.949" width="6.407" height="0.936" style="stroke: rgb(0, 0, 0); stroke-width: 0.1px; fill: rgb(205, 205, 205);"/>
</svg>